<mxfile host="app.diagrams.net" modified="2021-07-13T15:23:45.956Z" agent="5.0 (Macintosh; Intel Mac OS X 10_15_7) AppleWebKit/537.36 (KHTML, like Gecko) Chrome/91.0.4472.114 Safari/537.36" etag="RiPVVXx1OiOlrY9aiEzl" version="14.8.5" type="github" pages="9">
  <diagram id="hd0Ka5t1frM0ckPXlcHm" name="View-List-Card">
    <mxGraphModel dx="1598" dy="1129" grid="1" gridSize="10" guides="1" tooltips="1" connect="1" arrows="1" fold="1" page="1" pageScale="1" pageWidth="827" pageHeight="1169" math="0" shadow="0">
      <root>
        <mxCell id="_UagtH8NP6pTkRekgera-0" />
        <mxCell id="_UagtH8NP6pTkRekgera-1" parent="_UagtH8NP6pTkRekgera-0" />
        <mxCell id="_uYr-ArWrwQnzgeDa2tB-32" style="edgeStyle=none;rounded=0;orthogonalLoop=1;jettySize=auto;html=1;entryX=0;entryY=0.056;entryDx=0;entryDy=0;entryPerimeter=0;" edge="1" parent="_UagtH8NP6pTkRekgera-1">
          <mxGeometry relative="1" as="geometry">
            <mxPoint x="69.83333333333326" y="119.32999999999998" as="sourcePoint" />
            <mxPoint x="275" y="119.32999999999998" as="targetPoint" />
          </mxGeometry>
        </mxCell>
        <mxCell id="_uYr-ArWrwQnzgeDa2tB-0" value="MBA Usert" style="shape=umlLifeline;participant=umlActor;perimeter=lifelinePerimeter;html=1;container=1;collapsible=0;recursiveResize=0;verticalAlign=top;spacingTop=36;outlineConnect=0;strokeColor=#000000;strokeWidth=1;fillColor=none;size=40;" vertex="1" parent="_UagtH8NP6pTkRekgera-1">
          <mxGeometry x="60" y="27" width="20" height="290" as="geometry" />
        </mxCell>
        <mxCell id="_uYr-ArWrwQnzgeDa2tB-1" value="&lt;span&gt;Mobile App&lt;/span&gt;" style="shape=umlLifeline;perimeter=lifelinePerimeter;whiteSpace=wrap;html=1;container=1;collapsible=0;recursiveResize=0;outlineConnect=0;rounded=0;shadow=0;strokeColor=#000000;strokeWidth=1;fillColor=none;verticalAlign=middle;" vertex="1" parent="_UagtH8NP6pTkRekgera-1">
          <mxGeometry x="230" y="40" width="100" height="280" as="geometry" />
        </mxCell>
        <mxCell id="_uYr-ArWrwQnzgeDa2tB-2" value="&lt;span&gt;Card service&lt;/span&gt;" style="shape=umlLifeline;perimeter=lifelinePerimeter;whiteSpace=wrap;html=1;container=1;collapsible=0;recursiveResize=0;outlineConnect=0;rounded=0;shadow=0;strokeColor=#000000;strokeWidth=1;fillColor=none;verticalAlign=middle;" vertex="1" parent="_UagtH8NP6pTkRekgera-1">
          <mxGeometry x="470" y="40" width="100" height="280" as="geometry" />
        </mxCell>
        <mxCell id="_uYr-ArWrwQnzgeDa2tB-3" value="&lt;span&gt;AAG&lt;/span&gt;" style="shape=umlLifeline;perimeter=lifelinePerimeter;whiteSpace=wrap;html=1;container=1;collapsible=0;recursiveResize=0;outlineConnect=0;rounded=0;shadow=0;strokeColor=#000000;strokeWidth=1;fillColor=none;verticalAlign=middle;" vertex="1" parent="_UagtH8NP6pTkRekgera-1">
          <mxGeometry x="710" y="40" width="100" height="280" as="geometry" />
        </mxCell>
        <mxCell id="_uYr-ArWrwQnzgeDa2tB-35" style="edgeStyle=none;rounded=0;orthogonalLoop=1;jettySize=auto;html=1;entryX=0.1;entryY=0.1;entryDx=0;entryDy=0;entryPerimeter=0;" edge="1" parent="_UagtH8NP6pTkRekgera-1">
          <mxGeometry relative="1" as="geometry">
            <mxPoint x="285" y="151" as="sourcePoint" />
            <mxPoint x="516" y="151" as="targetPoint" />
          </mxGeometry>
        </mxCell>
        <mxCell id="_uYr-ArWrwQnzgeDa2tB-42" style="edgeStyle=none;rounded=0;orthogonalLoop=1;jettySize=auto;html=1;dashed=1;" edge="1" parent="_UagtH8NP6pTkRekgera-1">
          <mxGeometry relative="1" as="geometry">
            <mxPoint x="275" y="269" as="sourcePoint" />
            <mxPoint x="69.83333333333326" y="269" as="targetPoint" />
          </mxGeometry>
        </mxCell>
        <mxCell id="_uYr-ArWrwQnzgeDa2tB-19" value="" style="html=1;points=[];perimeter=orthogonalPerimeter;" vertex="1" parent="_UagtH8NP6pTkRekgera-1">
          <mxGeometry x="275" y="120" width="10" height="160" as="geometry" />
        </mxCell>
        <mxCell id="_uYr-ArWrwQnzgeDa2tB-21" value="Choose Card(s) on Dashboard" style="text;html=1;align=center;verticalAlign=middle;resizable=0;points=[];autosize=1;strokeColor=none;" vertex="1" parent="_UagtH8NP6pTkRekgera-1">
          <mxGeometry x="80" y="99.81" width="180" height="20" as="geometry" />
        </mxCell>
        <mxCell id="_uYr-ArWrwQnzgeDa2tB-36" style="edgeStyle=none;rounded=0;orthogonalLoop=1;jettySize=auto;html=1;entryX=0.1;entryY=0.18;entryDx=0;entryDy=0;entryPerimeter=0;" edge="1" parent="_UagtH8NP6pTkRekgera-1">
          <mxGeometry relative="1" as="geometry">
            <mxPoint x="524" y="179" as="sourcePoint" />
            <mxPoint x="755" y="179" as="targetPoint" />
          </mxGeometry>
        </mxCell>
        <mxCell id="_uYr-ArWrwQnzgeDa2tB-41" style="edgeStyle=none;rounded=0;orthogonalLoop=1;jettySize=auto;html=1;entryX=1;entryY=0.819;entryDx=0;entryDy=0;entryPerimeter=0;dashed=1;" edge="1" parent="_UagtH8NP6pTkRekgera-1">
          <mxGeometry relative="1" as="geometry">
            <mxPoint x="515" y="239.23000000000002" as="sourcePoint" />
            <mxPoint x="285" y="239.23000000000002" as="targetPoint" />
          </mxGeometry>
        </mxCell>
        <mxCell id="_uYr-ArWrwQnzgeDa2tB-22" value="" style="html=1;points=[];perimeter=orthogonalPerimeter;" vertex="1" parent="_UagtH8NP6pTkRekgera-1">
          <mxGeometry x="515" y="150" width="10" height="100" as="geometry" />
        </mxCell>
        <mxCell id="_uYr-ArWrwQnzgeDa2tB-39" style="edgeStyle=none;rounded=0;orthogonalLoop=1;jettySize=auto;html=1;entryX=1;entryY=0.639;entryDx=0;entryDy=0;entryPerimeter=0;dashed=1;" edge="1" parent="_UagtH8NP6pTkRekgera-1">
          <mxGeometry relative="1" as="geometry">
            <mxPoint x="754" y="210.80999999999997" as="sourcePoint" />
            <mxPoint x="524" y="210.80999999999997" as="targetPoint" />
          </mxGeometry>
        </mxCell>
        <mxCell id="_uYr-ArWrwQnzgeDa2tB-24" value="" style="html=1;points=[];perimeter=orthogonalPerimeter;" vertex="1" parent="_UagtH8NP6pTkRekgera-1">
          <mxGeometry x="755" y="180" width="10" height="40" as="geometry" />
        </mxCell>
        <mxCell id="_uYr-ArWrwQnzgeDa2tB-25" value="Request list cards" style="text;html=1;align=center;verticalAlign=middle;resizable=0;points=[];autosize=1;strokeColor=none;" vertex="1" parent="_UagtH8NP6pTkRekgera-1">
          <mxGeometry x="340" y="130" width="110" height="20" as="geometry" />
        </mxCell>
        <mxCell id="_uYr-ArWrwQnzgeDa2tB-27" value="Get list cards" style="text;html=1;align=center;verticalAlign=middle;resizable=0;points=[];autosize=1;strokeColor=none;" vertex="1" parent="_UagtH8NP6pTkRekgera-1">
          <mxGeometry x="594" y="160" width="90" height="20" as="geometry" />
        </mxCell>
        <mxCell id="_uYr-ArWrwQnzgeDa2tB-28" value="Response list cards" style="text;html=1;align=center;verticalAlign=middle;resizable=0;points=[];autosize=1;strokeColor=none;" vertex="1" parent="_UagtH8NP6pTkRekgera-1">
          <mxGeometry x="579" y="190.52" width="120" height="20" as="geometry" />
        </mxCell>
        <mxCell id="_uYr-ArWrwQnzgeDa2tB-29" value="Show list cards" style="text;html=1;align=center;verticalAlign=middle;resizable=0;points=[];autosize=1;strokeColor=none;" vertex="1" parent="_UagtH8NP6pTkRekgera-1">
          <mxGeometry x="120" y="250" width="100" height="20" as="geometry" />
        </mxCell>
        <mxCell id="_uYr-ArWrwQnzgeDa2tB-30" value="Response list cards" style="text;html=1;align=center;verticalAlign=middle;resizable=0;points=[];autosize=1;strokeColor=none;" vertex="1" parent="_UagtH8NP6pTkRekgera-1">
          <mxGeometry x="335" y="220" width="120" height="20" as="geometry" />
        </mxCell>
      </root>
    </mxGraphModel>
  </diagram>
  <diagram id="kgpKYQtTHZ0yAKxKKP6v" name="Open-card">
    <mxGraphModel dx="1598" dy="1129" grid="1" gridSize="10" guides="1" tooltips="1" connect="1" arrows="1" fold="1" page="1" pageScale="1" pageWidth="850" pageHeight="1100" math="0" shadow="0">
      <root>
        <mxCell id="0" />
        <mxCell id="1" parent="0" />
        <mxCell id="By4HMkN_MSCJ4IL5Xg5a-3" style="edgeStyle=none;rounded=0;orthogonalLoop=1;jettySize=auto;html=1;entryX=-0.029;entryY=0.024;entryDx=0;entryDy=0;entryPerimeter=0;fontSize=12;" edge="1" parent="1" source="vo751mz3C_6tF2KK00Bt-24">
          <mxGeometry relative="1" as="geometry">
            <mxPoint x="204.71000000000004" y="124.15999999999997" as="targetPoint" />
          </mxGeometry>
        </mxCell>
        <mxCell id="By4HMkN_MSCJ4IL5Xg5a-16" style="edgeStyle=none;rounded=0;orthogonalLoop=1;jettySize=auto;html=1;entryX=-0.386;entryY=0.666;entryDx=0;entryDy=0;entryPerimeter=0;fontSize=12;" edge="1" parent="1" source="vo751mz3C_6tF2KK00Bt-24">
          <mxGeometry relative="1" as="geometry">
            <mxPoint x="201.1400000000001" y="663.44" as="targetPoint" />
          </mxGeometry>
        </mxCell>
        <mxCell id="By4HMkN_MSCJ4IL5Xg5a-20" style="edgeStyle=none;rounded=0;orthogonalLoop=1;jettySize=auto;html=1;entryX=-0.314;entryY=0.857;entryDx=0;entryDy=0;entryPerimeter=0;fontSize=12;" edge="1" parent="1" source="vo751mz3C_6tF2KK00Bt-24">
          <mxGeometry relative="1" as="geometry">
            <mxPoint x="201.86000000000013" y="823.8800000000001" as="targetPoint" />
          </mxGeometry>
        </mxCell>
        <mxCell id="vo751mz3C_6tF2KK00Bt-24" value="MBA Usert" style="shape=umlLifeline;participant=umlActor;perimeter=lifelinePerimeter;html=1;container=1;collapsible=0;recursiveResize=0;verticalAlign=top;spacingTop=36;outlineConnect=0;strokeColor=#000000;strokeWidth=1;fillColor=none;size=40;" parent="1" vertex="1">
          <mxGeometry x="40" y="10" width="20" height="1070" as="geometry" />
        </mxCell>
        <mxCell id="vo751mz3C_6tF2KK00Bt-27" value="&lt;span&gt;Mobile App&lt;/span&gt;" style="shape=umlLifeline;perimeter=lifelinePerimeter;whiteSpace=wrap;html=1;container=1;collapsible=0;recursiveResize=0;outlineConnect=0;rounded=0;shadow=0;strokeColor=#000000;strokeWidth=1;fillColor=none;verticalAlign=middle;" parent="1" vertex="1">
          <mxGeometry x="160" y="24" width="100" height="1056" as="geometry" />
        </mxCell>
        <mxCell id="vo751mz3C_6tF2KK00Bt-32" value="&lt;span&gt;Card service&lt;/span&gt;" style="shape=umlLifeline;perimeter=lifelinePerimeter;whiteSpace=wrap;html=1;container=1;collapsible=0;recursiveResize=0;outlineConnect=0;rounded=0;shadow=0;strokeColor=#000000;strokeWidth=1;fillColor=none;verticalAlign=middle;" parent="1" vertex="1">
          <mxGeometry x="341" y="24" width="100" height="1056" as="geometry" />
        </mxCell>
        <mxCell id="vo751mz3C_6tF2KK00Bt-35" value="&lt;span&gt;BO&lt;/span&gt;" style="shape=umlLifeline;perimeter=lifelinePerimeter;whiteSpace=wrap;html=1;container=1;collapsible=0;recursiveResize=0;outlineConnect=0;rounded=0;shadow=0;strokeColor=#000000;strokeWidth=1;fillColor=none;verticalAlign=middle;" parent="1" vertex="1">
          <mxGeometry x="700" y="24" width="100" height="1056" as="geometry" />
        </mxCell>
        <mxCell id="RYBP9NsJhSfMsdhZHugq-2" value="Get list account" style="text;html=1;align=center;verticalAlign=middle;resizable=0;points=[];autosize=1;strokeColor=none;fontSize=12;" parent="1" vertex="1">
          <mxGeometry x="433.4" y="684" width="100" height="20" as="geometry" />
        </mxCell>
        <mxCell id="RYBP9NsJhSfMsdhZHugq-6" value="Request list account" style="text;html=1;align=center;verticalAlign=middle;resizable=0;points=[];autosize=1;strokeColor=none;fontSize=12;" parent="1" vertex="1">
          <mxGeometry x="239.5" y="662" width="120" height="20" as="geometry" />
        </mxCell>
        <mxCell id="RYBP9NsJhSfMsdhZHugq-11" value="List account" style="text;html=1;align=center;verticalAlign=middle;resizable=0;points=[];autosize=1;strokeColor=none;fontSize=12;" parent="1" vertex="1">
          <mxGeometry x="441" y="704" width="80" height="20" as="geometry" />
        </mxCell>
        <mxCell id="RYBP9NsJhSfMsdhZHugq-20" value="List fee" style="text;html=1;align=center;verticalAlign=middle;resizable=0;points=[];autosize=1;strokeColor=none;fontSize=12;" parent="1" vertex="1">
          <mxGeometry x="457.9" y="745" width="50" height="20" as="geometry" />
        </mxCell>
        <mxCell id="gTw7m5r9WYM5v2FRA-6i-1" value="AAG" style="shape=umlLifeline;perimeter=lifelinePerimeter;whiteSpace=wrap;html=1;container=1;collapsible=0;recursiveResize=0;outlineConnect=0;" vertex="1" parent="1">
          <mxGeometry x="520" y="24" width="100" height="1056" as="geometry" />
        </mxCell>
        <mxCell id="cfSFB3RhmETJlVALsD9m-6" value="Choose card design" style="text;html=1;align=center;verticalAlign=middle;resizable=0;points=[];autosize=1;strokeColor=none;fontSize=12;" vertex="1" parent="1">
          <mxGeometry x="67.9" y="644" width="120" height="20" as="geometry" />
        </mxCell>
        <mxCell id="cfSFB3RhmETJlVALsD9m-7" value="Reponse list account and&amp;nbsp;fee" style="text;html=1;align=center;verticalAlign=middle;resizable=0;points=[];autosize=1;strokeColor=none;fontSize=12;" vertex="1" parent="1">
          <mxGeometry x="218.4" y="764" width="170" height="20" as="geometry" />
        </mxCell>
        <mxCell id="cfSFB3RhmETJlVALsD9m-8" value="Show list account and fee" style="text;html=1;align=center;verticalAlign=middle;resizable=0;points=[];autosize=1;strokeColor=none;fontSize=12;" vertex="1" parent="1">
          <mxGeometry x="51.6" y="782" width="150" height="20" as="geometry" />
        </mxCell>
        <mxCell id="cfSFB3RhmETJlVALsD9m-9" value="Get open card fee" style="text;html=1;align=center;verticalAlign=middle;resizable=0;points=[];autosize=1;strokeColor=none;fontSize=12;" vertex="1" parent="1">
          <mxGeometry x="424.5" y="724" width="110" height="20" as="geometry" />
        </mxCell>
        <mxCell id="cfSFB3RhmETJlVALsD9m-10" value="Choose account" style="text;html=1;align=center;verticalAlign=middle;resizable=0;points=[];autosize=1;strokeColor=none;fontSize=12;" vertex="1" parent="1">
          <mxGeometry x="76.60000000000001" y="804" width="100" height="20" as="geometry" />
        </mxCell>
        <mxCell id="QIuEyYcCNT5PP5Maq9_X-1" value="Alternative" style="shape=umlFrame;whiteSpace=wrap;html=1;fontSize=12;verticalAlign=middle;width=70;height=30;" vertex="1" parent="1">
          <mxGeometry x="10" y="74" width="780" height="560" as="geometry" />
        </mxCell>
        <mxCell id="QIuEyYcCNT5PP5Maq9_X-2" value="Alternative" style="shape=umlFrame;whiteSpace=wrap;html=1;fontSize=12;verticalAlign=middle;width=71;height=30;" vertex="1" parent="1">
          <mxGeometry x="29.4" y="414" width="740.6" height="200" as="geometry" />
        </mxCell>
        <mxCell id="QIuEyYcCNT5PP5Maq9_X-3" value="" style="line;strokeWidth=1;fillColor=none;align=left;verticalAlign=middle;spacingTop=-1;spacingLeft=3;spacingRight=3;rotatable=0;labelPosition=right;points=[];portConstraint=eastwest;fontSize=12;dashed=1;" vertex="1" parent="1">
          <mxGeometry x="10" y="274" width="780" height="8" as="geometry" />
        </mxCell>
        <mxCell id="QIuEyYcCNT5PP5Maq9_X-4" value="" style="line;strokeWidth=1;fillColor=none;align=left;verticalAlign=middle;spacingTop=-1;spacingLeft=3;spacingRight=3;rotatable=0;labelPosition=right;points=[];portConstraint=eastwest;fontSize=12;dashed=1;" vertex="1" parent="1">
          <mxGeometry x="30" y="474" width="740" height="8" as="geometry" />
        </mxCell>
        <mxCell id="0kLFKch9zdshAubh-1zO-1" value="Choose open virtual card" style="text;html=1;align=center;verticalAlign=middle;resizable=0;points=[];autosize=1;strokeColor=none;fontSize=12;" vertex="1" parent="1">
          <mxGeometry x="51.6" y="104" width="150" height="20" as="geometry" />
        </mxCell>
        <mxCell id="0kLFKch9zdshAubh-1zO-2" value="Validate user" style="text;html=1;align=center;verticalAlign=middle;resizable=0;points=[];autosize=1;strokeColor=none;fontSize=12;" vertex="1" parent="1">
          <mxGeometry x="259.4" y="304" width="80" height="20" as="geometry" />
        </mxCell>
        <mxCell id="0kLFKch9zdshAubh-1zO-3" value="Get total card of user" style="text;html=1;align=center;verticalAlign=middle;resizable=0;points=[];autosize=1;strokeColor=none;fontSize=12;" vertex="1" parent="1">
          <mxGeometry x="418.4" y="324" width="130" height="20" as="geometry" />
        </mxCell>
        <mxCell id="0kLFKch9zdshAubh-1zO-4" value="Number card of user" style="text;html=1;align=center;verticalAlign=middle;resizable=0;points=[];autosize=1;strokeColor=none;fontSize=12;" vertex="1" parent="1">
          <mxGeometry x="423.4" y="344" width="120" height="20" as="geometry" />
        </mxCell>
        <mxCell id="0kLFKch9zdshAubh-1zO-5" value="User in blacklist" style="text;html=1;align=center;verticalAlign=middle;resizable=0;points=[];autosize=1;strokeColor=none;fontSize=12;" vertex="1" parent="1">
          <mxGeometry x="432.9" y="364" width="100" height="20" as="geometry" />
        </mxCell>
        <mxCell id="0kLFKch9zdshAubh-1zO-6" value="Are a user in the blacklist" style="text;html=1;align=center;verticalAlign=middle;resizable=0;points=[];autosize=1;strokeColor=none;fontSize=12;" vertex="1" parent="1">
          <mxGeometry x="408.4" y="384" width="150" height="20" as="geometry" />
        </mxCell>
        <mxCell id="0kLFKch9zdshAubh-1zO-9" value="User invalid" style="text;html=1;align=center;verticalAlign=middle;resizable=0;points=[];autosize=1;strokeColor=none;fontSize=12;" vertex="1" parent="1">
          <mxGeometry x="262.9" y="422" width="80" height="20" as="geometry" />
        </mxCell>
        <mxCell id="0kLFKch9zdshAubh-1zO-10" value="Show popup" style="text;html=1;align=center;verticalAlign=middle;resizable=0;points=[];autosize=1;strokeColor=none;fontSize=12;" vertex="1" parent="1">
          <mxGeometry x="87.9" y="442" width="80" height="20" as="geometry" />
        </mxCell>
        <mxCell id="0kLFKch9zdshAubh-1zO-11" value="Response list cards design" style="text;html=1;align=center;verticalAlign=middle;resizable=0;points=[];autosize=1;strokeColor=none;fontSize=12;" vertex="1" parent="1">
          <mxGeometry x="223.1" y="564" width="160" height="20" as="geometry" />
        </mxCell>
        <mxCell id="0kLFKch9zdshAubh-1zO-12" value="Show list cards design" style="text;html=1;align=center;verticalAlign=middle;resizable=0;points=[];autosize=1;strokeColor=none;fontSize=12;" vertex="1" parent="1">
          <mxGeometry x="65" y="584" width="130" height="20" as="geometry" />
        </mxCell>
        <mxCell id="0kLFKch9zdshAubh-1zO-13" value="Check open card request" style="text;html=1;align=center;verticalAlign=middle;resizable=0;points=[];autosize=1;strokeColor=none;fontSize=12;" vertex="1" parent="1">
          <mxGeometry x="224.5" y="124" width="150" height="20" as="geometry" />
        </mxCell>
        <mxCell id="0kLFKch9zdshAubh-1zO-14" value="Get previous open card&lt;br&gt;request" style="text;html=1;align=center;verticalAlign=middle;resizable=0;points=[];autosize=1;strokeColor=none;fontSize=12;" vertex="1" parent="1">
          <mxGeometry x="411" y="131" width="140" height="30" as="geometry" />
        </mxCell>
        <mxCell id="0kLFKch9zdshAubh-1zO-15" value="Reponse open card status" style="text;html=1;align=center;verticalAlign=middle;resizable=0;points=[];autosize=1;strokeColor=none;fontSize=12;" vertex="1" parent="1">
          <mxGeometry x="399.5" y="164" width="160" height="20" as="geometry" />
        </mxCell>
        <mxCell id="0kLFKch9zdshAubh-1zO-16" value="Show popup" style="text;html=1;align=center;verticalAlign=middle;resizable=0;points=[];autosize=1;strokeColor=none;fontSize=12;" vertex="1" parent="1">
          <mxGeometry x="86.6" y="244" width="80" height="20" as="geometry" />
        </mxCell>
        <mxCell id="0kLFKch9zdshAubh-1zO-17" value="Open card status fail" style="text;html=1;align=center;verticalAlign=middle;resizable=0;points=[];autosize=1;strokeColor=none;fontSize=12;" vertex="1" parent="1">
          <mxGeometry x="234.5" y="224" width="130" height="20" as="geometry" />
        </mxCell>
        <mxCell id="0kLFKch9zdshAubh-1zO-18" value="Request list cards design" style="text;html=1;align=center;verticalAlign=middle;resizable=0;points=[];autosize=1;strokeColor=none;fontSize=12;" vertex="1" parent="1">
          <mxGeometry x="228.1" y="504" width="150" height="20" as="geometry" />
        </mxCell>
        <mxCell id="0kLFKch9zdshAubh-1zO-19" value="Open card status OK" style="text;html=1;align=center;verticalAlign=middle;resizable=0;points=[];autosize=1;strokeColor=none;fontSize=12;" vertex="1" parent="1">
          <mxGeometry x="234.4" y="284" width="130" height="20" as="geometry" />
        </mxCell>
        <mxCell id="0kLFKch9zdshAubh-1zO-20" value="User valid" style="text;html=1;align=center;verticalAlign=middle;resizable=0;points=[];autosize=1;strokeColor=none;fontSize=12;" vertex="1" parent="1">
          <mxGeometry x="264.4" y="484" width="70" height="20" as="geometry" />
        </mxCell>
        <mxCell id="By4HMkN_MSCJ4IL5Xg5a-4" style="edgeStyle=none;rounded=0;orthogonalLoop=1;jettySize=auto;html=1;entryX=0.014;entryY=0.024;entryDx=0;entryDy=0;entryPerimeter=0;fontSize=12;" edge="1" parent="1">
          <mxGeometry relative="1" as="geometry">
            <mxPoint x="215" y="143.43999999999994" as="sourcePoint" />
            <mxPoint x="386.1399999999999" y="143.43999999999994" as="targetPoint" />
          </mxGeometry>
        </mxCell>
        <mxCell id="By4HMkN_MSCJ4IL5Xg5a-8" style="edgeStyle=none;rounded=0;orthogonalLoop=1;jettySize=auto;html=1;entryX=0.051;entryY=0.339;entryDx=0;entryDy=0;entryPerimeter=0;dashed=1;fontSize=12;" edge="1" parent="1" target="QIuEyYcCNT5PP5Maq9_X-1">
          <mxGeometry relative="1" as="geometry">
            <mxPoint x="205" y="263.84000000000015" as="sourcePoint" />
          </mxGeometry>
        </mxCell>
        <mxCell id="By4HMkN_MSCJ4IL5Xg5a-10" style="edgeStyle=none;rounded=0;orthogonalLoop=1;jettySize=auto;html=1;entryX=-0.2;entryY=0.245;entryDx=0;entryDy=0;entryPerimeter=0;fontSize=12;" edge="1" parent="1">
          <mxGeometry relative="1" as="geometry">
            <mxPoint x="215" y="322.45000000000005" as="sourcePoint" />
            <mxPoint x="383.9999999999998" y="322.45000000000005" as="targetPoint" />
          </mxGeometry>
        </mxCell>
        <mxCell id="By4HMkN_MSCJ4IL5Xg5a-13" style="edgeStyle=none;rounded=0;orthogonalLoop=1;jettySize=auto;html=1;entryX=-0.2;entryY=0.493;entryDx=0;entryDy=0;entryPerimeter=0;fontSize=12;" edge="1" parent="1">
          <mxGeometry relative="1" as="geometry">
            <mxPoint x="215" y="523.3299999999999" as="sourcePoint" />
            <mxPoint x="383.9999999999998" y="523.3299999999999" as="targetPoint" />
          </mxGeometry>
        </mxCell>
        <mxCell id="By4HMkN_MSCJ4IL5Xg5a-17" style="edgeStyle=none;rounded=0;orthogonalLoop=1;jettySize=auto;html=1;entryX=-0.343;entryY=0.688;entryDx=0;entryDy=0;entryPerimeter=0;fontSize=12;" edge="1" parent="1">
          <mxGeometry relative="1" as="geometry">
            <mxPoint x="215" y="681.2800000000002" as="sourcePoint" />
            <mxPoint x="382.5699999999997" y="681.2800000000002" as="targetPoint" />
          </mxGeometry>
        </mxCell>
        <mxCell id="By4HMkN_MSCJ4IL5Xg5a-26" style="edgeStyle=none;rounded=0;orthogonalLoop=1;jettySize=auto;html=1;entryX=0.028;entryY=0.25;entryDx=0;entryDy=0;entryPerimeter=0;dashed=1;fontSize=12;" edge="1" parent="1" target="QIuEyYcCNT5PP5Maq9_X-2">
          <mxGeometry relative="1" as="geometry">
            <mxPoint x="205" y="464" as="sourcePoint" />
          </mxGeometry>
        </mxCell>
        <mxCell id="By4HMkN_MSCJ4IL5Xg5a-30" style="edgeStyle=none;rounded=0;orthogonalLoop=1;jettySize=auto;html=1;entryX=0.028;entryY=0.95;entryDx=0;entryDy=0;entryPerimeter=0;dashed=1;fontSize=12;" edge="1" parent="1" target="QIuEyYcCNT5PP5Maq9_X-2">
          <mxGeometry relative="1" as="geometry">
            <mxPoint x="205" y="604" as="sourcePoint" />
          </mxGeometry>
        </mxCell>
        <mxCell id="By4HMkN_MSCJ4IL5Xg5a-34" style="edgeStyle=none;rounded=0;orthogonalLoop=1;jettySize=auto;html=1;dashed=1;fontSize=12;" edge="1" parent="1">
          <mxGeometry relative="1" as="geometry">
            <mxPoint x="205" y="802" as="sourcePoint" />
            <mxPoint x="49.78571428571422" y="802" as="targetPoint" />
          </mxGeometry>
        </mxCell>
        <mxCell id="Eb529mTVC_R6Tm08JPxe-2" style="edgeStyle=none;rounded=0;orthogonalLoop=1;jettySize=auto;html=1;entryX=0.086;entryY=0.885;entryDx=0;entryDy=0;entryPerimeter=0;fontSize=12;" edge="1" parent="1">
          <mxGeometry relative="1" as="geometry">
            <mxPoint x="215" y="840.8500000000001" as="sourcePoint" />
            <mxPoint x="386.8600000000001" y="840.8500000000001" as="targetPoint" />
          </mxGeometry>
        </mxCell>
        <mxCell id="By4HMkN_MSCJ4IL5Xg5a-5" style="edgeStyle=none;rounded=0;orthogonalLoop=1;jettySize=auto;html=1;entryX=0.086;entryY=0.036;entryDx=0;entryDy=0;entryPerimeter=0;fontSize=12;" edge="1" parent="1">
          <mxGeometry relative="1" as="geometry">
            <mxPoint x="396" y="161.72000000000003" as="sourcePoint" />
            <mxPoint x="566.8600000000001" y="161.72000000000003" as="targetPoint" />
          </mxGeometry>
        </mxCell>
        <mxCell id="By4HMkN_MSCJ4IL5Xg5a-7" style="edgeStyle=none;rounded=0;orthogonalLoop=1;jettySize=auto;html=1;entryX=0.971;entryY=0.165;entryDx=0;entryDy=0;entryPerimeter=0;dashed=1;fontSize=12;" edge="1" parent="1">
          <mxGeometry relative="1" as="geometry">
            <mxPoint x="386" y="242.60000000000014" as="sourcePoint" />
            <mxPoint x="214.71000000000004" y="242.60000000000014" as="targetPoint" />
          </mxGeometry>
        </mxCell>
        <mxCell id="By4HMkN_MSCJ4IL5Xg5a-9" style="edgeStyle=none;rounded=0;orthogonalLoop=1;jettySize=auto;html=1;entryX=0.971;entryY=0.238;entryDx=0;entryDy=0;entryPerimeter=0;dashed=1;fontSize=12;" edge="1" parent="1">
          <mxGeometry relative="1" as="geometry">
            <mxPoint x="386" y="303.9200000000001" as="sourcePoint" />
            <mxPoint x="214.71000000000004" y="303.9200000000001" as="targetPoint" />
          </mxGeometry>
        </mxCell>
        <mxCell id="By4HMkN_MSCJ4IL5Xg5a-11" style="edgeStyle=none;rounded=0;orthogonalLoop=1;jettySize=auto;html=1;entryX=-0.2;entryY=0.271;entryDx=0;entryDy=0;entryPerimeter=0;fontSize=12;" edge="1" parent="1">
          <mxGeometry relative="1" as="geometry">
            <mxPoint x="396" y="342.6700000000001" as="sourcePoint" />
            <mxPoint x="563.9999999999998" y="342.6700000000001" as="targetPoint" />
          </mxGeometry>
        </mxCell>
        <mxCell id="By4HMkN_MSCJ4IL5Xg5a-12" style="edgeStyle=none;rounded=0;orthogonalLoop=1;jettySize=auto;html=1;entryX=0.014;entryY=0.324;entryDx=0;entryDy=0;entryPerimeter=0;fontSize=12;" edge="1" parent="1">
          <mxGeometry relative="1" as="geometry">
            <mxPoint x="396" y="383.48" as="sourcePoint" />
            <mxPoint x="566.1399999999999" y="383.48" as="targetPoint" />
          </mxGeometry>
        </mxCell>
        <mxCell id="By4HMkN_MSCJ4IL5Xg5a-14" style="edgeStyle=none;rounded=0;orthogonalLoop=1;jettySize=auto;html=1;entryX=-0.171;entryY=0.488;entryDx=0;entryDy=0;entryPerimeter=0;fontSize=12;" edge="1" parent="1">
          <mxGeometry relative="1" as="geometry">
            <mxPoint x="396" y="544.28" as="sourcePoint" />
            <mxPoint x="743.29" y="544.28" as="targetPoint" />
          </mxGeometry>
        </mxCell>
        <mxCell id="By4HMkN_MSCJ4IL5Xg5a-18" style="edgeStyle=none;rounded=0;orthogonalLoop=1;jettySize=auto;html=1;entryX=0.086;entryY=0.739;entryDx=0;entryDy=0;entryPerimeter=0;fontSize=12;" edge="1" parent="1">
          <mxGeometry relative="1" as="geometry">
            <mxPoint x="396" y="703.03" as="sourcePoint" />
            <mxPoint x="566.8600000000001" y="703.03" as="targetPoint" />
          </mxGeometry>
        </mxCell>
        <mxCell id="By4HMkN_MSCJ4IL5Xg5a-19" style="edgeStyle=none;rounded=0;orthogonalLoop=1;jettySize=auto;html=1;entryX=0.014;entryY=0.791;entryDx=0;entryDy=0;entryPerimeter=0;fontSize=12;" edge="1" parent="1">
          <mxGeometry relative="1" as="geometry">
            <mxPoint x="396" y="743.0700000000004" as="sourcePoint" />
            <mxPoint x="566.1399999999999" y="743.0700000000004" as="targetPoint" />
          </mxGeometry>
        </mxCell>
        <mxCell id="By4HMkN_MSCJ4IL5Xg5a-25" style="edgeStyle=none;rounded=0;orthogonalLoop=1;jettySize=auto;html=1;entryX=0.9;entryY=0.403;entryDx=0;entryDy=0;entryPerimeter=0;dashed=1;fontSize=12;" edge="1" parent="1">
          <mxGeometry relative="1" as="geometry">
            <mxPoint x="386" y="442.5200000000002" as="sourcePoint" />
            <mxPoint x="214" y="442.5200000000002" as="targetPoint" />
          </mxGeometry>
        </mxCell>
        <mxCell id="By4HMkN_MSCJ4IL5Xg5a-27" style="edgeStyle=none;rounded=0;orthogonalLoop=1;jettySize=auto;html=1;entryX=0.971;entryY=0.475;entryDx=0;entryDy=0;entryPerimeter=0;dashed=1;fontSize=12;" edge="1" parent="1">
          <mxGeometry relative="1" as="geometry">
            <mxPoint x="386" y="503" as="sourcePoint" />
            <mxPoint x="214.71000000000004" y="503" as="targetPoint" />
          </mxGeometry>
        </mxCell>
        <mxCell id="By4HMkN_MSCJ4IL5Xg5a-29" style="edgeStyle=none;rounded=0;orthogonalLoop=1;jettySize=auto;html=1;entryX=0.9;entryY=0.572;entryDx=0;entryDy=0;entryPerimeter=0;dashed=1;fontSize=12;" edge="1" parent="1">
          <mxGeometry relative="1" as="geometry">
            <mxPoint x="386" y="584.48" as="sourcePoint" />
            <mxPoint x="214" y="584.48" as="targetPoint" />
          </mxGeometry>
        </mxCell>
        <mxCell id="By4HMkN_MSCJ4IL5Xg5a-33" style="edgeStyle=none;rounded=0;orthogonalLoop=1;jettySize=auto;html=1;entryX=1.043;entryY=0.81;entryDx=0;entryDy=0;entryPerimeter=0;dashed=1;fontSize=12;" edge="1" parent="1">
          <mxGeometry relative="1" as="geometry">
            <mxPoint x="386" y="784.4000000000001" as="sourcePoint" />
            <mxPoint x="215.43000000000006" y="784.4000000000001" as="targetPoint" />
          </mxGeometry>
        </mxCell>
        <mxCell id="By4HMkN_MSCJ4IL5Xg5a-6" style="edgeStyle=none;rounded=0;orthogonalLoop=1;jettySize=auto;html=1;entryX=1.157;entryY=0.074;entryDx=0;entryDy=0;entryPerimeter=0;fontSize=12;dashed=1;" edge="1" parent="1">
          <mxGeometry relative="1" as="geometry">
            <mxPoint x="566" y="183.94000000000005" as="sourcePoint" />
            <mxPoint x="397.5699999999997" y="183.94000000000005" as="targetPoint" />
          </mxGeometry>
        </mxCell>
        <mxCell id="By4HMkN_MSCJ4IL5Xg5a-23" style="edgeStyle=none;rounded=0;orthogonalLoop=1;jettySize=auto;html=1;entryX=1.086;entryY=0.293;entryDx=0;entryDy=0;entryPerimeter=0;fontSize=12;dashed=1;" edge="1" parent="1">
          <mxGeometry relative="1" as="geometry">
            <mxPoint x="566" y="361.3299999999999" as="sourcePoint" />
            <mxPoint x="396.8600000000001" y="361.3299999999999" as="targetPoint" />
          </mxGeometry>
        </mxCell>
        <mxCell id="By4HMkN_MSCJ4IL5Xg5a-24" style="edgeStyle=none;rounded=0;orthogonalLoop=1;jettySize=auto;html=1;entryX=0.943;entryY=0.345;entryDx=0;entryDy=0;entryPerimeter=0;dashed=1;fontSize=12;" edge="1" parent="1">
          <mxGeometry relative="1" as="geometry">
            <mxPoint x="566" y="403.45000000000005" as="sourcePoint" />
            <mxPoint x="395.43000000000006" y="403.45000000000005" as="targetPoint" />
          </mxGeometry>
        </mxCell>
        <mxCell id="By4HMkN_MSCJ4IL5Xg5a-31" style="edgeStyle=none;rounded=0;orthogonalLoop=1;jettySize=auto;html=1;entryX=0.943;entryY=0.74;entryDx=0;entryDy=0;entryPerimeter=0;dashed=1;fontSize=12;" edge="1" parent="1">
          <mxGeometry relative="1" as="geometry">
            <mxPoint x="566" y="723.4000000000001" as="sourcePoint" />
            <mxPoint x="395.43000000000006" y="723.4000000000001" as="targetPoint" />
          </mxGeometry>
        </mxCell>
        <mxCell id="By4HMkN_MSCJ4IL5Xg5a-32" style="edgeStyle=none;rounded=0;orthogonalLoop=1;jettySize=auto;html=1;dashed=1;fontSize=12;entryX=0.871;entryY=0.792;entryDx=0;entryDy=0;entryPerimeter=0;" edge="1" parent="1">
          <mxGeometry relative="1" as="geometry">
            <mxPoint x="566" y="765.5200000000002" as="sourcePoint" />
            <mxPoint x="394.7099999999998" y="765.5200000000002" as="targetPoint" />
          </mxGeometry>
        </mxCell>
        <mxCell id="By4HMkN_MSCJ4IL5Xg5a-28" style="edgeStyle=none;rounded=0;orthogonalLoop=1;jettySize=auto;html=1;entryX=0.943;entryY=0.544;entryDx=0;entryDy=0;entryPerimeter=0;dashed=1;fontSize=12;" edge="1" parent="1" source="8rW4RBNSXJkeWxOlHB5X-4">
          <mxGeometry relative="1" as="geometry">
            <mxPoint x="395.43000000000006" y="564.6400000000003" as="targetPoint" />
          </mxGeometry>
        </mxCell>
        <mxCell id="8rW4RBNSXJkeWxOlHB5X-4" value="" style="html=1;points=[];perimeter=orthogonalPerimeter;fontSize=12;verticalAlign=middle;" vertex="1" parent="1">
          <mxGeometry x="745" y="524" width="10" height="60" as="geometry" />
        </mxCell>
        <mxCell id="By4HMkN_MSCJ4IL5Xg5a-1" value="Get list cards design" style="text;html=1;align=center;verticalAlign=middle;resizable=0;points=[];autosize=1;strokeColor=none;fontSize=12;" vertex="1" parent="1">
          <mxGeometry x="600" y="524" width="120" height="20" as="geometry" />
        </mxCell>
        <mxCell id="By4HMkN_MSCJ4IL5Xg5a-2" value="List cards design" style="text;html=1;align=center;verticalAlign=middle;resizable=0;points=[];autosize=1;strokeColor=none;fontSize=12;" vertex="1" parent="1">
          <mxGeometry x="610" y="544" width="110" height="20" as="geometry" />
        </mxCell>
        <mxCell id="Eb529mTVC_R6Tm08JPxe-1" value="&amp;nbsp;Validate available balance" style="text;html=1;align=center;verticalAlign=middle;resizable=0;points=[];autosize=1;strokeColor=none;fontSize=12;" vertex="1" parent="1">
          <mxGeometry x="219.5" y="820" width="160" height="20" as="geometry" />
        </mxCell>
        <mxCell id="Eb529mTVC_R6Tm08JPxe-3" value="Alternative" style="shape=umlFrame;whiteSpace=wrap;html=1;fontSize=12;verticalAlign=middle;width=70;height=30;" vertex="1" parent="1">
          <mxGeometry x="10" y="860" width="780" height="200" as="geometry" />
        </mxCell>
        <mxCell id="CF58bLXJnO-oaUKHCMUk-1" value="Request user info" style="text;html=1;align=center;verticalAlign=middle;resizable=0;points=[];autosize=1;strokeColor=none;fontSize=12;" vertex="1" parent="1">
          <mxGeometry x="247.9" y="939" width="110" height="20" as="geometry" />
        </mxCell>
        <mxCell id="CF58bLXJnO-oaUKHCMUk-2" value="Get user info" style="text;html=1;align=center;verticalAlign=middle;resizable=0;points=[];autosize=1;strokeColor=none;fontSize=12;" vertex="1" parent="1">
          <mxGeometry x="443.4" y="959" width="80" height="20" as="geometry" />
        </mxCell>
        <mxCell id="CF58bLXJnO-oaUKHCMUk-3" value="User info" style="text;html=1;align=center;verticalAlign=middle;resizable=0;points=[];autosize=1;strokeColor=none;fontSize=12;" vertex="1" parent="1">
          <mxGeometry x="451" y="979" width="60" height="20" as="geometry" />
        </mxCell>
        <mxCell id="CF58bLXJnO-oaUKHCMUk-4" value="Response user info" style="text;html=1;align=center;verticalAlign=middle;resizable=0;points=[];autosize=1;strokeColor=none;fontSize=12;" vertex="1" parent="1">
          <mxGeometry x="242.9" y="999" width="120" height="20" as="geometry" />
        </mxCell>
        <mxCell id="CF58bLXJnO-oaUKHCMUk-5" value="Show open card info" style="text;html=1;align=center;verticalAlign=middle;resizable=0;points=[];autosize=1;strokeColor=none;fontSize=12;" vertex="1" parent="1">
          <mxGeometry x="66.6" y="1019" width="120" height="20" as="geometry" />
        </mxCell>
        <mxCell id="CF58bLXJnO-oaUKHCMUk-6" style="edgeStyle=none;rounded=0;orthogonalLoop=1;jettySize=auto;html=1;entryX=0.086;entryY=0.886;entryDx=0;entryDy=0;entryPerimeter=0;fontSize=12;" edge="1" parent="1">
          <mxGeometry relative="1" as="geometry">
            <mxPoint x="215" y="956.6600000000003" as="sourcePoint" />
            <mxPoint x="386.8600000000001" y="956.6600000000003" as="targetPoint" />
          </mxGeometry>
        </mxCell>
        <mxCell id="CF58bLXJnO-oaUKHCMUk-7" style="edgeStyle=none;rounded=0;orthogonalLoop=1;jettySize=auto;html=1;dashed=1;fontSize=12;" edge="1" parent="1">
          <mxGeometry relative="1" as="geometry">
            <mxPoint x="205" y="1039" as="sourcePoint" />
            <mxPoint x="49.78571428571422" y="1039" as="targetPoint" />
            <Array as="points">
              <mxPoint x="190" y="1039" />
            </Array>
          </mxGeometry>
        </mxCell>
        <mxCell id="CF58bLXJnO-oaUKHCMUk-8" style="edgeStyle=none;rounded=0;orthogonalLoop=1;jettySize=auto;html=1;entryX=-0.057;entryY=0.947;entryDx=0;entryDy=0;entryPerimeter=0;fontSize=12;" edge="1" parent="1">
          <mxGeometry relative="1" as="geometry">
            <mxPoint x="396" y="978.19" as="sourcePoint" />
            <mxPoint x="565.4300000000003" y="978.19" as="targetPoint" />
          </mxGeometry>
        </mxCell>
        <mxCell id="CF58bLXJnO-oaUKHCMUk-9" style="edgeStyle=none;rounded=0;orthogonalLoop=1;jettySize=auto;html=1;entryX=0.9;entryY=0.953;entryDx=0;entryDy=0;entryPerimeter=0;dashed=1;fontSize=12;" edge="1" parent="1">
          <mxGeometry relative="1" as="geometry">
            <mxPoint x="386" y="1019.5200000000002" as="sourcePoint" />
            <mxPoint x="214" y="1019.5200000000002" as="targetPoint" />
          </mxGeometry>
        </mxCell>
        <mxCell id="CF58bLXJnO-oaUKHCMUk-10" style="edgeStyle=none;rounded=0;orthogonalLoop=1;jettySize=auto;html=1;entryX=1.157;entryY=0.934;entryDx=0;entryDy=0;entryPerimeter=0;dashed=1;fontSize=12;" edge="1" parent="1">
          <mxGeometry relative="1" as="geometry">
            <mxPoint x="566" y="995.54" as="sourcePoint" />
            <mxPoint x="397.5699999999997" y="995.54" as="targetPoint" />
          </mxGeometry>
        </mxCell>
        <mxCell id="FMFbBagFPy5bo-u_KdaM-1" value="" style="line;strokeWidth=1;fillColor=none;align=left;verticalAlign=middle;spacingTop=-1;spacingLeft=3;spacingRight=3;rotatable=0;labelPosition=right;points=[];portConstraint=eastwest;fontSize=12;dashed=1;" vertex="1" parent="1">
          <mxGeometry x="10" y="910" width="780" height="8" as="geometry" />
        </mxCell>
        <mxCell id="FMFbBagFPy5bo-u_KdaM-2" value="Available balance invalid" style="text;html=1;align=center;verticalAlign=middle;resizable=0;points=[];autosize=1;strokeColor=none;fontSize=12;" vertex="1" parent="1">
          <mxGeometry x="228.89999999999998" y="860" width="150" height="20" as="geometry" />
        </mxCell>
        <mxCell id="FMFbBagFPy5bo-u_KdaM-3" style="edgeStyle=none;rounded=0;orthogonalLoop=1;jettySize=auto;html=1;entryX=0.9;entryY=0.403;entryDx=0;entryDy=0;entryPerimeter=0;dashed=1;fontSize=12;" edge="1" parent="1">
          <mxGeometry relative="1" as="geometry">
            <mxPoint x="387" y="880.5200000000002" as="sourcePoint" />
            <mxPoint x="215" y="880.5200000000002" as="targetPoint" />
          </mxGeometry>
        </mxCell>
        <mxCell id="FMFbBagFPy5bo-u_KdaM-4" value="Available balance valid" style="text;html=1;align=center;verticalAlign=middle;resizable=0;points=[];autosize=1;strokeColor=none;fontSize=12;" vertex="1" parent="1">
          <mxGeometry x="233.89999999999998" y="917.77" width="140" height="20" as="geometry" />
        </mxCell>
        <mxCell id="FMFbBagFPy5bo-u_KdaM-5" style="edgeStyle=none;rounded=0;orthogonalLoop=1;jettySize=auto;html=1;entryX=0.9;entryY=0.403;entryDx=0;entryDy=0;entryPerimeter=0;dashed=1;fontSize=12;" edge="1" parent="1">
          <mxGeometry relative="1" as="geometry">
            <mxPoint x="387" y="938.2900000000002" as="sourcePoint" />
            <mxPoint x="215" y="938.2900000000002" as="targetPoint" />
          </mxGeometry>
        </mxCell>
        <mxCell id="FMFbBagFPy5bo-u_KdaM-6" value="Show error message" style="text;html=1;align=center;verticalAlign=middle;resizable=0;points=[];autosize=1;strokeColor=none;fontSize=12;" vertex="1" parent="1">
          <mxGeometry x="66.11" y="880" width="130" height="20" as="geometry" />
        </mxCell>
        <mxCell id="FMFbBagFPy5bo-u_KdaM-7" style="edgeStyle=none;rounded=0;orthogonalLoop=1;jettySize=auto;html=1;entryX=0.051;entryY=0.339;entryDx=0;entryDy=0;entryPerimeter=0;dashed=1;fontSize=12;" edge="1" parent="1">
          <mxGeometry relative="1" as="geometry">
            <mxPoint x="205.51" y="899.8400000000001" as="sourcePoint" />
            <mxPoint x="50.28999999999997" y="899.8400000000001" as="targetPoint" />
          </mxGeometry>
        </mxCell>
        <mxCell id="FMFbBagFPy5bo-u_KdaM-8" value="" style="html=1;points=[];perimeter=orthogonalPerimeter;fontSize=12;verticalAlign=middle;" vertex="1" parent="1">
          <mxGeometry x="566" y="134" width="10" height="876" as="geometry" />
        </mxCell>
        <mxCell id="FMFbBagFPy5bo-u_KdaM-9" value="" style="html=1;points=[];perimeter=orthogonalPerimeter;fontSize=12;verticalAlign=middle;" vertex="1" parent="1">
          <mxGeometry x="386" y="124" width="10" height="916" as="geometry" />
        </mxCell>
        <mxCell id="FMFbBagFPy5bo-u_KdaM-10" value="" style="html=1;points=[];perimeter=orthogonalPerimeter;fontSize=12;verticalAlign=middle;" vertex="1" parent="1">
          <mxGeometry x="205" y="104" width="10" height="966" as="geometry" />
        </mxCell>
        <mxCell id="FMFbBagFPy5bo-u_KdaM-11" value="If invalid" style="text;align=center;fontStyle=1;verticalAlign=middle;spacingLeft=3;spacingRight=3;strokeColor=none;rotatable=0;points=[[0,0.5],[1,0.5]];portConstraint=eastwest;dashed=1;fontSize=12;" vertex="1" parent="1">
          <mxGeometry x="90" y="74" width="80" height="26" as="geometry" />
        </mxCell>
        <mxCell id="FMFbBagFPy5bo-u_KdaM-12" value="Else" style="text;align=center;fontStyle=1;verticalAlign=middle;spacingLeft=3;spacingRight=3;strokeColor=none;rotatable=0;points=[[0,0.5],[1,0.5]];portConstraint=eastwest;dashed=1;fontSize=12;" vertex="1" parent="1">
          <mxGeometry x="80" y="278" width="80" height="26" as="geometry" />
        </mxCell>
        <mxCell id="FMFbBagFPy5bo-u_KdaM-13" value="If invalid" style="text;align=center;fontStyle=1;verticalAlign=middle;spacingLeft=3;spacingRight=3;strokeColor=none;rotatable=0;points=[[0,0.5],[1,0.5]];portConstraint=eastwest;dashed=1;fontSize=12;" vertex="1" parent="1">
          <mxGeometry x="90" y="414" width="80" height="26" as="geometry" />
        </mxCell>
        <mxCell id="FMFbBagFPy5bo-u_KdaM-14" value="Else" style="text;align=center;fontStyle=1;verticalAlign=middle;spacingLeft=3;spacingRight=3;strokeColor=none;rotatable=0;points=[[0,0.5],[1,0.5]];portConstraint=eastwest;dashed=1;fontSize=12;" vertex="1" parent="1">
          <mxGeometry x="80" y="481" width="80" height="26" as="geometry" />
        </mxCell>
        <mxCell id="FMFbBagFPy5bo-u_KdaM-15" value="If invalid" style="text;align=center;fontStyle=1;verticalAlign=middle;spacingLeft=3;spacingRight=3;strokeColor=none;rotatable=0;points=[[0,0.5],[1,0.5]];portConstraint=eastwest;dashed=1;fontSize=12;" vertex="1" parent="1">
          <mxGeometry x="80" y="860" width="80" height="26" as="geometry" />
        </mxCell>
        <mxCell id="FMFbBagFPy5bo-u_KdaM-16" value="Else" style="text;align=center;fontStyle=1;verticalAlign=middle;spacingLeft=3;spacingRight=3;strokeColor=none;rotatable=0;points=[[0,0.5],[1,0.5]];portConstraint=eastwest;dashed=1;fontSize=12;" vertex="1" parent="1">
          <mxGeometry x="80" y="914.77" width="80" height="26" as="geometry" />
        </mxCell>
      </root>
    </mxGraphModel>
  </diagram>
  <diagram id="3RIZTc70Y2ppEcbukXRe" name="Open-card-confirm">
    <mxGraphModel dx="1598" dy="1129" grid="1" gridSize="10" guides="1" tooltips="1" connect="1" arrows="1" fold="1" page="1" pageScale="1" pageWidth="827" pageHeight="1169" math="0" shadow="0">
      <root>
        <mxCell id="iQdJoIf0Ie_Ac9OHcw_2-0" />
        <mxCell id="iQdJoIf0Ie_Ac9OHcw_2-1" parent="iQdJoIf0Ie_Ac9OHcw_2-0" />
        <mxCell id="LHQmCgQVhAJtWG_9YiAY-7" style="edgeStyle=none;rounded=0;orthogonalLoop=1;jettySize=auto;html=1;entryX=0.1;entryY=0.076;entryDx=0;entryDy=0;entryPerimeter=0;fontSize=12;" edge="1" parent="iQdJoIf0Ie_Ac9OHcw_2-1">
          <mxGeometry relative="1" as="geometry">
            <mxPoint x="49.5" y="138.83999999999992" as="sourcePoint" />
            <mxPoint x="206" y="138.83999999999992" as="targetPoint" />
          </mxGeometry>
        </mxCell>
        <mxCell id="LHQmCgQVhAJtWG_9YiAY-10" style="edgeStyle=none;rounded=0;orthogonalLoop=1;jettySize=auto;html=1;entryX=-0.2;entryY=0.209;entryDx=0;entryDy=0;entryPerimeter=0;fontSize=12;" edge="1" parent="iQdJoIf0Ie_Ac9OHcw_2-1" source="iQdJoIf0Ie_Ac9OHcw_2-2">
          <mxGeometry relative="1" as="geometry">
            <mxPoint x="203" y="181.05999999999995" as="targetPoint" />
          </mxGeometry>
        </mxCell>
        <mxCell id="iQdJoIf0Ie_Ac9OHcw_2-2" value="MBA Usert" style="shape=umlLifeline;participant=umlActor;perimeter=lifelinePerimeter;html=1;container=1;collapsible=0;recursiveResize=0;verticalAlign=top;spacingTop=36;outlineConnect=0;strokeColor=#000000;strokeWidth=1;fillColor=none;size=40;" vertex="1" parent="iQdJoIf0Ie_Ac9OHcw_2-1">
          <mxGeometry x="40" y="25" width="20" height="575" as="geometry" />
        </mxCell>
        <mxCell id="iQdJoIf0Ie_Ac9OHcw_2-3" value="&lt;span&gt;Mobile App&lt;/span&gt;" style="shape=umlLifeline;perimeter=lifelinePerimeter;whiteSpace=wrap;html=1;container=1;collapsible=0;recursiveResize=0;outlineConnect=0;rounded=0;shadow=0;strokeColor=#000000;strokeWidth=1;fillColor=none;verticalAlign=middle;" vertex="1" parent="iQdJoIf0Ie_Ac9OHcw_2-1">
          <mxGeometry x="160" y="40" width="100" height="560" as="geometry" />
        </mxCell>
        <mxCell id="iQdJoIf0Ie_Ac9OHcw_2-4" value="&lt;span&gt;Card service&lt;/span&gt;" style="shape=umlLifeline;perimeter=lifelinePerimeter;whiteSpace=wrap;html=1;container=1;collapsible=0;recursiveResize=0;outlineConnect=0;rounded=0;shadow=0;strokeColor=#000000;strokeWidth=1;fillColor=none;verticalAlign=middle;" vertex="1" parent="iQdJoIf0Ie_Ac9OHcw_2-1">
          <mxGeometry x="520" y="40" width="100" height="560" as="geometry" />
        </mxCell>
        <mxCell id="iQdJoIf0Ie_Ac9OHcw_2-5" value="&lt;span&gt;Auth Service&lt;/span&gt;" style="shape=umlLifeline;perimeter=lifelinePerimeter;whiteSpace=wrap;html=1;container=1;collapsible=0;recursiveResize=0;outlineConnect=0;rounded=0;shadow=0;strokeColor=#000000;strokeWidth=1;fillColor=none;verticalAlign=middle;" vertex="1" parent="iQdJoIf0Ie_Ac9OHcw_2-1">
          <mxGeometry x="340" y="40" width="100" height="560" as="geometry" />
        </mxCell>
        <mxCell id="iQdJoIf0Ie_Ac9OHcw_2-6" value="AAG" style="shape=umlLifeline;perimeter=lifelinePerimeter;whiteSpace=wrap;html=1;container=1;collapsible=0;recursiveResize=0;outlineConnect=0;" vertex="1" parent="iQdJoIf0Ie_Ac9OHcw_2-1">
          <mxGeometry x="700" y="40" width="100" height="560" as="geometry" />
        </mxCell>
        <mxCell id="H4BSfMVNmmJmEMBBkiTO-2" value="Confirm open card" style="text;html=1;align=center;verticalAlign=middle;resizable=0;points=[];autosize=1;strokeColor=none;fontSize=12;" vertex="1" parent="iQdJoIf0Ie_Ac9OHcw_2-1">
          <mxGeometry x="75" y="120" width="110" height="20" as="geometry" />
        </mxCell>
        <mxCell id="cLDxNNaNEVkFcbD9VyL4-1" value="Request authentication" style="text;html=1;align=center;verticalAlign=middle;resizable=0;points=[];autosize=1;strokeColor=none;fontSize=12;" vertex="1" parent="iQdJoIf0Ie_Ac9OHcw_2-1">
          <mxGeometry x="60" y="140" width="140" height="20" as="geometry" />
        </mxCell>
        <mxCell id="cLDxNNaNEVkFcbD9VyL4-2" value="Input authentication value" style="text;html=1;align=center;verticalAlign=middle;resizable=0;points=[];autosize=1;strokeColor=none;fontSize=12;" vertex="1" parent="iQdJoIf0Ie_Ac9OHcw_2-1">
          <mxGeometry x="50" y="160" width="150" height="20" as="geometry" />
        </mxCell>
        <mxCell id="HdfATLVwgLcBkH4Pi3fp-0" value="Verify authention input" style="text;html=1;align=center;verticalAlign=middle;resizable=0;points=[];autosize=1;strokeColor=none;fontSize=12;" vertex="1" parent="iQdJoIf0Ie_Ac9OHcw_2-1">
          <mxGeometry x="235" y="180" width="130" height="20" as="geometry" />
        </mxCell>
        <mxCell id="LHQmCgQVhAJtWG_9YiAY-8" style="edgeStyle=none;rounded=0;orthogonalLoop=1;jettySize=auto;html=1;fontSize=12;dashed=1;" edge="1" parent="iQdJoIf0Ie_Ac9OHcw_2-1" target="iQdJoIf0Ie_Ac9OHcw_2-2">
          <mxGeometry relative="1" as="geometry">
            <mxPoint x="205" y="160" as="sourcePoint" />
            <Array as="points">
              <mxPoint x="170" y="160" />
            </Array>
          </mxGeometry>
        </mxCell>
        <mxCell id="LHQmCgQVhAJtWG_9YiAY-14" value="" style="html=1;points=[];perimeter=orthogonalPerimeter;fontSize=12;verticalAlign=middle;" vertex="1" parent="iQdJoIf0Ie_Ac9OHcw_2-1">
          <mxGeometry x="385" y="170" width="10" height="130" as="geometry" />
        </mxCell>
        <mxCell id="o0JYbvN4qDgrRcWx_r0p-0" value="Alternative" style="shape=umlFrame;whiteSpace=wrap;html=1;fontSize=12;verticalAlign=middle;width=70;height=30;" vertex="1" parent="iQdJoIf0Ie_Ac9OHcw_2-1">
          <mxGeometry x="10" y="210" width="780" height="330" as="geometry" />
        </mxCell>
        <mxCell id="o0JYbvN4qDgrRcWx_r0p-1" value="Authention invalid" style="text;html=1;align=center;verticalAlign=middle;resizable=0;points=[];autosize=1;strokeColor=none;fontSize=12;" vertex="1" parent="iQdJoIf0Ie_Ac9OHcw_2-1">
          <mxGeometry x="245" y="220" width="110" height="20" as="geometry" />
        </mxCell>
        <mxCell id="o0JYbvN4qDgrRcWx_r0p-2" value="Show error" style="text;html=1;align=center;verticalAlign=middle;resizable=0;points=[];autosize=1;strokeColor=none;fontSize=12;" vertex="1" parent="iQdJoIf0Ie_Ac9OHcw_2-1">
          <mxGeometry x="95" y="240" width="70" height="20" as="geometry" />
        </mxCell>
        <mxCell id="o0JYbvN4qDgrRcWx_r0p-3" value="Authention OK" style="text;html=1;align=center;verticalAlign=middle;resizable=0;points=[];autosize=1;strokeColor=none;fontSize=12;" vertex="1" parent="iQdJoIf0Ie_Ac9OHcw_2-1">
          <mxGeometry x="255" y="280" width="90" height="20" as="geometry" />
        </mxCell>
        <mxCell id="o0JYbvN4qDgrRcWx_r0p-4" value="" style="line;strokeWidth=1;fillColor=none;align=left;verticalAlign=middle;spacingTop=-1;spacingLeft=3;spacingRight=3;rotatable=0;labelPosition=right;points=[];portConstraint=eastwest;fontSize=12;dashed=1;" vertex="1" parent="iQdJoIf0Ie_Ac9OHcw_2-1">
          <mxGeometry x="10" y="272" width="780" height="8" as="geometry" />
        </mxCell>
        <mxCell id="o0JYbvN4qDgrRcWx_r0p-5" style="edgeStyle=none;rounded=0;orthogonalLoop=1;jettySize=auto;html=1;entryX=1.2;entryY=0.385;entryDx=0;entryDy=0;entryPerimeter=0;fontSize=12;dashed=1;" edge="1" parent="iQdJoIf0Ie_Ac9OHcw_2-1">
          <mxGeometry relative="1" as="geometry">
            <mxPoint x="217" y="239.9000000000001" as="targetPoint" />
            <mxPoint x="385" y="239.9000000000001" as="sourcePoint" />
          </mxGeometry>
        </mxCell>
        <mxCell id="o0JYbvN4qDgrRcWx_r0p-6" style="edgeStyle=none;rounded=0;orthogonalLoop=1;jettySize=auto;html=1;entryX=1;entryY=0.553;entryDx=0;entryDy=0;entryPerimeter=0;dashed=1;fontSize=12;" edge="1" parent="iQdJoIf0Ie_Ac9OHcw_2-1">
          <mxGeometry relative="1" as="geometry">
            <mxPoint x="215" y="299.02" as="targetPoint" />
            <mxPoint x="385" y="299.02" as="sourcePoint" />
          </mxGeometry>
        </mxCell>
        <mxCell id="o0JYbvN4qDgrRcWx_r0p-7" style="edgeStyle=none;rounded=0;orthogonalLoop=1;jettySize=auto;html=1;fontSize=12;dashed=1;" edge="1" parent="iQdJoIf0Ie_Ac9OHcw_2-1">
          <mxGeometry relative="1" as="geometry">
            <mxPoint x="208" y="260" as="sourcePoint" />
            <mxPoint x="50" y="260" as="targetPoint" />
          </mxGeometry>
        </mxCell>
        <mxCell id="o0JYbvN4qDgrRcWx_r0p-8" value="If invalid" style="text;align=center;fontStyle=1;verticalAlign=middle;spacingLeft=3;spacingRight=3;strokeColor=none;rotatable=0;points=[[0,0.5],[1,0.5]];portConstraint=eastwest;fontSize=12;" vertex="1" parent="iQdJoIf0Ie_Ac9OHcw_2-1">
          <mxGeometry x="90" y="210" width="80" height="26" as="geometry" />
        </mxCell>
        <mxCell id="o0JYbvN4qDgrRcWx_r0p-9" value="Else" style="text;align=center;fontStyle=1;verticalAlign=middle;spacingLeft=3;spacingRight=3;strokeColor=none;rotatable=0;points=[[0,0.5],[1,0.5]];portConstraint=eastwest;fontSize=12;" vertex="1" parent="iQdJoIf0Ie_Ac9OHcw_2-1">
          <mxGeometry x="85" y="277" width="80" height="26" as="geometry" />
        </mxCell>
        <mxCell id="o0JYbvN4qDgrRcWx_r0p-10" value="Alternative" style="shape=umlFrame;whiteSpace=wrap;html=1;fontSize=12;verticalAlign=middle;width=70;height=30;" vertex="1" parent="iQdJoIf0Ie_Ac9OHcw_2-1">
          <mxGeometry x="30" y="350" width="740" height="170" as="geometry" />
        </mxCell>
        <mxCell id="o0JYbvN4qDgrRcWx_r0p-11" value="Send request open card" style="text;html=1;align=center;verticalAlign=middle;resizable=0;points=[];autosize=1;strokeColor=none;fontSize=12;" vertex="1" parent="iQdJoIf0Ie_Ac9OHcw_2-1">
          <mxGeometry x="227.75" y="300" width="140" height="20" as="geometry" />
        </mxCell>
        <mxCell id="o0JYbvN4qDgrRcWx_r0p-12" value="Request open card" style="text;html=1;align=center;verticalAlign=middle;resizable=0;points=[];autosize=1;strokeColor=none;fontSize=12;" vertex="1" parent="iQdJoIf0Ie_Ac9OHcw_2-1">
          <mxGeometry x="597.75" y="320" width="120" height="20" as="geometry" />
        </mxCell>
        <mxCell id="o0JYbvN4qDgrRcWx_r0p-13" value="Response fails" style="text;html=1;align=center;verticalAlign=middle;resizable=0;points=[];autosize=1;strokeColor=none;fontSize=12;" vertex="1" parent="iQdJoIf0Ie_Ac9OHcw_2-1">
          <mxGeometry x="612.75" y="348" width="90" height="20" as="geometry" />
        </mxCell>
        <mxCell id="o0JYbvN4qDgrRcWx_r0p-14" value="Response open card fails" style="text;html=1;align=center;verticalAlign=middle;resizable=0;points=[];autosize=1;strokeColor=none;fontSize=12;" vertex="1" parent="iQdJoIf0Ie_Ac9OHcw_2-1">
          <mxGeometry x="227.75" y="369" width="150" height="20" as="geometry" />
        </mxCell>
        <mxCell id="o0JYbvN4qDgrRcWx_r0p-15" value="Show popup fails" style="text;html=1;align=center;verticalAlign=middle;resizable=0;points=[];autosize=1;strokeColor=none;fontSize=12;" vertex="1" parent="iQdJoIf0Ie_Ac9OHcw_2-1">
          <mxGeometry x="72.75" y="389" width="110" height="20" as="geometry" />
        </mxCell>
        <mxCell id="o0JYbvN4qDgrRcWx_r0p-16" style="edgeStyle=none;rounded=0;orthogonalLoop=1;jettySize=auto;html=1;entryX=1.3;entryY=0.555;entryDx=0;entryDy=0;entryPerimeter=0;fontSize=12;dashed=1;" edge="1" parent="iQdJoIf0Ie_Ac9OHcw_2-1">
          <mxGeometry relative="1" as="geometry">
            <mxPoint x="742.75" y="369.04999999999995" as="sourcePoint" />
            <mxPoint x="575.75" y="369.04999999999995" as="targetPoint" />
          </mxGeometry>
        </mxCell>
        <mxCell id="o0JYbvN4qDgrRcWx_r0p-17" style="edgeStyle=none;rounded=0;orthogonalLoop=1;jettySize=auto;html=1;entryX=1.1;entryY=0.832;entryDx=0;entryDy=0;entryPerimeter=0;fontSize=12;dashed=1;" edge="1" parent="iQdJoIf0Ie_Ac9OHcw_2-1">
          <mxGeometry relative="1" as="geometry">
            <mxPoint x="213.75" y="389.8800000000001" as="targetPoint" />
            <mxPoint x="562.75" y="389.8800000000001" as="sourcePoint" />
          </mxGeometry>
        </mxCell>
        <mxCell id="o0JYbvN4qDgrRcWx_r0p-18" style="edgeStyle=none;rounded=0;orthogonalLoop=1;jettySize=auto;html=1;entryX=-0.125;entryY=0.243;entryDx=0;entryDy=0;entryPerimeter=0;dashed=1;fontSize=12;" edge="1" parent="iQdJoIf0Ie_Ac9OHcw_2-1">
          <mxGeometry relative="1" as="geometry">
            <mxPoint x="572.75" y="338.45000000000005" as="sourcePoint" />
            <mxPoint x="741.5" y="338.45000000000005" as="targetPoint" />
          </mxGeometry>
        </mxCell>
        <mxCell id="o0JYbvN4qDgrRcWx_r0p-19" style="edgeStyle=none;rounded=0;orthogonalLoop=1;jettySize=auto;html=1;entryX=0.025;entryY=0.118;entryDx=0;entryDy=0;entryPerimeter=0;fontSize=12;" edge="1" parent="iQdJoIf0Ie_Ac9OHcw_2-1">
          <mxGeometry relative="1" as="geometry">
            <mxPoint x="212.75" y="320.02" as="sourcePoint" />
            <mxPoint x="563" y="320.05999999999995" as="targetPoint" />
          </mxGeometry>
        </mxCell>
        <mxCell id="o0JYbvN4qDgrRcWx_r0p-20" style="edgeStyle=none;rounded=0;orthogonalLoop=1;jettySize=auto;html=1;fontSize=12;dashed=1;" edge="1" parent="iQdJoIf0Ie_Ac9OHcw_2-1">
          <mxGeometry relative="1" as="geometry">
            <mxPoint x="201.3800000000001" y="410" as="sourcePoint" />
            <mxPoint x="48.63000000000011" y="410" as="targetPoint" />
          </mxGeometry>
        </mxCell>
        <mxCell id="o0JYbvN4qDgrRcWx_r0p-21" value="" style="line;strokeWidth=1;fillColor=none;align=left;verticalAlign=middle;spacingTop=-1;spacingLeft=3;spacingRight=3;rotatable=0;labelPosition=right;points=[];portConstraint=eastwest;fontSize=12;dashed=1;" vertex="1" parent="iQdJoIf0Ie_Ac9OHcw_2-1">
          <mxGeometry x="30" y="418" width="740" height="8" as="geometry" />
        </mxCell>
        <mxCell id="o0JYbvN4qDgrRcWx_r0p-22" value="Response success" style="text;html=1;align=center;verticalAlign=middle;resizable=0;points=[];autosize=1;strokeColor=none;fontSize=12;" vertex="1" parent="iQdJoIf0Ie_Ac9OHcw_2-1">
          <mxGeometry x="597.75" y="426" width="120" height="20" as="geometry" />
        </mxCell>
        <mxCell id="o0JYbvN4qDgrRcWx_r0p-23" value="Response open card success" style="text;html=1;align=center;verticalAlign=middle;resizable=0;points=[];autosize=1;strokeColor=none;fontSize=12;" vertex="1" parent="iQdJoIf0Ie_Ac9OHcw_2-1">
          <mxGeometry x="215" y="438" width="170" height="20" as="geometry" />
        </mxCell>
        <mxCell id="o0JYbvN4qDgrRcWx_r0p-24" value="Show popup success" style="text;html=1;align=center;verticalAlign=middle;resizable=0;points=[];autosize=1;strokeColor=none;fontSize=12;" vertex="1" parent="iQdJoIf0Ie_Ac9OHcw_2-1">
          <mxGeometry x="62.75" y="466" width="130" height="20" as="geometry" />
        </mxCell>
        <mxCell id="o0JYbvN4qDgrRcWx_r0p-25" style="edgeStyle=none;rounded=0;orthogonalLoop=1;jettySize=auto;html=1;entryX=1.3;entryY=0.555;entryDx=0;entryDy=0;entryPerimeter=0;fontSize=12;dashed=1;" edge="1" parent="iQdJoIf0Ie_Ac9OHcw_2-1">
          <mxGeometry relative="1" as="geometry">
            <mxPoint x="742.75" y="446" as="sourcePoint" />
            <mxPoint x="575.75" y="446" as="targetPoint" />
          </mxGeometry>
        </mxCell>
        <mxCell id="o0JYbvN4qDgrRcWx_r0p-26" style="edgeStyle=none;rounded=0;orthogonalLoop=1;jettySize=auto;html=1;entryX=1.1;entryY=0.832;entryDx=0;entryDy=0;entryPerimeter=0;fontSize=12;dashed=1;" edge="1" parent="iQdJoIf0Ie_Ac9OHcw_2-1">
          <mxGeometry relative="1" as="geometry">
            <mxPoint x="212.75" y="463" as="targetPoint" />
            <mxPoint x="561.75" y="463" as="sourcePoint" />
          </mxGeometry>
        </mxCell>
        <mxCell id="o0JYbvN4qDgrRcWx_r0p-27" style="edgeStyle=none;rounded=0;orthogonalLoop=1;jettySize=auto;html=1;fontSize=12;dashed=1;" edge="1" parent="iQdJoIf0Ie_Ac9OHcw_2-1">
          <mxGeometry relative="1" as="geometry">
            <mxPoint x="202.75" y="487" as="sourcePoint" />
            <mxPoint x="50" y="487" as="targetPoint" />
          </mxGeometry>
        </mxCell>
        <mxCell id="o0JYbvN4qDgrRcWx_r0p-28" value="If fails" style="text;align=center;fontStyle=1;verticalAlign=middle;spacingLeft=3;spacingRight=3;strokeColor=none;rotatable=0;points=[[0,0.5],[1,0.5]];portConstraint=eastwest;fontSize=12;" vertex="1" parent="iQdJoIf0Ie_Ac9OHcw_2-1">
          <mxGeometry x="90" y="350" width="80" height="26" as="geometry" />
        </mxCell>
        <mxCell id="o0JYbvN4qDgrRcWx_r0p-29" value="Else" style="text;align=center;fontStyle=1;verticalAlign=middle;spacingLeft=3;spacingRight=3;strokeColor=none;rotatable=0;points=[[0,0.5],[1,0.5]];portConstraint=eastwest;fontSize=12;" vertex="1" parent="iQdJoIf0Ie_Ac9OHcw_2-1">
          <mxGeometry x="85" y="420" width="80" height="26" as="geometry" />
        </mxCell>
        <mxCell id="o0JYbvN4qDgrRcWx_r0p-30" value="" style="html=1;points=[];perimeter=orthogonalPerimeter;fontSize=12;verticalAlign=middle;" vertex="1" parent="iQdJoIf0Ie_Ac9OHcw_2-1">
          <mxGeometry x="742.75" y="300" width="10" height="150" as="geometry" />
        </mxCell>
        <mxCell id="o0JYbvN4qDgrRcWx_r0p-31" value="" style="html=1;points=[];perimeter=orthogonalPerimeter;fontSize=12;verticalAlign=middle;" vertex="1" parent="iQdJoIf0Ie_Ac9OHcw_2-1">
          <mxGeometry x="562.75" y="300" width="10" height="170" as="geometry" />
        </mxCell>
        <mxCell id="o0JYbvN4qDgrRcWx_r0p-32" value="" style="html=1;points=[];perimeter=orthogonalPerimeter;fontSize=12;verticalAlign=middle;" vertex="1" parent="iQdJoIf0Ie_Ac9OHcw_2-1">
          <mxGeometry x="205" y="110" width="10" height="460" as="geometry" />
        </mxCell>
      </root>
    </mxGraphModel>
  </diagram>
  <diagram id="TOJBX_fIyAs2WefDVF5e" name="Active-virtual-card">
    <mxGraphModel dx="1598" dy="1129" grid="1" gridSize="10" guides="1" tooltips="1" connect="1" arrows="1" fold="1" page="1" pageScale="1" pageWidth="850" pageHeight="1100" math="0" shadow="0">
      <root>
        <mxCell id="0kp4pcsp-SWHpbBVWAv3-0" />
        <mxCell id="0kp4pcsp-SWHpbBVWAv3-1" parent="0kp4pcsp-SWHpbBVWAv3-0" />
        <mxCell id="P1OSNX9fcpyDEHNImDUN-0" style="edgeStyle=none;rounded=0;orthogonalLoop=1;jettySize=auto;html=1;entryX=0.1;entryY=0.076;entryDx=0;entryDy=0;entryPerimeter=0;fontSize=12;" edge="1" parent="0kp4pcsp-SWHpbBVWAv3-1">
          <mxGeometry relative="1" as="geometry">
            <mxPoint x="206" y="139.83999999999992" as="targetPoint" />
            <mxPoint x="49.5" y="139.83999999999992" as="sourcePoint" />
          </mxGeometry>
        </mxCell>
        <mxCell id="P1OSNX9fcpyDEHNImDUN-1" style="edgeStyle=none;rounded=0;orthogonalLoop=1;jettySize=auto;html=1;entryX=-0.2;entryY=0.209;entryDx=0;entryDy=0;entryPerimeter=0;fontSize=12;" edge="1" parent="0kp4pcsp-SWHpbBVWAv3-1" source="P1OSNX9fcpyDEHNImDUN-2">
          <mxGeometry relative="1" as="geometry">
            <mxPoint x="203" y="181.05999999999995" as="targetPoint" />
          </mxGeometry>
        </mxCell>
        <mxCell id="P1OSNX9fcpyDEHNImDUN-2" value="MBA Usert" style="shape=umlLifeline;participant=umlActor;perimeter=lifelinePerimeter;html=1;container=1;collapsible=0;recursiveResize=0;verticalAlign=top;spacingTop=36;outlineConnect=0;strokeColor=#000000;strokeWidth=1;fillColor=none;size=40;" vertex="1" parent="0kp4pcsp-SWHpbBVWAv3-1">
          <mxGeometry x="40" y="25" width="20" height="575" as="geometry" />
        </mxCell>
        <mxCell id="P1OSNX9fcpyDEHNImDUN-3" value="&lt;span&gt;Mobile App&lt;/span&gt;" style="shape=umlLifeline;perimeter=lifelinePerimeter;whiteSpace=wrap;html=1;container=1;collapsible=0;recursiveResize=0;outlineConnect=0;rounded=0;shadow=0;strokeColor=#000000;strokeWidth=1;fillColor=none;verticalAlign=middle;" vertex="1" parent="0kp4pcsp-SWHpbBVWAv3-1">
          <mxGeometry x="160" y="40" width="100" height="560" as="geometry" />
        </mxCell>
        <mxCell id="P1OSNX9fcpyDEHNImDUN-4" value="&lt;span&gt;Card service&lt;/span&gt;" style="shape=umlLifeline;perimeter=lifelinePerimeter;whiteSpace=wrap;html=1;container=1;collapsible=0;recursiveResize=0;outlineConnect=0;rounded=0;shadow=0;strokeColor=#000000;strokeWidth=1;fillColor=none;verticalAlign=middle;" vertex="1" parent="0kp4pcsp-SWHpbBVWAv3-1">
          <mxGeometry x="520" y="40" width="100" height="560" as="geometry" />
        </mxCell>
        <mxCell id="P1OSNX9fcpyDEHNImDUN-5" value="&lt;span&gt;Auth Service&lt;/span&gt;" style="shape=umlLifeline;perimeter=lifelinePerimeter;whiteSpace=wrap;html=1;container=1;collapsible=0;recursiveResize=0;outlineConnect=0;rounded=0;shadow=0;strokeColor=#000000;strokeWidth=1;fillColor=none;verticalAlign=middle;" vertex="1" parent="0kp4pcsp-SWHpbBVWAv3-1">
          <mxGeometry x="340" y="40" width="100" height="560" as="geometry" />
        </mxCell>
        <mxCell id="P1OSNX9fcpyDEHNImDUN-6" value="AAG" style="shape=umlLifeline;perimeter=lifelinePerimeter;whiteSpace=wrap;html=1;container=1;collapsible=0;recursiveResize=0;outlineConnect=0;" vertex="1" parent="0kp4pcsp-SWHpbBVWAv3-1">
          <mxGeometry x="700" y="40" width="100" height="560" as="geometry" />
        </mxCell>
        <mxCell id="P1OSNX9fcpyDEHNImDUN-7" value="&amp;nbsp;Active virtual card" style="text;html=1;align=center;verticalAlign=middle;resizable=0;points=[];autosize=1;strokeColor=none;fontSize=12;" vertex="1" parent="0kp4pcsp-SWHpbBVWAv3-1">
          <mxGeometry x="70" y="120" width="110" height="20" as="geometry" />
        </mxCell>
        <mxCell id="P1OSNX9fcpyDEHNImDUN-8" value="Request authentication" style="text;html=1;align=center;verticalAlign=middle;resizable=0;points=[];autosize=1;strokeColor=none;fontSize=12;" vertex="1" parent="0kp4pcsp-SWHpbBVWAv3-1">
          <mxGeometry x="60" y="140" width="140" height="20" as="geometry" />
        </mxCell>
        <mxCell id="P1OSNX9fcpyDEHNImDUN-9" value="Input authentication value" style="text;html=1;align=center;verticalAlign=middle;resizable=0;points=[];autosize=1;strokeColor=none;fontSize=12;" vertex="1" parent="0kp4pcsp-SWHpbBVWAv3-1">
          <mxGeometry x="50" y="160" width="150" height="20" as="geometry" />
        </mxCell>
        <mxCell id="P1OSNX9fcpyDEHNImDUN-10" value="Verify authention input" style="text;html=1;align=center;verticalAlign=middle;resizable=0;points=[];autosize=1;strokeColor=none;fontSize=12;" vertex="1" parent="0kp4pcsp-SWHpbBVWAv3-1">
          <mxGeometry x="235" y="180" width="130" height="20" as="geometry" />
        </mxCell>
        <mxCell id="P1OSNX9fcpyDEHNImDUN-11" value="Alternative" style="shape=umlFrame;whiteSpace=wrap;html=1;fontSize=12;verticalAlign=middle;width=70;height=30;" vertex="1" parent="0kp4pcsp-SWHpbBVWAv3-1">
          <mxGeometry x="10" y="210" width="780" height="330" as="geometry" />
        </mxCell>
        <mxCell id="P1OSNX9fcpyDEHNImDUN-12" value="Authention invalid" style="text;html=1;align=center;verticalAlign=middle;resizable=0;points=[];autosize=1;strokeColor=none;fontSize=12;" vertex="1" parent="0kp4pcsp-SWHpbBVWAv3-1">
          <mxGeometry x="245" y="220" width="110" height="20" as="geometry" />
        </mxCell>
        <mxCell id="P1OSNX9fcpyDEHNImDUN-13" value="Show error" style="text;html=1;align=center;verticalAlign=middle;resizable=0;points=[];autosize=1;strokeColor=none;fontSize=12;" vertex="1" parent="0kp4pcsp-SWHpbBVWAv3-1">
          <mxGeometry x="95" y="240" width="70" height="20" as="geometry" />
        </mxCell>
        <mxCell id="P1OSNX9fcpyDEHNImDUN-14" value="Authention OK" style="text;html=1;align=center;verticalAlign=middle;resizable=0;points=[];autosize=1;strokeColor=none;fontSize=12;" vertex="1" parent="0kp4pcsp-SWHpbBVWAv3-1">
          <mxGeometry x="255" y="280" width="90" height="20" as="geometry" />
        </mxCell>
        <mxCell id="P1OSNX9fcpyDEHNImDUN-20" value="" style="line;strokeWidth=1;fillColor=none;align=left;verticalAlign=middle;spacingTop=-1;spacingLeft=3;spacingRight=3;rotatable=0;labelPosition=right;points=[];portConstraint=eastwest;fontSize=12;dashed=1;" vertex="1" parent="0kp4pcsp-SWHpbBVWAv3-1">
          <mxGeometry x="10" y="272" width="780" height="8" as="geometry" />
        </mxCell>
        <mxCell id="P1OSNX9fcpyDEHNImDUN-21" style="edgeStyle=none;rounded=0;orthogonalLoop=1;jettySize=auto;html=1;fontSize=12;dashed=1;" edge="1" parent="0kp4pcsp-SWHpbBVWAv3-1" target="P1OSNX9fcpyDEHNImDUN-2">
          <mxGeometry relative="1" as="geometry">
            <mxPoint x="205" y="160" as="sourcePoint" />
            <Array as="points">
              <mxPoint x="170" y="160" />
            </Array>
          </mxGeometry>
        </mxCell>
        <mxCell id="P1OSNX9fcpyDEHNImDUN-22" style="edgeStyle=none;rounded=0;orthogonalLoop=1;jettySize=auto;html=1;entryX=0;entryY=0.231;entryDx=0;entryDy=0;entryPerimeter=0;fontSize=12;" edge="1" parent="0kp4pcsp-SWHpbBVWAv3-1" target="P1OSNX9fcpyDEHNImDUN-30">
          <mxGeometry relative="1" as="geometry">
            <mxPoint x="215" y="200.02999999999997" as="sourcePoint" />
          </mxGeometry>
        </mxCell>
        <mxCell id="P1OSNX9fcpyDEHNImDUN-28" style="edgeStyle=none;rounded=0;orthogonalLoop=1;jettySize=auto;html=1;entryX=1.2;entryY=0.385;entryDx=0;entryDy=0;entryPerimeter=0;fontSize=12;dashed=1;" edge="1" parent="0kp4pcsp-SWHpbBVWAv3-1">
          <mxGeometry relative="1" as="geometry">
            <mxPoint x="217" y="239.9000000000001" as="targetPoint" />
            <mxPoint x="385" y="239.9000000000001" as="sourcePoint" />
          </mxGeometry>
        </mxCell>
        <mxCell id="P1OSNX9fcpyDEHNImDUN-29" style="edgeStyle=none;rounded=0;orthogonalLoop=1;jettySize=auto;html=1;entryX=1;entryY=0.553;entryDx=0;entryDy=0;entryPerimeter=0;dashed=1;fontSize=12;" edge="1" parent="0kp4pcsp-SWHpbBVWAv3-1">
          <mxGeometry relative="1" as="geometry">
            <mxPoint x="215" y="299.02" as="targetPoint" />
            <mxPoint x="385" y="299.02" as="sourcePoint" />
          </mxGeometry>
        </mxCell>
        <mxCell id="P1OSNX9fcpyDEHNImDUN-30" value="" style="html=1;points=[];perimeter=orthogonalPerimeter;fontSize=12;verticalAlign=middle;" vertex="1" parent="0kp4pcsp-SWHpbBVWAv3-1">
          <mxGeometry x="385" y="170" width="10" height="130" as="geometry" />
        </mxCell>
        <mxCell id="P1OSNX9fcpyDEHNImDUN-31" style="edgeStyle=none;rounded=0;orthogonalLoop=1;jettySize=auto;html=1;fontSize=12;dashed=1;" edge="1" parent="0kp4pcsp-SWHpbBVWAv3-1">
          <mxGeometry relative="1" as="geometry">
            <mxPoint x="208" y="260" as="sourcePoint" />
            <mxPoint x="50" y="260" as="targetPoint" />
          </mxGeometry>
        </mxCell>
        <mxCell id="P1OSNX9fcpyDEHNImDUN-35" value="If invalid" style="text;align=center;fontStyle=1;verticalAlign=middle;spacingLeft=3;spacingRight=3;strokeColor=none;rotatable=0;points=[[0,0.5],[1,0.5]];portConstraint=eastwest;fontSize=12;" vertex="1" parent="0kp4pcsp-SWHpbBVWAv3-1">
          <mxGeometry x="90" y="210" width="80" height="26" as="geometry" />
        </mxCell>
        <mxCell id="P1OSNX9fcpyDEHNImDUN-36" value="Else" style="text;align=center;fontStyle=1;verticalAlign=middle;spacingLeft=3;spacingRight=3;strokeColor=none;rotatable=0;points=[[0,0.5],[1,0.5]];portConstraint=eastwest;fontSize=12;" vertex="1" parent="0kp4pcsp-SWHpbBVWAv3-1">
          <mxGeometry x="85" y="277" width="80" height="26" as="geometry" />
        </mxCell>
        <mxCell id="uEf1Su2F1ZMPjowkm42i-0" value="Alternative" style="shape=umlFrame;whiteSpace=wrap;html=1;fontSize=12;verticalAlign=middle;width=70;height=30;" vertex="1" parent="0kp4pcsp-SWHpbBVWAv3-1">
          <mxGeometry x="30" y="350" width="740" height="170" as="geometry" />
        </mxCell>
        <mxCell id="IxDmiZgA0Ht4WU8xcQjt-0" value="Send active virtual card" style="text;html=1;align=center;verticalAlign=middle;resizable=0;points=[];autosize=1;strokeColor=none;fontSize=12;" vertex="1" parent="0kp4pcsp-SWHpbBVWAv3-1">
          <mxGeometry x="227.75" y="300" width="140" height="20" as="geometry" />
        </mxCell>
        <mxCell id="IxDmiZgA0Ht4WU8xcQjt-1" value="Request active virtual card" style="text;html=1;align=center;verticalAlign=middle;resizable=0;points=[];autosize=1;strokeColor=none;fontSize=12;" vertex="1" parent="0kp4pcsp-SWHpbBVWAv3-1">
          <mxGeometry x="577.75" y="317" width="160" height="20" as="geometry" />
        </mxCell>
        <mxCell id="IxDmiZgA0Ht4WU8xcQjt-2" value="Response fails" style="text;html=1;align=center;verticalAlign=middle;resizable=0;points=[];autosize=1;strokeColor=none;fontSize=12;" vertex="1" parent="0kp4pcsp-SWHpbBVWAv3-1">
          <mxGeometry x="612.75" y="348" width="90" height="20" as="geometry" />
        </mxCell>
        <mxCell id="IxDmiZgA0Ht4WU8xcQjt-3" value="Response active virtual card fails" style="text;html=1;align=center;verticalAlign=middle;resizable=0;points=[];autosize=1;strokeColor=none;fontSize=12;" vertex="1" parent="0kp4pcsp-SWHpbBVWAv3-1">
          <mxGeometry x="207.75" y="369" width="190" height="20" as="geometry" />
        </mxCell>
        <mxCell id="IxDmiZgA0Ht4WU8xcQjt-4" value="Show popup active fails" style="text;html=1;align=center;verticalAlign=middle;resizable=0;points=[];autosize=1;strokeColor=none;fontSize=12;" vertex="1" parent="0kp4pcsp-SWHpbBVWAv3-1">
          <mxGeometry x="57.75" y="389" width="140" height="20" as="geometry" />
        </mxCell>
        <mxCell id="IxDmiZgA0Ht4WU8xcQjt-5" style="edgeStyle=none;rounded=0;orthogonalLoop=1;jettySize=auto;html=1;entryX=1.3;entryY=0.555;entryDx=0;entryDy=0;entryPerimeter=0;fontSize=12;dashed=1;" edge="1" parent="0kp4pcsp-SWHpbBVWAv3-1">
          <mxGeometry relative="1" as="geometry">
            <mxPoint x="742.75" y="369.04999999999995" as="sourcePoint" />
            <mxPoint x="575.75" y="369.04999999999995" as="targetPoint" />
          </mxGeometry>
        </mxCell>
        <mxCell id="IxDmiZgA0Ht4WU8xcQjt-8" style="edgeStyle=none;rounded=0;orthogonalLoop=1;jettySize=auto;html=1;entryX=1.1;entryY=0.832;entryDx=0;entryDy=0;entryPerimeter=0;fontSize=12;dashed=1;" edge="1" parent="0kp4pcsp-SWHpbBVWAv3-1">
          <mxGeometry relative="1" as="geometry">
            <mxPoint x="213.75" y="389.8800000000001" as="targetPoint" />
            <mxPoint x="562.75" y="389.8800000000001" as="sourcePoint" />
          </mxGeometry>
        </mxCell>
        <mxCell id="IxDmiZgA0Ht4WU8xcQjt-20" style="edgeStyle=none;rounded=0;orthogonalLoop=1;jettySize=auto;html=1;entryX=-0.125;entryY=0.243;entryDx=0;entryDy=0;entryPerimeter=0;dashed=1;fontSize=12;" edge="1" parent="0kp4pcsp-SWHpbBVWAv3-1">
          <mxGeometry relative="1" as="geometry">
            <mxPoint x="572.75" y="336.45000000000005" as="sourcePoint" />
            <mxPoint x="741.5" y="336.45000000000005" as="targetPoint" />
          </mxGeometry>
        </mxCell>
        <mxCell id="IxDmiZgA0Ht4WU8xcQjt-10" style="edgeStyle=none;rounded=0;orthogonalLoop=1;jettySize=auto;html=1;entryX=0.025;entryY=0.118;entryDx=0;entryDy=0;entryPerimeter=0;fontSize=12;" edge="1" parent="0kp4pcsp-SWHpbBVWAv3-1">
          <mxGeometry relative="1" as="geometry">
            <mxPoint x="212.75" y="320.02" as="sourcePoint" />
            <mxPoint x="563" y="320.05999999999995" as="targetPoint" />
          </mxGeometry>
        </mxCell>
        <mxCell id="IxDmiZgA0Ht4WU8xcQjt-11" style="edgeStyle=none;rounded=0;orthogonalLoop=1;jettySize=auto;html=1;fontSize=12;dashed=1;" edge="1" parent="0kp4pcsp-SWHpbBVWAv3-1">
          <mxGeometry relative="1" as="geometry">
            <mxPoint x="201.38" y="410" as="sourcePoint" />
            <mxPoint x="48.63" y="410" as="targetPoint" />
          </mxGeometry>
        </mxCell>
        <mxCell id="IxDmiZgA0Ht4WU8xcQjt-13" value="" style="line;strokeWidth=1;fillColor=none;align=left;verticalAlign=middle;spacingTop=-1;spacingLeft=3;spacingRight=3;rotatable=0;labelPosition=right;points=[];portConstraint=eastwest;fontSize=12;dashed=1;" vertex="1" parent="0kp4pcsp-SWHpbBVWAv3-1">
          <mxGeometry x="30" y="418" width="740" height="8" as="geometry" />
        </mxCell>
        <mxCell id="IxDmiZgA0Ht4WU8xcQjt-14" value="Response success" style="text;html=1;align=center;verticalAlign=middle;resizable=0;points=[];autosize=1;strokeColor=none;fontSize=12;" vertex="1" parent="0kp4pcsp-SWHpbBVWAv3-1">
          <mxGeometry x="597.75" y="426" width="120" height="20" as="geometry" />
        </mxCell>
        <mxCell id="IxDmiZgA0Ht4WU8xcQjt-15" value="Response active virtual card&lt;br style=&quot;font-size: 12px;&quot;&gt;success" style="text;html=1;align=center;verticalAlign=middle;resizable=0;points=[];autosize=1;strokeColor=none;fontSize=12;" vertex="1" parent="0kp4pcsp-SWHpbBVWAv3-1">
          <mxGeometry x="215" y="433" width="170" height="30" as="geometry" />
        </mxCell>
        <mxCell id="IxDmiZgA0Ht4WU8xcQjt-16" value="Show popup active success" style="text;html=1;align=center;verticalAlign=middle;resizable=0;points=[];autosize=1;strokeColor=none;fontSize=12;" vertex="1" parent="0kp4pcsp-SWHpbBVWAv3-1">
          <mxGeometry x="47.75" y="466" width="160" height="20" as="geometry" />
        </mxCell>
        <mxCell id="IxDmiZgA0Ht4WU8xcQjt-17" style="edgeStyle=none;rounded=0;orthogonalLoop=1;jettySize=auto;html=1;entryX=1.3;entryY=0.555;entryDx=0;entryDy=0;entryPerimeter=0;fontSize=12;dashed=1;" edge="1" parent="0kp4pcsp-SWHpbBVWAv3-1">
          <mxGeometry relative="1" as="geometry">
            <mxPoint x="742.75" y="445.99999999999994" as="sourcePoint" />
            <mxPoint x="575.75" y="445.99999999999994" as="targetPoint" />
          </mxGeometry>
        </mxCell>
        <mxCell id="IxDmiZgA0Ht4WU8xcQjt-18" style="edgeStyle=none;rounded=0;orthogonalLoop=1;jettySize=auto;html=1;entryX=1.1;entryY=0.832;entryDx=0;entryDy=0;entryPerimeter=0;fontSize=12;dashed=1;" edge="1" parent="0kp4pcsp-SWHpbBVWAv3-1">
          <mxGeometry relative="1" as="geometry">
            <mxPoint x="212.75" y="463.0000000000001" as="targetPoint" />
            <mxPoint x="561.75" y="463.0000000000001" as="sourcePoint" />
          </mxGeometry>
        </mxCell>
        <mxCell id="IxDmiZgA0Ht4WU8xcQjt-19" style="edgeStyle=none;rounded=0;orthogonalLoop=1;jettySize=auto;html=1;fontSize=12;dashed=1;" edge="1" parent="0kp4pcsp-SWHpbBVWAv3-1">
          <mxGeometry relative="1" as="geometry">
            <mxPoint x="202.75" y="487" as="sourcePoint" />
            <mxPoint x="50" y="487" as="targetPoint" />
          </mxGeometry>
        </mxCell>
        <mxCell id="IxDmiZgA0Ht4WU8xcQjt-21" value="If fails" style="text;align=center;fontStyle=1;verticalAlign=middle;spacingLeft=3;spacingRight=3;strokeColor=none;rotatable=0;points=[[0,0.5],[1,0.5]];portConstraint=eastwest;fontSize=12;" vertex="1" parent="0kp4pcsp-SWHpbBVWAv3-1">
          <mxGeometry x="90" y="350" width="80" height="26" as="geometry" />
        </mxCell>
        <mxCell id="IxDmiZgA0Ht4WU8xcQjt-22" value="Else" style="text;align=center;fontStyle=1;verticalAlign=middle;spacingLeft=3;spacingRight=3;strokeColor=none;rotatable=0;points=[[0,0.5],[1,0.5]];portConstraint=eastwest;fontSize=12;" vertex="1" parent="0kp4pcsp-SWHpbBVWAv3-1">
          <mxGeometry x="85" y="420" width="80" height="26" as="geometry" />
        </mxCell>
        <mxCell id="IxDmiZgA0Ht4WU8xcQjt-23" value="" style="html=1;points=[];perimeter=orthogonalPerimeter;fontSize=12;verticalAlign=middle;" vertex="1" parent="0kp4pcsp-SWHpbBVWAv3-1">
          <mxGeometry x="742.75" y="300" width="10" height="150" as="geometry" />
        </mxCell>
        <mxCell id="IxDmiZgA0Ht4WU8xcQjt-24" value="" style="html=1;points=[];perimeter=orthogonalPerimeter;fontSize=12;verticalAlign=middle;" vertex="1" parent="0kp4pcsp-SWHpbBVWAv3-1">
          <mxGeometry x="562.75" y="300" width="10" height="170" as="geometry" />
        </mxCell>
        <mxCell id="IxDmiZgA0Ht4WU8xcQjt-25" value="" style="html=1;points=[];perimeter=orthogonalPerimeter;fontSize=11;verticalAlign=middle;" vertex="1" parent="0kp4pcsp-SWHpbBVWAv3-1">
          <mxGeometry x="205" y="110" width="10" height="480" as="geometry" />
        </mxCell>
      </root>
    </mxGraphModel>
  </diagram>
  <diagram id="H8-N3M3oLXEd4Hxf47NP" name="View-card">
    <mxGraphModel dx="1598" dy="1129" grid="1" gridSize="10" guides="1" tooltips="1" connect="1" arrows="1" fold="1" page="1" pageScale="1" pageWidth="850" pageHeight="1100" math="0" shadow="0">
      <root>
        <mxCell id="wpSH0v30T8A4Kb-bWRW9-0" />
        <mxCell id="wpSH0v30T8A4Kb-bWRW9-1" parent="wpSH0v30T8A4Kb-bWRW9-0" />
        <mxCell id="NJf-WO02EdQ4i-G8_I7d-0" value="MBA Usert" style="shape=umlLifeline;participant=umlActor;perimeter=lifelinePerimeter;html=1;container=1;collapsible=0;recursiveResize=0;verticalAlign=top;spacingTop=36;outlineConnect=0;strokeColor=#000000;strokeWidth=1;fillColor=none;size=40;" parent="wpSH0v30T8A4Kb-bWRW9-1" vertex="1">
          <mxGeometry x="40" y="30" width="20" height="570" as="geometry" />
        </mxCell>
        <mxCell id="NJf-WO02EdQ4i-G8_I7d-1" value="&lt;span&gt;Mobile App&lt;/span&gt;" style="shape=umlLifeline;perimeter=lifelinePerimeter;whiteSpace=wrap;html=1;container=1;collapsible=0;recursiveResize=0;outlineConnect=0;rounded=0;shadow=0;strokeColor=#000000;strokeWidth=1;fillColor=none;verticalAlign=middle;" parent="wpSH0v30T8A4Kb-bWRW9-1" vertex="1">
          <mxGeometry x="160" y="40" width="100" height="560" as="geometry" />
        </mxCell>
        <mxCell id="NJf-WO02EdQ4i-G8_I7d-2" value="&lt;span&gt;Card service&lt;/span&gt;" style="shape=umlLifeline;perimeter=lifelinePerimeter;whiteSpace=wrap;html=1;container=1;collapsible=0;recursiveResize=0;outlineConnect=0;rounded=0;shadow=0;strokeColor=#000000;strokeWidth=1;fillColor=none;verticalAlign=middle;" parent="wpSH0v30T8A4Kb-bWRW9-1" vertex="1">
          <mxGeometry x="340" y="40" width="100" height="560" as="geometry" />
        </mxCell>
        <mxCell id="NJf-WO02EdQ4i-G8_I7d-3" value="&lt;span&gt;AAG&lt;/span&gt;" style="shape=umlLifeline;perimeter=lifelinePerimeter;whiteSpace=wrap;html=1;container=1;collapsible=0;recursiveResize=0;outlineConnect=0;rounded=0;shadow=0;strokeColor=#000000;strokeWidth=1;fillColor=none;verticalAlign=middle;" parent="wpSH0v30T8A4Kb-bWRW9-1" vertex="1">
          <mxGeometry x="520" y="40" width="100" height="560" as="geometry" />
        </mxCell>
        <mxCell id="NJf-WO02EdQ4i-G8_I7d-9" value="View card" style="text;html=1;align=center;verticalAlign=middle;resizable=0;points=[];autosize=1;strokeColor=none;" parent="wpSH0v30T8A4Kb-bWRW9-1" vertex="1">
          <mxGeometry x="90" y="110" width="70" height="20" as="geometry" />
        </mxCell>
        <mxCell id="NJf-WO02EdQ4i-G8_I7d-10" value="Request view card" style="text;html=1;align=center;verticalAlign=middle;resizable=0;points=[];autosize=1;strokeColor=none;" parent="wpSH0v30T8A4Kb-bWRW9-1" vertex="1">
          <mxGeometry x="250" y="140" width="110" height="20" as="geometry" />
        </mxCell>
        <mxCell id="NJf-WO02EdQ4i-G8_I7d-11" value="Get card information" style="text;html=1;align=center;verticalAlign=middle;resizable=0;points=[];autosize=1;strokeColor=none;" parent="wpSH0v30T8A4Kb-bWRW9-1" vertex="1">
          <mxGeometry x="420" y="170" width="120" height="20" as="geometry" />
        </mxCell>
        <mxCell id="NJf-WO02EdQ4i-G8_I7d-12" value="Response&amp;nbsp;card information" style="text;html=1;align=center;verticalAlign=middle;resizable=0;points=[];autosize=1;strokeColor=none;" parent="wpSH0v30T8A4Kb-bWRW9-1" vertex="1">
          <mxGeometry x="405" y="200" width="160" height="20" as="geometry" />
        </mxCell>
        <mxCell id="NJf-WO02EdQ4i-G8_I7d-16" value="Get transaction history" style="text;html=1;align=center;verticalAlign=middle;resizable=0;points=[];autosize=1;strokeColor=none;" parent="wpSH0v30T8A4Kb-bWRW9-1" vertex="1">
          <mxGeometry x="410" y="230" width="140" height="20" as="geometry" />
        </mxCell>
        <mxCell id="NJf-WO02EdQ4i-G8_I7d-20" value="Response&amp;nbsp;transaction history" style="text;html=1;align=center;verticalAlign=middle;resizable=0;points=[];autosize=1;strokeColor=none;" parent="wpSH0v30T8A4Kb-bWRW9-1" vertex="1">
          <mxGeometry x="395" y="260" width="170" height="20" as="geometry" />
        </mxCell>
        <mxCell id="NJf-WO02EdQ4i-G8_I7d-21" value="Response card" style="text;html=1;align=center;verticalAlign=middle;resizable=0;points=[];autosize=1;strokeColor=none;" parent="wpSH0v30T8A4Kb-bWRW9-1" vertex="1">
          <mxGeometry x="250.5" y="220" width="100" height="20" as="geometry" />
        </mxCell>
        <mxCell id="NJf-WO02EdQ4i-G8_I7d-22" value="Show card information" style="text;html=1;align=center;verticalAlign=middle;resizable=0;points=[];autosize=1;strokeColor=none;" parent="wpSH0v30T8A4Kb-bWRW9-1" vertex="1">
          <mxGeometry x="60.5" y="250" width="130" height="20" as="geometry" />
        </mxCell>
        <mxCell id="8ZmQoE4jLZNQmyYkIhDQ-0" value="Secure Page" style="shape=umlLifeline;perimeter=lifelinePerimeter;whiteSpace=wrap;html=1;container=1;collapsible=0;recursiveResize=0;outlineConnect=0;verticalAlign=middle;" parent="wpSH0v30T8A4Kb-bWRW9-1" vertex="1">
          <mxGeometry x="700" y="40" width="100" height="560" as="geometry" />
        </mxCell>
        <mxCell id="8ZmQoE4jLZNQmyYkIhDQ-11" value="View CVV and Full PAN" style="text;html=1;align=center;verticalAlign=middle;resizable=0;points=[];autosize=1;strokeColor=none;" parent="wpSH0v30T8A4Kb-bWRW9-1" vertex="1">
          <mxGeometry x="55" y="360" width="140" height="20" as="geometry" />
        </mxCell>
        <mxCell id="8ZmQoE4jLZNQmyYkIhDQ-14" value="Request generate token" style="text;html=1;align=center;verticalAlign=middle;resizable=0;points=[];autosize=1;strokeColor=none;" parent="wpSH0v30T8A4Kb-bWRW9-1" vertex="1">
          <mxGeometry x="230" y="390" width="140" height="20" as="geometry" />
        </mxCell>
        <mxCell id="8ZmQoE4jLZNQmyYkIhDQ-16" value="Response token" style="text;html=1;align=center;verticalAlign=middle;resizable=0;points=[];autosize=1;strokeColor=none;" parent="wpSH0v30T8A4Kb-bWRW9-1" vertex="1">
          <mxGeometry x="255" y="420" width="100" height="20" as="geometry" />
        </mxCell>
        <mxCell id="8ZmQoE4jLZNQmyYkIhDQ-21" value="Response CVV and Full PAN" style="text;html=1;align=center;verticalAlign=middle;resizable=0;points=[];autosize=1;strokeColor=none;" parent="wpSH0v30T8A4Kb-bWRW9-1" vertex="1">
          <mxGeometry x="395" y="500" width="170" height="20" as="geometry" />
        </mxCell>
        <mxCell id="8ZmQoE4jLZNQmyYkIhDQ-23" value="Show CVV and Full PAN" style="text;html=1;align=center;verticalAlign=middle;resizable=0;points=[];autosize=1;strokeColor=none;" parent="wpSH0v30T8A4Kb-bWRW9-1" vertex="1">
          <mxGeometry x="55" y="510" width="150" height="20" as="geometry" />
        </mxCell>
      </root>
    </mxGraphModel>
  </diagram>
  <diagram id="uBcs24WkijpVHuA4Vvoa" name="Block/Unblock-card">
    <mxGraphModel dx="1598" dy="1129" grid="1" gridSize="10" guides="1" tooltips="1" connect="1" arrows="1" fold="1" page="1" pageScale="1" pageWidth="850" pageHeight="1100" math="0" shadow="0">
      <root>
        <mxCell id="8hNKgosOSvnzQCjNxe3N-0" />
        <mxCell id="8hNKgosOSvnzQCjNxe3N-1" parent="8hNKgosOSvnzQCjNxe3N-0" />
        <mxCell id="HapAqeY_Oh2VOczrPoCQ-13" style="edgeStyle=none;rounded=0;orthogonalLoop=1;jettySize=auto;html=1;entryX=0;entryY=0.107;entryDx=0;entryDy=0;entryPerimeter=0;fontSize=12;" edge="1" parent="8hNKgosOSvnzQCjNxe3N-1" source="xYrSJtOCrG1HN_DgAT9X-0">
          <mxGeometry relative="1" as="geometry">
            <mxPoint x="201.25" y="121.02999999999997" as="targetPoint" />
          </mxGeometry>
        </mxCell>
        <mxCell id="xYrSJtOCrG1HN_DgAT9X-0" value="MBA Usert" style="shape=umlLifeline;participant=umlActor;perimeter=lifelinePerimeter;html=1;container=1;collapsible=0;recursiveResize=0;verticalAlign=top;spacingTop=36;outlineConnect=0;strokeColor=#000000;strokeWidth=1;fillColor=none;size=40;" parent="8hNKgosOSvnzQCjNxe3N-1" vertex="1">
          <mxGeometry x="40" y="26" width="20" height="574" as="geometry" />
        </mxCell>
        <mxCell id="xYrSJtOCrG1HN_DgAT9X-1" value="&lt;span&gt;Mobile App&lt;/span&gt;" style="shape=umlLifeline;perimeter=lifelinePerimeter;whiteSpace=wrap;html=1;container=1;collapsible=0;recursiveResize=0;outlineConnect=0;rounded=0;shadow=0;strokeColor=#000000;strokeWidth=1;fillColor=none;verticalAlign=middle;" parent="8hNKgosOSvnzQCjNxe3N-1" vertex="1">
          <mxGeometry x="156.25" y="40" width="100" height="560" as="geometry" />
        </mxCell>
        <mxCell id="xYrSJtOCrG1HN_DgAT9X-2" value="&lt;span&gt;Card service&lt;/span&gt;" style="shape=umlLifeline;perimeter=lifelinePerimeter;whiteSpace=wrap;html=1;container=1;collapsible=0;recursiveResize=0;outlineConnect=0;rounded=0;shadow=0;strokeColor=#000000;strokeWidth=1;fillColor=none;verticalAlign=middle;" parent="8hNKgosOSvnzQCjNxe3N-1" vertex="1">
          <mxGeometry x="520" y="40" width="100" height="560" as="geometry" />
        </mxCell>
        <mxCell id="xYrSJtOCrG1HN_DgAT9X-3" value="&lt;span&gt;AAG&lt;/span&gt;" style="shape=umlLifeline;perimeter=lifelinePerimeter;whiteSpace=wrap;html=1;container=1;collapsible=0;recursiveResize=0;outlineConnect=0;rounded=0;shadow=0;strokeColor=#000000;strokeWidth=1;fillColor=none;verticalAlign=middle;" parent="8hNKgosOSvnzQCjNxe3N-1" vertex="1">
          <mxGeometry x="700" y="40" width="100" height="560" as="geometry" />
        </mxCell>
        <mxCell id="N6B0H4FQgEhZ8jsBKzg5-1" value="Block/ Unblock card" style="text;html=1;align=center;verticalAlign=middle;resizable=0;points=[];autosize=1;strokeColor=none;fontSize=12;" vertex="1" parent="8hNKgosOSvnzQCjNxe3N-1">
          <mxGeometry x="61.25" y="100" width="120" height="20" as="geometry" />
        </mxCell>
        <mxCell id="9Z8OZ6c29TKTNVHQzHpM-0" style="edgeStyle=none;rounded=0;orthogonalLoop=1;jettySize=auto;html=1;entryX=-0.2;entryY=0.209;entryDx=0;entryDy=0;entryPerimeter=0;fontSize=12;" edge="1" parent="8hNKgosOSvnzQCjNxe3N-1">
          <mxGeometry relative="1" as="geometry">
            <mxPoint x="203" y="169.05999999999995" as="targetPoint" />
            <mxPoint x="49.5" y="169.05999999999995" as="sourcePoint" />
          </mxGeometry>
        </mxCell>
        <mxCell id="9Z8OZ6c29TKTNVHQzHpM-1" value="Request authentication" style="text;html=1;align=center;verticalAlign=middle;resizable=0;points=[];autosize=1;strokeColor=none;fontSize=12;" vertex="1" parent="8hNKgosOSvnzQCjNxe3N-1">
          <mxGeometry x="58" y="123" width="140" height="20" as="geometry" />
        </mxCell>
        <mxCell id="9Z8OZ6c29TKTNVHQzHpM-2" value="Input authentication value" style="text;html=1;align=center;verticalAlign=middle;resizable=0;points=[];autosize=1;strokeColor=none;fontSize=12;" vertex="1" parent="8hNKgosOSvnzQCjNxe3N-1">
          <mxGeometry x="50" y="148" width="150" height="20" as="geometry" />
        </mxCell>
        <mxCell id="9Z8OZ6c29TKTNVHQzHpM-3" value="Verify authention input" style="text;html=1;align=center;verticalAlign=middle;resizable=0;points=[];autosize=1;strokeColor=none;fontSize=12;" vertex="1" parent="8hNKgosOSvnzQCjNxe3N-1">
          <mxGeometry x="235" y="168" width="130" height="20" as="geometry" />
        </mxCell>
        <mxCell id="9Z8OZ6c29TKTNVHQzHpM-4" style="edgeStyle=none;rounded=0;orthogonalLoop=1;jettySize=auto;html=1;fontSize=12;dashed=1;" edge="1" parent="8hNKgosOSvnzQCjNxe3N-1">
          <mxGeometry relative="1" as="geometry">
            <mxPoint x="205" y="143" as="sourcePoint" />
            <Array as="points">
              <mxPoint x="170" y="143" />
            </Array>
            <mxPoint x="49.5" y="143" as="targetPoint" />
          </mxGeometry>
        </mxCell>
        <mxCell id="9Z8OZ6c29TKTNVHQzHpM-5" style="edgeStyle=none;rounded=0;orthogonalLoop=1;jettySize=auto;html=1;entryX=0;entryY=0.231;entryDx=0;entryDy=0;entryPerimeter=0;fontSize=12;" edge="1" parent="8hNKgosOSvnzQCjNxe3N-1">
          <mxGeometry relative="1" as="geometry">
            <mxPoint x="215" y="188.02999999999997" as="sourcePoint" />
            <mxPoint x="385" y="188.02999999999997" as="targetPoint" />
          </mxGeometry>
        </mxCell>
        <mxCell id="SeiQszyHgriUBBmRhf8H-0" value="&lt;span&gt;Auth Service&lt;/span&gt;" style="shape=umlLifeline;perimeter=lifelinePerimeter;whiteSpace=wrap;html=1;container=1;collapsible=0;recursiveResize=0;outlineConnect=0;rounded=0;shadow=0;strokeColor=#000000;strokeWidth=1;fillColor=none;verticalAlign=middle;" vertex="1" parent="8hNKgosOSvnzQCjNxe3N-1">
          <mxGeometry x="340" y="40" width="100" height="560" as="geometry" />
        </mxCell>
        <mxCell id="afV2wAqEMEg_NH0kviTP-0" value="Alternative" style="shape=umlFrame;whiteSpace=wrap;html=1;fontSize=12;verticalAlign=middle;width=70;height=30;" vertex="1" parent="8hNKgosOSvnzQCjNxe3N-1">
          <mxGeometry x="10" y="200" width="780" height="330" as="geometry" />
        </mxCell>
        <mxCell id="5v6s9IACk0qzhQT3Id43-0" value="Alternative" style="shape=umlFrame;whiteSpace=wrap;html=1;fontSize=12;verticalAlign=middle;width=70;height=30;" vertex="1" parent="8hNKgosOSvnzQCjNxe3N-1">
          <mxGeometry x="30" y="330" width="740" height="180" as="geometry" />
        </mxCell>
        <mxCell id="5v6s9IACk0qzhQT3Id43-1" value="Request Block/ Unblock card" style="text;html=1;align=center;verticalAlign=middle;resizable=0;points=[];autosize=1;strokeColor=none;fontSize=12;" vertex="1" parent="8hNKgosOSvnzQCjNxe3N-1">
          <mxGeometry x="215" y="284" width="170" height="20" as="geometry" />
        </mxCell>
        <mxCell id="5v6s9IACk0qzhQT3Id43-2" value="Send request Block/Unblock &lt;br style=&quot;font-size: 12px;&quot;&gt;card" style="text;html=1;align=center;verticalAlign=middle;resizable=0;points=[];autosize=1;strokeColor=none;fontSize=12;" vertex="1" parent="8hNKgosOSvnzQCjNxe3N-1">
          <mxGeometry x="572" y="289" width="170" height="30" as="geometry" />
        </mxCell>
        <mxCell id="5v6s9IACk0qzhQT3Id43-3" value="Response status fails" style="text;html=1;align=center;verticalAlign=middle;resizable=0;points=[];autosize=1;strokeColor=none;fontSize=12;" vertex="1" parent="8hNKgosOSvnzQCjNxe3N-1">
          <mxGeometry x="603.75" y="340" width="130" height="20" as="geometry" />
        </mxCell>
        <mxCell id="5v6s9IACk0qzhQT3Id43-4" value="Response status fails" style="text;html=1;align=center;verticalAlign=middle;resizable=0;points=[];autosize=1;strokeColor=none;fontSize=12;" vertex="1" parent="8hNKgosOSvnzQCjNxe3N-1">
          <mxGeometry x="236.25" y="360" width="130" height="20" as="geometry" />
        </mxCell>
        <mxCell id="5v6s9IACk0qzhQT3Id43-5" value="Show popup Block/ Unblock&lt;br style=&quot;font-size: 12px;&quot;&gt;card fails" style="text;html=1;align=center;verticalAlign=middle;resizable=0;points=[];autosize=1;strokeColor=none;fontSize=12;" vertex="1" parent="8hNKgosOSvnzQCjNxe3N-1">
          <mxGeometry x="45" y="370" width="160" height="30" as="geometry" />
        </mxCell>
        <mxCell id="5v6s9IACk0qzhQT3Id43-6" value="Response status success" style="text;html=1;align=center;verticalAlign=middle;resizable=0;points=[];autosize=1;strokeColor=none;fontSize=12;" vertex="1" parent="8hNKgosOSvnzQCjNxe3N-1">
          <mxGeometry x="593.75" y="430" width="150" height="20" as="geometry" />
        </mxCell>
        <mxCell id="5v6s9IACk0qzhQT3Id43-7" value="Response status success" style="text;html=1;align=center;verticalAlign=middle;resizable=0;points=[];autosize=1;strokeColor=none;fontSize=12;" vertex="1" parent="8hNKgosOSvnzQCjNxe3N-1">
          <mxGeometry x="237.5" y="450" width="150" height="20" as="geometry" />
        </mxCell>
        <mxCell id="5v6s9IACk0qzhQT3Id43-8" value="Show popup Block/ Unblock&lt;br style=&quot;font-size: 12px;&quot;&gt;card success" style="text;html=1;align=center;verticalAlign=middle;resizable=0;points=[];autosize=1;strokeColor=none;fontSize=12;" vertex="1" parent="8hNKgosOSvnzQCjNxe3N-1">
          <mxGeometry x="45" y="460" width="160" height="30" as="geometry" />
        </mxCell>
        <mxCell id="5v6s9IACk0qzhQT3Id43-9" value="" style="line;strokeWidth=1;fillColor=none;align=left;verticalAlign=middle;spacingTop=-1;spacingLeft=3;spacingRight=3;rotatable=0;labelPosition=right;points=[];portConstraint=eastwest;fontSize=12;dashed=1;" vertex="1" parent="8hNKgosOSvnzQCjNxe3N-1">
          <mxGeometry x="30" y="407" width="740" height="8" as="geometry" />
        </mxCell>
        <mxCell id="5v6s9IACk0qzhQT3Id43-10" style="edgeStyle=none;rounded=0;orthogonalLoop=1;jettySize=auto;html=1;entryX=-0.3;entryY=0.122;entryDx=0;entryDy=0;entryPerimeter=0;fontSize=12;" edge="1" parent="8hNKgosOSvnzQCjNxe3N-1">
          <mxGeometry relative="1" as="geometry">
            <mxPoint x="211.25" y="304.05999999999995" as="sourcePoint" />
            <mxPoint x="562" y="304.05999999999995" as="targetPoint" />
          </mxGeometry>
        </mxCell>
        <mxCell id="5v6s9IACk0qzhQT3Id43-12" style="edgeStyle=none;rounded=0;orthogonalLoop=1;jettySize=auto;html=1;dashed=1;fontSize=12;" edge="1" parent="8hNKgosOSvnzQCjNxe3N-1">
          <mxGeometry relative="1" as="geometry">
            <mxPoint x="211.25" y="490.02" as="sourcePoint" />
            <mxPoint x="50" y="490" as="targetPoint" />
          </mxGeometry>
        </mxCell>
        <mxCell id="5v6s9IACk0qzhQT3Id43-15" style="edgeStyle=none;rounded=0;orthogonalLoop=1;jettySize=auto;html=1;entryX=1.175;entryY=0.824;entryDx=0;entryDy=0;entryPerimeter=0;dashed=1;fontSize=12;exitX=0;exitY=0.89;exitDx=0;exitDy=0;exitPerimeter=0;" edge="1" parent="8hNKgosOSvnzQCjNxe3N-1" source="iL3oRjzarkeesoMpeV1g-0" target="sMnghvtKig04q1WlUeJP-3">
          <mxGeometry relative="1" as="geometry">
            <mxPoint x="390" y="469" as="sourcePoint" />
            <mxPoint x="221.25" y="469" as="targetPoint" />
          </mxGeometry>
        </mxCell>
        <mxCell id="5v6s9IACk0qzhQT3Id43-16" style="edgeStyle=none;rounded=0;orthogonalLoop=1;jettySize=auto;html=1;fontSize=12;dashed=1;" edge="1" parent="8hNKgosOSvnzQCjNxe3N-1">
          <mxGeometry relative="1" as="geometry">
            <mxPoint x="745" y="360.04999999999995" as="sourcePoint" />
            <mxPoint x="580" y="360" as="targetPoint" />
          </mxGeometry>
        </mxCell>
        <mxCell id="5v6s9IACk0qzhQT3Id43-17" style="edgeStyle=none;rounded=0;orthogonalLoop=1;jettySize=auto;html=1;dashed=1;fontSize=12;entryX=0.9;entryY=0.79;entryDx=0;entryDy=0;entryPerimeter=0;" edge="1" parent="8hNKgosOSvnzQCjNxe3N-1" target="iL3oRjzarkeesoMpeV1g-0">
          <mxGeometry relative="1" as="geometry">
            <mxPoint x="750" y="448" as="sourcePoint" />
            <mxPoint x="570" y="450" as="targetPoint" />
          </mxGeometry>
        </mxCell>
        <mxCell id="5v6s9IACk0qzhQT3Id43-18" value="If fails" style="text;align=center;fontStyle=1;verticalAlign=middle;spacingLeft=3;spacingRight=3;strokeColor=none;rotatable=0;points=[[0,0.5],[1,0.5]];portConstraint=eastwest;fontSize=12;" vertex="1" parent="8hNKgosOSvnzQCjNxe3N-1">
          <mxGeometry x="95" y="330" width="80" height="26" as="geometry" />
        </mxCell>
        <mxCell id="5v6s9IACk0qzhQT3Id43-19" value="Else" style="text;align=center;fontStyle=1;verticalAlign=middle;spacingLeft=3;spacingRight=3;strokeColor=none;rotatable=0;points=[[0,0.5],[1,0.5]];portConstraint=eastwest;fontSize=12;" vertex="1" parent="8hNKgosOSvnzQCjNxe3N-1">
          <mxGeometry x="95" y="415" width="80" height="26" as="geometry" />
        </mxCell>
        <mxCell id="5v6s9IACk0qzhQT3Id43-20" value="Authention invalid" style="text;html=1;align=center;verticalAlign=middle;resizable=0;points=[];autosize=1;strokeColor=none;fontSize=12;" vertex="1" parent="8hNKgosOSvnzQCjNxe3N-1">
          <mxGeometry x="245" y="210" width="110" height="20" as="geometry" />
        </mxCell>
        <mxCell id="5v6s9IACk0qzhQT3Id43-21" value="Show error" style="text;html=1;align=center;verticalAlign=middle;resizable=0;points=[];autosize=1;strokeColor=none;fontSize=12;" vertex="1" parent="8hNKgosOSvnzQCjNxe3N-1">
          <mxGeometry x="90" y="230" width="70" height="20" as="geometry" />
        </mxCell>
        <mxCell id="5v6s9IACk0qzhQT3Id43-22" value="Authention OK" style="text;html=1;align=center;verticalAlign=middle;resizable=0;points=[];autosize=1;strokeColor=none;fontSize=12;" vertex="1" parent="8hNKgosOSvnzQCjNxe3N-1">
          <mxGeometry x="256.25" y="264" width="90" height="20" as="geometry" />
        </mxCell>
        <mxCell id="5v6s9IACk0qzhQT3Id43-23" style="edgeStyle=none;rounded=0;orthogonalLoop=1;jettySize=auto;html=1;entryX=1.2;entryY=0.385;entryDx=0;entryDy=0;entryPerimeter=0;fontSize=12;dashed=1;" edge="1" parent="8hNKgosOSvnzQCjNxe3N-1">
          <mxGeometry relative="1" as="geometry">
            <mxPoint x="215" y="229.00000000000009" as="targetPoint" />
            <mxPoint x="383" y="229.00000000000009" as="sourcePoint" />
          </mxGeometry>
        </mxCell>
        <mxCell id="5v6s9IACk0qzhQT3Id43-24" style="edgeStyle=none;rounded=0;orthogonalLoop=1;jettySize=auto;html=1;fontSize=12;dashed=1;" edge="1" parent="8hNKgosOSvnzQCjNxe3N-1">
          <mxGeometry relative="1" as="geometry">
            <mxPoint x="200" y="250" as="sourcePoint" />
            <mxPoint x="50" y="250" as="targetPoint" />
          </mxGeometry>
        </mxCell>
        <mxCell id="5v6s9IACk0qzhQT3Id43-25" value="If invalid" style="text;align=center;fontStyle=1;verticalAlign=middle;spacingLeft=3;spacingRight=3;strokeColor=none;rotatable=0;points=[[0,0.5],[1,0.5]];portConstraint=eastwest;fontSize=12;" vertex="1" parent="8hNKgosOSvnzQCjNxe3N-1">
          <mxGeometry x="90" y="200" width="80" height="26" as="geometry" />
        </mxCell>
        <mxCell id="5v6s9IACk0qzhQT3Id43-26" value="Else" style="text;align=center;fontStyle=1;verticalAlign=middle;spacingLeft=3;spacingRight=3;strokeColor=none;rotatable=0;points=[[0,0.5],[1,0.5]];portConstraint=eastwest;fontSize=12;" vertex="1" parent="8hNKgosOSvnzQCjNxe3N-1">
          <mxGeometry x="90" y="264" width="80" height="26" as="geometry" />
        </mxCell>
        <mxCell id="sMnghvtKig04q1WlUeJP-0" value="" style="line;strokeWidth=1;fillColor=none;align=left;verticalAlign=middle;spacingTop=-1;spacingLeft=3;spacingRight=3;rotatable=0;labelPosition=right;points=[];portConstraint=eastwest;fontSize=12;dashed=1;" vertex="1" parent="8hNKgosOSvnzQCjNxe3N-1">
          <mxGeometry x="10" y="260" width="780" height="8" as="geometry" />
        </mxCell>
        <mxCell id="sMnghvtKig04q1WlUeJP-2" style="edgeStyle=none;rounded=0;orthogonalLoop=1;jettySize=auto;html=1;entryX=0.975;entryY=0.659;entryDx=0;entryDy=0;entryPerimeter=0;dashed=1;fontSize=12;" edge="1" parent="8hNKgosOSvnzQCjNxe3N-1" source="sMnghvtKig04q1WlUeJP-1">
          <mxGeometry relative="1" as="geometry">
            <mxPoint x="211" y="281.1100000000001" as="targetPoint" />
          </mxGeometry>
        </mxCell>
        <mxCell id="sMnghvtKig04q1WlUeJP-1" value="" style="html=1;points=[];perimeter=orthogonalPerimeter;fontSize=12;verticalAlign=middle;" vertex="1" parent="8hNKgosOSvnzQCjNxe3N-1">
          <mxGeometry x="385" y="160" width="10" height="130" as="geometry" />
        </mxCell>
        <mxCell id="iL3oRjzarkeesoMpeV1g-4" style="edgeStyle=none;rounded=0;orthogonalLoop=1;jettySize=auto;html=1;entryX=-0.027;entryY=1.05;entryDx=0;entryDy=0;entryPerimeter=0;dashed=1;fontSize=12;" edge="1" parent="8hNKgosOSvnzQCjNxe3N-1">
          <mxGeometry relative="1" as="geometry">
            <mxPoint x="201.25" y="400" as="sourcePoint" />
            <mxPoint x="50.950000000000045" y="400" as="targetPoint" />
          </mxGeometry>
        </mxCell>
        <mxCell id="sMnghvtKig04q1WlUeJP-3" value="" style="html=1;points=[];perimeter=orthogonalPerimeter;fontSize=11;verticalAlign=middle;" vertex="1" parent="8hNKgosOSvnzQCjNxe3N-1">
          <mxGeometry x="201.25" y="90" width="10" height="460" as="geometry" />
        </mxCell>
        <mxCell id="iL3oRjzarkeesoMpeV1g-2" style="edgeStyle=none;rounded=0;orthogonalLoop=1;jettySize=auto;html=1;entryX=0.1;entryY=0.161;entryDx=0;entryDy=0;entryPerimeter=0;dashed=1;fontSize=12;" edge="1" parent="8hNKgosOSvnzQCjNxe3N-1" source="iL3oRjzarkeesoMpeV1g-0" target="iL3oRjzarkeesoMpeV1g-1">
          <mxGeometry relative="1" as="geometry" />
        </mxCell>
        <mxCell id="iL3oRjzarkeesoMpeV1g-3" style="edgeStyle=none;rounded=0;orthogonalLoop=1;jettySize=auto;html=1;dashed=1;fontSize=12;" edge="1" parent="8hNKgosOSvnzQCjNxe3N-1">
          <mxGeometry relative="1" as="geometry">
            <mxPoint x="565" y="378" as="sourcePoint" />
            <mxPoint x="211.25" y="378" as="targetPoint" />
          </mxGeometry>
        </mxCell>
        <mxCell id="iL3oRjzarkeesoMpeV1g-0" value="" style="html=1;points=[];perimeter=orthogonalPerimeter;fontSize=12;verticalAlign=middle;" vertex="1" parent="8hNKgosOSvnzQCjNxe3N-1">
          <mxGeometry x="565" y="290" width="10" height="200" as="geometry" />
        </mxCell>
        <mxCell id="iL3oRjzarkeesoMpeV1g-1" value="" style="html=1;points=[];perimeter=orthogonalPerimeter;fontSize=12;verticalAlign=middle;" vertex="1" parent="8hNKgosOSvnzQCjNxe3N-1">
          <mxGeometry x="745" y="290" width="10" height="180" as="geometry" />
        </mxCell>
      </root>
    </mxGraphModel>
  </diagram>
  <diagram id="J-Uvdp-qsrgXEduNVbwf" name="Print-card">
    <mxGraphModel dx="1598" dy="1129" grid="1" gridSize="10" guides="1" tooltips="1" connect="1" arrows="1" fold="1" page="1" pageScale="1" pageWidth="850" pageHeight="1100" math="0" shadow="0">
      <root>
        <mxCell id="ThrLVRlP--hXv5NNp5e8-0" />
        <mxCell id="ThrLVRlP--hXv5NNp5e8-1" parent="ThrLVRlP--hXv5NNp5e8-0" />
        <mxCell id="h1cVNeol6wAxd9jwS_Eo-0" style="edgeStyle=none;rounded=0;orthogonalLoop=1;jettySize=auto;html=1;verticalAlign=bottom;entryX=0;entryY=0.017;entryDx=0;entryDy=0;entryPerimeter=0;" parent="ThrLVRlP--hXv5NNp5e8-1" target="h1cVNeol6wAxd9jwS_Eo-60" edge="1">
          <mxGeometry relative="1" as="geometry">
            <mxPoint x="49.5" y="121" as="sourcePoint" />
            <mxPoint x="259.5" y="121" as="targetPoint" />
            <Array as="points">
              <mxPoint x="150" y="121" />
            </Array>
          </mxGeometry>
        </mxCell>
        <mxCell id="h1cVNeol6wAxd9jwS_Eo-1" style="rounded=0;orthogonalLoop=1;jettySize=auto;html=1;entryX=0;entryY=0.471;entryDx=0;entryDy=0;entryPerimeter=0;" parent="ThrLVRlP--hXv5NNp5e8-1" edge="1">
          <mxGeometry relative="1" as="geometry">
            <mxPoint x="52.5" y="419" as="sourcePoint" />
            <mxPoint x="257.5" y="419.3499999999999" as="targetPoint" />
          </mxGeometry>
        </mxCell>
        <mxCell id="h1cVNeol6wAxd9jwS_Eo-2" style="edgeStyle=none;rounded=0;orthogonalLoop=1;jettySize=auto;html=1;entryX=0;entryY=0.698;entryDx=0;entryDy=0;entryPerimeter=0;" parent="ThrLVRlP--hXv5NNp5e8-1" edge="1">
          <mxGeometry relative="1" as="geometry">
            <Array as="points">
              <mxPoint x="242.25" y="558" />
            </Array>
            <mxPoint x="51.75" y="558" as="sourcePoint" />
            <mxPoint x="255" y="557.8" as="targetPoint" />
          </mxGeometry>
        </mxCell>
        <mxCell id="h1cVNeol6wAxd9jwS_Eo-3" value="MBA Usert" style="shape=umlLifeline;participant=umlActor;perimeter=lifelinePerimeter;html=1;container=1;collapsible=0;recursiveResize=0;verticalAlign=top;spacingTop=36;outlineConnect=0;strokeColor=#000000;strokeWidth=1;fillColor=none;size=40;" parent="ThrLVRlP--hXv5NNp5e8-1" vertex="1">
          <mxGeometry x="40" y="30" width="20" height="720" as="geometry" />
        </mxCell>
        <mxCell id="h1cVNeol6wAxd9jwS_Eo-4" style="edgeStyle=none;rounded=0;orthogonalLoop=1;jettySize=auto;html=1;verticalAlign=bottom;" parent="ThrLVRlP--hXv5NNp5e8-1" edge="1">
          <mxGeometry relative="1" as="geometry">
            <mxPoint x="255.5" y="149" as="sourcePoint" />
            <mxPoint x="495.5" y="149" as="targetPoint" />
            <Array as="points">
              <mxPoint x="316" y="149" />
              <mxPoint x="446" y="149" />
            </Array>
          </mxGeometry>
        </mxCell>
        <mxCell id="h1cVNeol6wAxd9jwS_Eo-10" style="edgeStyle=none;rounded=0;orthogonalLoop=1;jettySize=auto;html=1;dashed=1;" parent="ThrLVRlP--hXv5NNp5e8-1" edge="1">
          <mxGeometry relative="1" as="geometry">
            <Array as="points">
              <mxPoint x="220.5" y="709" />
            </Array>
            <mxPoint x="260" y="709" as="sourcePoint" />
            <mxPoint x="50" y="709" as="targetPoint" />
          </mxGeometry>
        </mxCell>
        <mxCell id="h1cVNeol6wAxd9jwS_Eo-11" value="&lt;span&gt;Mobile App&lt;/span&gt;" style="shape=umlLifeline;perimeter=lifelinePerimeter;whiteSpace=wrap;html=1;container=1;collapsible=0;recursiveResize=0;outlineConnect=0;rounded=0;shadow=0;strokeColor=#000000;strokeWidth=1;fillColor=none;verticalAlign=middle;" parent="ThrLVRlP--hXv5NNp5e8-1" vertex="1">
          <mxGeometry x="210" y="40" width="100" height="710" as="geometry" />
        </mxCell>
        <mxCell id="h1cVNeol6wAxd9jwS_Eo-12" style="edgeStyle=none;rounded=0;orthogonalLoop=1;jettySize=auto;html=1;verticalAlign=bottom;entryX=0.1;entryY=0.079;entryDx=0;entryDy=0;entryPerimeter=0;" parent="ThrLVRlP--hXv5NNp5e8-1" target="h1cVNeol6wAxd9jwS_Eo-61" edge="1">
          <mxGeometry relative="1" as="geometry">
            <Array as="points">
              <mxPoint x="645" y="179.5" />
            </Array>
            <mxPoint x="508.5" y="179.5" as="sourcePoint" />
            <mxPoint x="742" y="175" as="targetPoint" />
          </mxGeometry>
        </mxCell>
        <mxCell id="h1cVNeol6wAxd9jwS_Eo-13" style="edgeStyle=none;rounded=0;orthogonalLoop=1;jettySize=auto;html=1;endSize=6;strokeColor=#000000;strokeWidth=1;verticalAlign=bottom;" parent="ThrLVRlP--hXv5NNp5e8-1" edge="1">
          <mxGeometry relative="1" as="geometry">
            <mxPoint x="504.5" y="240.5" as="sourcePoint" />
            <mxPoint x="741" y="241" as="targetPoint" />
            <Array as="points">
              <mxPoint x="595" y="240.5" />
              <mxPoint x="725" y="240.5" />
            </Array>
          </mxGeometry>
        </mxCell>
        <mxCell id="h1cVNeol6wAxd9jwS_Eo-22" value="&lt;span&gt;Card service&lt;/span&gt;" style="shape=umlLifeline;perimeter=lifelinePerimeter;whiteSpace=wrap;html=1;container=1;collapsible=0;recursiveResize=0;outlineConnect=0;rounded=0;shadow=0;strokeColor=#000000;strokeWidth=1;fillColor=none;verticalAlign=middle;" parent="ThrLVRlP--hXv5NNp5e8-1" vertex="1">
          <mxGeometry x="431.5" y="40" width="145" height="710" as="geometry" />
        </mxCell>
        <mxCell id="h1cVNeol6wAxd9jwS_Eo-23" style="edgeStyle=none;rounded=0;orthogonalLoop=1;jettySize=auto;html=1;verticalAlign=bottom;dashed=1;strokeWidth=1;endSize=6;" parent="ThrLVRlP--hXv5NNp5e8-1" edge="1">
          <mxGeometry relative="1" as="geometry">
            <mxPoint x="748.5" y="209.5" as="sourcePoint" />
            <mxPoint x="508.5" y="209.5" as="targetPoint" />
            <Array as="points">
              <mxPoint x="609" y="209.5" />
            </Array>
          </mxGeometry>
        </mxCell>
        <mxCell id="h1cVNeol6wAxd9jwS_Eo-24" style="edgeStyle=none;rounded=0;orthogonalLoop=1;jettySize=auto;html=1;endSize=6;strokeColor=#000000;strokeWidth=1;verticalAlign=bottom;dashed=1;" parent="ThrLVRlP--hXv5NNp5e8-1" edge="1">
          <mxGeometry relative="1" as="geometry">
            <mxPoint x="748.5" y="269.5" as="sourcePoint" />
            <mxPoint x="508.5" y="269.5" as="targetPoint" />
            <Array as="points">
              <mxPoint x="579" y="269.5" />
            </Array>
          </mxGeometry>
        </mxCell>
        <mxCell id="h1cVNeol6wAxd9jwS_Eo-25" style="rounded=0;orthogonalLoop=1;jettySize=auto;html=1;dashed=1;" parent="ThrLVRlP--hXv5NNp5e8-1" edge="1">
          <mxGeometry relative="1" as="geometry">
            <mxPoint x="750" y="358.5" as="sourcePoint" />
            <mxPoint x="510" y="358.5" as="targetPoint" />
            <Array as="points">
              <mxPoint x="680.5" y="358.5" />
            </Array>
          </mxGeometry>
        </mxCell>
        <mxCell id="h1cVNeol6wAxd9jwS_Eo-29" value="&lt;span&gt;AAG&lt;/span&gt;" style="shape=umlLifeline;perimeter=lifelinePerimeter;whiteSpace=wrap;html=1;container=1;collapsible=0;recursiveResize=0;outlineConnect=0;rounded=0;shadow=0;strokeColor=#000000;strokeWidth=1;fillColor=none;verticalAlign=middle;" parent="ThrLVRlP--hXv5NNp5e8-1" vertex="1">
          <mxGeometry x="695" y="40" width="100" height="710" as="geometry" />
        </mxCell>
        <mxCell id="h1cVNeol6wAxd9jwS_Eo-30" value="Request print card" style="text;html=1;align=center;verticalAlign=middle;resizable=0;points=[];autosize=1;strokeColor=none;" parent="ThrLVRlP--hXv5NNp5e8-1" vertex="1">
          <mxGeometry x="100" y="101" width="110" height="20" as="geometry" />
        </mxCell>
        <mxCell id="h1cVNeol6wAxd9jwS_Eo-31" value="Validate condition print card" style="text;html=1;align=center;verticalAlign=middle;resizable=0;points=[];autosize=1;strokeColor=none;" parent="ThrLVRlP--hXv5NNp5e8-1" vertex="1">
          <mxGeometry x="300" y="129" width="160" height="20" as="geometry" />
        </mxCell>
        <mxCell id="h1cVNeol6wAxd9jwS_Eo-32" value="Send validation request" style="text;html=1;align=center;verticalAlign=middle;resizable=0;points=[];autosize=1;strokeColor=none;" parent="ThrLVRlP--hXv5NNp5e8-1" vertex="1">
          <mxGeometry x="550" y="159.5" width="140" height="20" as="geometry" />
        </mxCell>
        <mxCell id="h1cVNeol6wAxd9jwS_Eo-33" value="Response status" style="text;html=1;align=center;verticalAlign=middle;resizable=0;points=[];autosize=1;strokeColor=none;" parent="ThrLVRlP--hXv5NNp5e8-1" vertex="1">
          <mxGeometry x="570" y="189.5" width="100" height="20" as="geometry" />
        </mxCell>
        <mxCell id="h1cVNeol6wAxd9jwS_Eo-34" value="Get print card fee" style="text;html=1;align=center;verticalAlign=middle;resizable=0;points=[];autosize=1;strokeColor=none;" parent="ThrLVRlP--hXv5NNp5e8-1" vertex="1">
          <mxGeometry x="560" y="220.5" width="110" height="20" as="geometry" />
        </mxCell>
        <mxCell id="h1cVNeol6wAxd9jwS_Eo-35" value="List print card fee" style="text;html=1;align=center;verticalAlign=middle;resizable=0;points=[];autosize=1;strokeColor=none;" parent="ThrLVRlP--hXv5NNp5e8-1" vertex="1">
          <mxGeometry x="560" y="249.5" width="110" height="20" as="geometry" />
        </mxCell>
        <mxCell id="h1cVNeol6wAxd9jwS_Eo-41" value="Choose province" style="text;html=1;align=center;verticalAlign=middle;resizable=0;points=[];autosize=1;strokeColor=none;" parent="ThrLVRlP--hXv5NNp5e8-1" vertex="1">
          <mxGeometry x="98" y="399" width="110" height="20" as="geometry" />
        </mxCell>
        <mxCell id="h1cVNeol6wAxd9jwS_Eo-42" value="List provinces" style="text;html=1;align=center;verticalAlign=middle;resizable=0;points=[];autosize=1;strokeColor=none;" parent="ThrLVRlP--hXv5NNp5e8-1" vertex="1">
          <mxGeometry x="581.5" y="338.5" width="90" height="20" as="geometry" />
        </mxCell>
        <mxCell id="h1cVNeol6wAxd9jwS_Eo-54" value="Print card" style="text;html=1;align=center;verticalAlign=middle;resizable=0;points=[];autosize=1;strokeColor=none;" parent="ThrLVRlP--hXv5NNp5e8-1" vertex="1">
          <mxGeometry x="117.25" y="538" width="70" height="20" as="geometry" />
        </mxCell>
        <mxCell id="h1cVNeol6wAxd9jwS_Eo-59" value="Show popup" style="text;html=1;align=center;verticalAlign=middle;resizable=0;points=[];autosize=1;strokeColor=none;" parent="ThrLVRlP--hXv5NNp5e8-1" vertex="1">
          <mxGeometry x="110.5" y="689" width="80" height="20" as="geometry" />
        </mxCell>
        <mxCell id="h1cVNeol6wAxd9jwS_Eo-79" style="edgeStyle=none;rounded=0;orthogonalLoop=1;jettySize=auto;html=1;entryX=0;entryY=0.092;entryDx=0;entryDy=0;entryPerimeter=0;" parent="ThrLVRlP--hXv5NNp5e8-1" target="h1cVNeol6wAxd9jwS_Eo-78" edge="1">
          <mxGeometry relative="1" as="geometry">
            <mxPoint x="265" y="449" as="sourcePoint" />
            <mxPoint x="500" y="449" as="targetPoint" />
            <Array as="points">
              <mxPoint x="280" y="449" />
            </Array>
          </mxGeometry>
        </mxCell>
        <mxCell id="h1cVNeol6wAxd9jwS_Eo-91" style="edgeStyle=none;rounded=0;orthogonalLoop=1;jettySize=auto;html=1;entryX=0.2;entryY=0.2;entryDx=0;entryDy=0;entryPerimeter=0;" parent="ThrLVRlP--hXv5NNp5e8-1" edge="1">
          <mxGeometry relative="1" as="geometry">
            <mxPoint x="265" y="587.5" as="sourcePoint" />
            <mxPoint x="502" y="587.5" as="targetPoint" />
          </mxGeometry>
        </mxCell>
        <mxCell id="h1cVNeol6wAxd9jwS_Eo-60" value="" style="html=1;points=[];perimeter=orthogonalPerimeter;" parent="ThrLVRlP--hXv5NNp5e8-1" vertex="1">
          <mxGeometry x="255" y="110" width="10" height="610" as="geometry" />
        </mxCell>
        <mxCell id="h1cVNeol6wAxd9jwS_Eo-61" value="" style="html=1;points=[];perimeter=orthogonalPerimeter;" parent="ThrLVRlP--hXv5NNp5e8-1" vertex="1">
          <mxGeometry x="740" y="169.5" width="10" height="120.5" as="geometry" />
        </mxCell>
        <mxCell id="h1cVNeol6wAxd9jwS_Eo-74" style="edgeStyle=none;rounded=0;orthogonalLoop=1;jettySize=auto;html=1;entryX=0.2;entryY=0.717;entryDx=0;entryDy=0;entryPerimeter=0;" parent="ThrLVRlP--hXv5NNp5e8-1" edge="1">
          <mxGeometry relative="1" as="geometry">
            <mxPoint x="510.5" y="330.94" as="sourcePoint" />
            <mxPoint x="742.5" y="329.99999999999994" as="targetPoint" />
            <Array as="points">
              <mxPoint x="715.5" y="330.94" />
            </Array>
          </mxGeometry>
        </mxCell>
        <mxCell id="h1cVNeol6wAxd9jwS_Eo-99" style="edgeStyle=none;rounded=0;orthogonalLoop=1;jettySize=auto;html=1;dashed=1;entryX=0.9;entryY=0.313;entryDx=0;entryDy=0;entryPerimeter=0;" parent="ThrLVRlP--hXv5NNp5e8-1" source="h1cVNeol6wAxd9jwS_Eo-66" target="h1cVNeol6wAxd9jwS_Eo-60" edge="1">
          <mxGeometry relative="1" as="geometry">
            <mxPoint x="270" y="299" as="targetPoint" />
          </mxGeometry>
        </mxCell>
        <mxCell id="h1cVNeol6wAxd9jwS_Eo-66" value="" style="html=1;points=[];perimeter=orthogonalPerimeter;" parent="ThrLVRlP--hXv5NNp5e8-1" vertex="1">
          <mxGeometry x="500" y="140.5" width="10" height="169.5" as="geometry" />
        </mxCell>
        <mxCell id="h1cVNeol6wAxd9jwS_Eo-75" value="Get list provinces" style="text;html=1;align=center;verticalAlign=middle;resizable=0;points=[];autosize=1;strokeColor=none;" parent="ThrLVRlP--hXv5NNp5e8-1" vertex="1">
          <mxGeometry x="565" y="310" width="110" height="20" as="geometry" />
        </mxCell>
        <mxCell id="h1cVNeol6wAxd9jwS_Eo-76" style="rounded=0;orthogonalLoop=1;jettySize=auto;html=1;dashed=1;" parent="ThrLVRlP--hXv5NNp5e8-1" edge="1">
          <mxGeometry relative="1" as="geometry">
            <mxPoint x="497" y="389" as="sourcePoint" />
            <mxPoint x="265" y="389" as="targetPoint" />
            <Array as="points">
              <mxPoint x="435.5" y="389" />
            </Array>
          </mxGeometry>
        </mxCell>
        <mxCell id="h1cVNeol6wAxd9jwS_Eo-77" value="List provinces" style="text;html=1;align=center;verticalAlign=middle;resizable=0;points=[];autosize=1;strokeColor=none;" parent="ThrLVRlP--hXv5NNp5e8-1" vertex="1">
          <mxGeometry x="336.5" y="369" width="90" height="20" as="geometry" />
        </mxCell>
        <mxCell id="h1cVNeol6wAxd9jwS_Eo-82" style="edgeStyle=none;rounded=0;orthogonalLoop=1;jettySize=auto;html=1;entryX=0;entryY=0.08;entryDx=0;entryDy=0;entryPerimeter=0;" parent="ThrLVRlP--hXv5NNp5e8-1" edge="1">
          <mxGeometry relative="1" as="geometry">
            <mxPoint x="510" y="468.5" as="sourcePoint" />
            <mxPoint x="740" y="468.5" as="targetPoint" />
          </mxGeometry>
        </mxCell>
        <mxCell id="h1cVNeol6wAxd9jwS_Eo-78" value="" style="html=1;points=[];perimeter=orthogonalPerimeter;" parent="ThrLVRlP--hXv5NNp5e8-1" vertex="1">
          <mxGeometry x="500" y="438.5" width="10" height="120" as="geometry" />
        </mxCell>
        <mxCell id="h1cVNeol6wAxd9jwS_Eo-80" value="Request list branche" style="text;html=1;align=center;verticalAlign=middle;resizable=0;points=[];autosize=1;strokeColor=none;" parent="ThrLVRlP--hXv5NNp5e8-1" vertex="1">
          <mxGeometry x="320" y="429" width="120" height="20" as="geometry" />
        </mxCell>
        <mxCell id="h1cVNeol6wAxd9jwS_Eo-83" style="edgeStyle=none;rounded=0;orthogonalLoop=1;jettySize=auto;html=1;entryX=0.9;entryY=0.492;entryDx=0;entryDy=0;entryPerimeter=0;dashed=1;" parent="ThrLVRlP--hXv5NNp5e8-1" source="h1cVNeol6wAxd9jwS_Eo-81" target="h1cVNeol6wAxd9jwS_Eo-78" edge="1">
          <mxGeometry relative="1" as="geometry">
            <mxPoint x="515" y="498.5" as="targetPoint" />
            <Array as="points">
              <mxPoint x="555" y="498.5" />
            </Array>
          </mxGeometry>
        </mxCell>
        <mxCell id="h1cVNeol6wAxd9jwS_Eo-81" value="" style="html=1;points=[];perimeter=orthogonalPerimeter;" parent="ThrLVRlP--hXv5NNp5e8-1" vertex="1">
          <mxGeometry x="740" y="438.5" width="10" height="70" as="geometry" />
        </mxCell>
        <mxCell id="h1cVNeol6wAxd9jwS_Eo-84" value="Get list branch" style="text;html=1;align=center;verticalAlign=middle;resizable=0;points=[];autosize=1;strokeColor=none;" parent="ThrLVRlP--hXv5NNp5e8-1" vertex="1">
          <mxGeometry x="575" y="448.5" width="90" height="20" as="geometry" />
        </mxCell>
        <mxCell id="h1cVNeol6wAxd9jwS_Eo-85" value="List branch" style="text;html=1;align=center;verticalAlign=middle;resizable=0;points=[];autosize=1;strokeColor=none;" parent="ThrLVRlP--hXv5NNp5e8-1" vertex="1">
          <mxGeometry x="590" y="478.5" width="70" height="20" as="geometry" />
        </mxCell>
        <mxCell id="h1cVNeol6wAxd9jwS_Eo-86" style="edgeStyle=none;rounded=0;orthogonalLoop=1;jettySize=auto;html=1;entryX=0.9;entryY=0.492;entryDx=0;entryDy=0;entryPerimeter=0;dashed=1;" parent="ThrLVRlP--hXv5NNp5e8-1" edge="1">
          <mxGeometry relative="1" as="geometry">
            <mxPoint x="492" y="528.02" as="sourcePoint" />
            <mxPoint x="268" y="528.04" as="targetPoint" />
            <Array as="points">
              <mxPoint x="314" y="529" />
            </Array>
          </mxGeometry>
        </mxCell>
        <mxCell id="h1cVNeol6wAxd9jwS_Eo-87" value="List branch" style="text;html=1;align=center;verticalAlign=middle;resizable=0;points=[];autosize=1;strokeColor=none;" parent="ThrLVRlP--hXv5NNp5e8-1" vertex="1">
          <mxGeometry x="349" y="509" width="70" height="20" as="geometry" />
        </mxCell>
        <mxCell id="h1cVNeol6wAxd9jwS_Eo-90" value="" style="edgeStyle=none;rounded=0;orthogonalLoop=1;jettySize=auto;html=1;" parent="ThrLVRlP--hXv5NNp5e8-1" edge="1">
          <mxGeometry relative="1" as="geometry">
            <mxPoint x="510" y="610.5" as="sourcePoint" />
            <mxPoint x="740" y="610.5" as="targetPoint" />
          </mxGeometry>
        </mxCell>
        <mxCell id="h1cVNeol6wAxd9jwS_Eo-88" value="" style="html=1;points=[];perimeter=orthogonalPerimeter;" parent="ThrLVRlP--hXv5NNp5e8-1" vertex="1">
          <mxGeometry x="500" y="568.5" width="10" height="130.5" as="geometry" />
        </mxCell>
        <mxCell id="h1cVNeol6wAxd9jwS_Eo-95" style="edgeStyle=none;rounded=0;orthogonalLoop=1;jettySize=auto;html=1;entryX=1.1;entryY=0.617;entryDx=0;entryDy=0;entryPerimeter=0;dashed=1;" parent="ThrLVRlP--hXv5NNp5e8-1" source="h1cVNeol6wAxd9jwS_Eo-89" target="h1cVNeol6wAxd9jwS_Eo-88" edge="1">
          <mxGeometry relative="1" as="geometry" />
        </mxCell>
        <mxCell id="h1cVNeol6wAxd9jwS_Eo-89" value="" style="html=1;points=[];perimeter=orthogonalPerimeter;" parent="ThrLVRlP--hXv5NNp5e8-1" vertex="1">
          <mxGeometry x="740" y="568.5" width="10" height="90.5" as="geometry" />
        </mxCell>
        <mxCell id="h1cVNeol6wAxd9jwS_Eo-92" value="Request print card" style="text;html=1;align=center;verticalAlign=middle;resizable=0;points=[];autosize=1;strokeColor=none;" parent="ThrLVRlP--hXv5NNp5e8-1" vertex="1">
          <mxGeometry x="330" y="567" width="110" height="20" as="geometry" />
        </mxCell>
        <mxCell id="h1cVNeol6wAxd9jwS_Eo-93" value="Print card" style="text;html=1;align=center;verticalAlign=middle;resizable=0;points=[];autosize=1;strokeColor=none;" parent="ThrLVRlP--hXv5NNp5e8-1" vertex="1">
          <mxGeometry x="591.5" y="589" width="70" height="20" as="geometry" />
        </mxCell>
        <mxCell id="h1cVNeol6wAxd9jwS_Eo-96" value="Response status" style="text;html=1;align=center;verticalAlign=middle;resizable=0;points=[];autosize=1;strokeColor=none;" parent="ThrLVRlP--hXv5NNp5e8-1" vertex="1">
          <mxGeometry x="570" y="629" width="100" height="20" as="geometry" />
        </mxCell>
        <mxCell id="h1cVNeol6wAxd9jwS_Eo-97" style="edgeStyle=none;rounded=0;orthogonalLoop=1;jettySize=auto;html=1;entryX=1.1;entryY=0.617;entryDx=0;entryDy=0;entryPerimeter=0;dashed=1;" parent="ThrLVRlP--hXv5NNp5e8-1" edge="1">
          <mxGeometry relative="1" as="geometry">
            <mxPoint x="498.5" y="679.0184999999999" as="sourcePoint" />
            <mxPoint x="269.5" y="679.0184999999999" as="targetPoint" />
          </mxGeometry>
        </mxCell>
        <mxCell id="h1cVNeol6wAxd9jwS_Eo-98" value="Response status" style="text;html=1;align=center;verticalAlign=middle;resizable=0;points=[];autosize=1;strokeColor=none;" parent="ThrLVRlP--hXv5NNp5e8-1" vertex="1">
          <mxGeometry x="328.5" y="659" width="100" height="20" as="geometry" />
        </mxCell>
        <mxCell id="h1cVNeol6wAxd9jwS_Eo-100" value="List print card fee" style="text;html=1;align=center;verticalAlign=middle;resizable=0;points=[];autosize=1;strokeColor=none;" parent="ThrLVRlP--hXv5NNp5e8-1" vertex="1">
          <mxGeometry x="326.5" y="280" width="110" height="20" as="geometry" />
        </mxCell>
        <mxCell id="h1cVNeol6wAxd9jwS_Eo-101" value="" style="html=1;points=[];perimeter=orthogonalPerimeter;" parent="ThrLVRlP--hXv5NNp5e8-1" vertex="1">
          <mxGeometry x="740" y="310" width="10" height="70" as="geometry" />
        </mxCell>
        <mxCell id="h1cVNeol6wAxd9jwS_Eo-102" value="" style="html=1;points=[];perimeter=orthogonalPerimeter;" parent="ThrLVRlP--hXv5NNp5e8-1" vertex="1">
          <mxGeometry x="500" y="319" width="10" height="80" as="geometry" />
        </mxCell>
      </root>
    </mxGraphModel>
  </diagram>
  <diagram id="RNCm8UG91IZfnlk1sBKF" name="Active-card">
    <mxGraphModel dx="1598" dy="1129" grid="1" gridSize="10" guides="1" tooltips="1" connect="1" arrows="1" fold="1" page="1" pageScale="1" pageWidth="850" pageHeight="1100" math="0" shadow="0">
      <root>
        <mxCell id="txvcgn66zjK2YZzkCY2I-0" />
        <mxCell id="txvcgn66zjK2YZzkCY2I-1" parent="txvcgn66zjK2YZzkCY2I-0" />
        <mxCell id="0F6m-J3amBxOR6tZp9lZ-0" style="edgeStyle=none;rounded=0;orthogonalLoop=1;jettySize=auto;html=1;entryX=0.1;entryY=0.076;entryDx=0;entryDy=0;entryPerimeter=0;fontSize=12;" edge="1" parent="txvcgn66zjK2YZzkCY2I-1">
          <mxGeometry relative="1" as="geometry">
            <mxPoint x="205" y="119.99999999999991" as="targetPoint" />
            <mxPoint x="48.5" y="119.99999999999991" as="sourcePoint" />
          </mxGeometry>
        </mxCell>
        <mxCell id="0F6m-J3amBxOR6tZp9lZ-1" style="edgeStyle=none;rounded=0;orthogonalLoop=1;jettySize=auto;html=1;fontSize=12;" edge="1" parent="txvcgn66zjK2YZzkCY2I-1">
          <mxGeometry relative="1" as="geometry">
            <mxPoint x="203" y="162" as="targetPoint" />
            <mxPoint x="49.5" y="162" as="sourcePoint" />
            <Array as="points">
              <mxPoint x="180" y="162" />
            </Array>
          </mxGeometry>
        </mxCell>
        <mxCell id="0F6m-J3amBxOR6tZp9lZ-2" value="MBA Usert" style="shape=umlLifeline;participant=umlActor;perimeter=lifelinePerimeter;html=1;container=1;collapsible=0;recursiveResize=0;verticalAlign=top;spacingTop=36;outlineConnect=0;strokeColor=#000000;strokeWidth=1;fillColor=none;size=40;" vertex="1" parent="txvcgn66zjK2YZzkCY2I-1">
          <mxGeometry x="40" y="25" width="20" height="575" as="geometry" />
        </mxCell>
        <mxCell id="0F6m-J3amBxOR6tZp9lZ-3" value="&lt;span&gt;Mobile App&lt;/span&gt;" style="shape=umlLifeline;perimeter=lifelinePerimeter;whiteSpace=wrap;html=1;container=1;collapsible=0;recursiveResize=0;outlineConnect=0;rounded=0;shadow=0;strokeColor=#000000;strokeWidth=1;fillColor=none;verticalAlign=middle;" vertex="1" parent="txvcgn66zjK2YZzkCY2I-1">
          <mxGeometry x="160" y="40" width="100" height="560" as="geometry" />
        </mxCell>
        <mxCell id="0F6m-J3amBxOR6tZp9lZ-4" value="&lt;span&gt;Card service&lt;/span&gt;" style="shape=umlLifeline;perimeter=lifelinePerimeter;whiteSpace=wrap;html=1;container=1;collapsible=0;recursiveResize=0;outlineConnect=0;rounded=0;shadow=0;strokeColor=#000000;strokeWidth=1;fillColor=none;verticalAlign=middle;" vertex="1" parent="txvcgn66zjK2YZzkCY2I-1">
          <mxGeometry x="520" y="40" width="100" height="560" as="geometry" />
        </mxCell>
        <mxCell id="0F6m-J3amBxOR6tZp9lZ-5" value="&lt;span&gt;Auth Service&lt;/span&gt;" style="shape=umlLifeline;perimeter=lifelinePerimeter;whiteSpace=wrap;html=1;container=1;collapsible=0;recursiveResize=0;outlineConnect=0;rounded=0;shadow=0;strokeColor=#000000;strokeWidth=1;fillColor=none;verticalAlign=middle;" vertex="1" parent="txvcgn66zjK2YZzkCY2I-1">
          <mxGeometry x="340" y="40" width="100" height="560" as="geometry" />
        </mxCell>
        <mxCell id="0F6m-J3amBxOR6tZp9lZ-6" value="AAG" style="shape=umlLifeline;perimeter=lifelinePerimeter;whiteSpace=wrap;html=1;container=1;collapsible=0;recursiveResize=0;outlineConnect=0;" vertex="1" parent="txvcgn66zjK2YZzkCY2I-1">
          <mxGeometry x="700" y="40" width="100" height="560" as="geometry" />
        </mxCell>
        <mxCell id="0F6m-J3amBxOR6tZp9lZ-7" value="&amp;nbsp;Active card" style="text;html=1;align=center;verticalAlign=middle;resizable=0;points=[];autosize=1;strokeColor=none;fontSize=12;" vertex="1" parent="txvcgn66zjK2YZzkCY2I-1">
          <mxGeometry x="85" y="100" width="80" height="20" as="geometry" />
        </mxCell>
        <mxCell id="0F6m-J3amBxOR6tZp9lZ-8" value="Request authentication" style="text;html=1;align=center;verticalAlign=middle;resizable=0;points=[];autosize=1;strokeColor=none;fontSize=12;" vertex="1" parent="txvcgn66zjK2YZzkCY2I-1">
          <mxGeometry x="57.75" y="120" width="140" height="20" as="geometry" />
        </mxCell>
        <mxCell id="0F6m-J3amBxOR6tZp9lZ-9" value="Input authentication value" style="text;html=1;align=center;verticalAlign=middle;resizable=0;points=[];autosize=1;strokeColor=none;fontSize=12;" vertex="1" parent="txvcgn66zjK2YZzkCY2I-1">
          <mxGeometry x="55" y="141" width="150" height="20" as="geometry" />
        </mxCell>
        <mxCell id="0F6m-J3amBxOR6tZp9lZ-10" value="Verify authention input" style="text;html=1;align=center;verticalAlign=middle;resizable=0;points=[];autosize=1;strokeColor=none;fontSize=12;" vertex="1" parent="txvcgn66zjK2YZzkCY2I-1">
          <mxGeometry x="235" y="161" width="130" height="20" as="geometry" />
        </mxCell>
        <mxCell id="0F6m-J3amBxOR6tZp9lZ-11" value="Alternative" style="shape=umlFrame;whiteSpace=wrap;html=1;fontSize=12;verticalAlign=middle;width=70;height=30;" vertex="1" parent="txvcgn66zjK2YZzkCY2I-1">
          <mxGeometry x="10" y="210" width="780" height="330" as="geometry" />
        </mxCell>
        <mxCell id="0F6m-J3amBxOR6tZp9lZ-12" value="Authention invalid" style="text;html=1;align=center;verticalAlign=middle;resizable=0;points=[];autosize=1;strokeColor=none;fontSize=12;" vertex="1" parent="txvcgn66zjK2YZzkCY2I-1">
          <mxGeometry x="245" y="220" width="110" height="20" as="geometry" />
        </mxCell>
        <mxCell id="0F6m-J3amBxOR6tZp9lZ-13" value="Show error" style="text;html=1;align=center;verticalAlign=middle;resizable=0;points=[];autosize=1;strokeColor=none;fontSize=12;" vertex="1" parent="txvcgn66zjK2YZzkCY2I-1">
          <mxGeometry x="95" y="240" width="70" height="20" as="geometry" />
        </mxCell>
        <mxCell id="0F6m-J3amBxOR6tZp9lZ-14" value="Authention OK" style="text;html=1;align=center;verticalAlign=middle;resizable=0;points=[];autosize=1;strokeColor=none;fontSize=12;" vertex="1" parent="txvcgn66zjK2YZzkCY2I-1">
          <mxGeometry x="255" y="280" width="90" height="20" as="geometry" />
        </mxCell>
        <mxCell id="0F6m-J3amBxOR6tZp9lZ-15" value="" style="line;strokeWidth=1;fillColor=none;align=left;verticalAlign=middle;spacingTop=-1;spacingLeft=3;spacingRight=3;rotatable=0;labelPosition=right;points=[];portConstraint=eastwest;fontSize=12;dashed=1;" vertex="1" parent="txvcgn66zjK2YZzkCY2I-1">
          <mxGeometry x="10" y="272" width="780" height="8" as="geometry" />
        </mxCell>
        <mxCell id="0F6m-J3amBxOR6tZp9lZ-16" style="edgeStyle=none;rounded=0;orthogonalLoop=1;jettySize=auto;html=1;fontSize=12;dashed=1;" edge="1" parent="txvcgn66zjK2YZzkCY2I-1">
          <mxGeometry relative="1" as="geometry">
            <mxPoint x="205" y="140" as="sourcePoint" />
            <Array as="points">
              <mxPoint x="170" y="140" />
            </Array>
            <mxPoint x="49.5" y="140" as="targetPoint" />
          </mxGeometry>
        </mxCell>
        <mxCell id="0F6m-J3amBxOR6tZp9lZ-17" style="edgeStyle=none;rounded=0;orthogonalLoop=1;jettySize=auto;html=1;entryX=0;entryY=0.231;entryDx=0;entryDy=0;entryPerimeter=0;fontSize=12;" edge="1" parent="txvcgn66zjK2YZzkCY2I-1">
          <mxGeometry relative="1" as="geometry">
            <mxPoint x="215" y="181.02999999999997" as="sourcePoint" />
            <mxPoint x="385" y="181.02999999999997" as="targetPoint" />
          </mxGeometry>
        </mxCell>
        <mxCell id="0F6m-J3amBxOR6tZp9lZ-18" style="edgeStyle=none;rounded=0;orthogonalLoop=1;jettySize=auto;html=1;entryX=1.2;entryY=0.385;entryDx=0;entryDy=0;entryPerimeter=0;fontSize=12;dashed=1;" edge="1" parent="txvcgn66zjK2YZzkCY2I-1">
          <mxGeometry relative="1" as="geometry">
            <mxPoint x="217" y="239.9000000000001" as="targetPoint" />
            <mxPoint x="385" y="239.9000000000001" as="sourcePoint" />
          </mxGeometry>
        </mxCell>
        <mxCell id="0F6m-J3amBxOR6tZp9lZ-19" style="edgeStyle=none;rounded=0;orthogonalLoop=1;jettySize=auto;html=1;entryX=1;entryY=0.553;entryDx=0;entryDy=0;entryPerimeter=0;dashed=1;fontSize=12;" edge="1" parent="txvcgn66zjK2YZzkCY2I-1">
          <mxGeometry relative="1" as="geometry">
            <mxPoint x="215" y="299.02" as="targetPoint" />
            <mxPoint x="385" y="299.02" as="sourcePoint" />
          </mxGeometry>
        </mxCell>
        <mxCell id="0F6m-J3amBxOR6tZp9lZ-20" value="" style="html=1;points=[];perimeter=orthogonalPerimeter;fontSize=12;verticalAlign=middle;" vertex="1" parent="txvcgn66zjK2YZzkCY2I-1">
          <mxGeometry x="385" y="170" width="10" height="130" as="geometry" />
        </mxCell>
        <mxCell id="0F6m-J3amBxOR6tZp9lZ-21" style="edgeStyle=none;rounded=0;orthogonalLoop=1;jettySize=auto;html=1;fontSize=12;dashed=1;" edge="1" parent="txvcgn66zjK2YZzkCY2I-1">
          <mxGeometry relative="1" as="geometry">
            <mxPoint x="208" y="260" as="sourcePoint" />
            <mxPoint x="50" y="260" as="targetPoint" />
          </mxGeometry>
        </mxCell>
        <mxCell id="0F6m-J3amBxOR6tZp9lZ-22" value="If invalid" style="text;align=center;fontStyle=1;verticalAlign=middle;spacingLeft=3;spacingRight=3;strokeColor=none;rotatable=0;points=[[0,0.5],[1,0.5]];portConstraint=eastwest;fontSize=12;" vertex="1" parent="txvcgn66zjK2YZzkCY2I-1">
          <mxGeometry x="90" y="210" width="80" height="26" as="geometry" />
        </mxCell>
        <mxCell id="0F6m-J3amBxOR6tZp9lZ-23" value="Else" style="text;align=center;fontStyle=1;verticalAlign=middle;spacingLeft=3;spacingRight=3;strokeColor=none;rotatable=0;points=[[0,0.5],[1,0.5]];portConstraint=eastwest;fontSize=12;" vertex="1" parent="txvcgn66zjK2YZzkCY2I-1">
          <mxGeometry x="85" y="277" width="80" height="26" as="geometry" />
        </mxCell>
        <mxCell id="0F6m-J3amBxOR6tZp9lZ-24" value="Alternative" style="shape=umlFrame;whiteSpace=wrap;html=1;fontSize=12;verticalAlign=middle;width=70;height=30;" vertex="1" parent="txvcgn66zjK2YZzkCY2I-1">
          <mxGeometry x="30" y="350" width="740" height="170" as="geometry" />
        </mxCell>
        <mxCell id="0F6m-J3amBxOR6tZp9lZ-25" value="Send active card" style="text;html=1;align=center;verticalAlign=middle;resizable=0;points=[];autosize=1;strokeColor=none;fontSize=12;" vertex="1" parent="txvcgn66zjK2YZzkCY2I-1">
          <mxGeometry x="247.75" y="300" width="100" height="20" as="geometry" />
        </mxCell>
        <mxCell id="0F6m-J3amBxOR6tZp9lZ-26" value="Request active card" style="text;html=1;align=center;verticalAlign=middle;resizable=0;points=[];autosize=1;strokeColor=none;fontSize=12;" vertex="1" parent="txvcgn66zjK2YZzkCY2I-1">
          <mxGeometry x="597.75" y="317" width="120" height="20" as="geometry" />
        </mxCell>
        <mxCell id="0F6m-J3amBxOR6tZp9lZ-27" value="Response fails" style="text;html=1;align=center;verticalAlign=middle;resizable=0;points=[];autosize=1;strokeColor=none;fontSize=12;" vertex="1" parent="txvcgn66zjK2YZzkCY2I-1">
          <mxGeometry x="612.75" y="348" width="90" height="20" as="geometry" />
        </mxCell>
        <mxCell id="0F6m-J3amBxOR6tZp9lZ-28" value="Response active card fails" style="text;html=1;align=center;verticalAlign=middle;resizable=0;points=[];autosize=1;strokeColor=none;fontSize=12;" vertex="1" parent="txvcgn66zjK2YZzkCY2I-1">
          <mxGeometry x="222.75" y="369" width="160" height="20" as="geometry" />
        </mxCell>
        <mxCell id="0F6m-J3amBxOR6tZp9lZ-29" value="Show popup active fails" style="text;html=1;align=center;verticalAlign=middle;resizable=0;points=[];autosize=1;strokeColor=none;fontSize=12;" vertex="1" parent="txvcgn66zjK2YZzkCY2I-1">
          <mxGeometry x="57.75" y="389" width="140" height="20" as="geometry" />
        </mxCell>
        <mxCell id="0F6m-J3amBxOR6tZp9lZ-30" style="edgeStyle=none;rounded=0;orthogonalLoop=1;jettySize=auto;html=1;entryX=1.3;entryY=0.555;entryDx=0;entryDy=0;entryPerimeter=0;fontSize=12;dashed=1;" edge="1" parent="txvcgn66zjK2YZzkCY2I-1">
          <mxGeometry relative="1" as="geometry">
            <mxPoint x="742.75" y="369.04999999999995" as="sourcePoint" />
            <mxPoint x="575.75" y="369.04999999999995" as="targetPoint" />
          </mxGeometry>
        </mxCell>
        <mxCell id="0F6m-J3amBxOR6tZp9lZ-31" style="edgeStyle=none;rounded=0;orthogonalLoop=1;jettySize=auto;html=1;entryX=1.1;entryY=0.832;entryDx=0;entryDy=0;entryPerimeter=0;fontSize=12;dashed=1;" edge="1" parent="txvcgn66zjK2YZzkCY2I-1">
          <mxGeometry relative="1" as="geometry">
            <mxPoint x="213.75" y="389.8800000000001" as="targetPoint" />
            <mxPoint x="562.75" y="389.8800000000001" as="sourcePoint" />
          </mxGeometry>
        </mxCell>
        <mxCell id="0F6m-J3amBxOR6tZp9lZ-32" style="edgeStyle=none;rounded=0;orthogonalLoop=1;jettySize=auto;html=1;entryX=-0.125;entryY=0.243;entryDx=0;entryDy=0;entryPerimeter=0;dashed=1;fontSize=12;" edge="1" parent="txvcgn66zjK2YZzkCY2I-1">
          <mxGeometry relative="1" as="geometry">
            <mxPoint x="572.75" y="336.45000000000005" as="sourcePoint" />
            <mxPoint x="741.5" y="336.45000000000005" as="targetPoint" />
          </mxGeometry>
        </mxCell>
        <mxCell id="0F6m-J3amBxOR6tZp9lZ-33" style="edgeStyle=none;rounded=0;orthogonalLoop=1;jettySize=auto;html=1;entryX=0.025;entryY=0.118;entryDx=0;entryDy=0;entryPerimeter=0;fontSize=12;" edge="1" parent="txvcgn66zjK2YZzkCY2I-1">
          <mxGeometry relative="1" as="geometry">
            <mxPoint x="212.75" y="320.02" as="sourcePoint" />
            <mxPoint x="563" y="320.05999999999995" as="targetPoint" />
          </mxGeometry>
        </mxCell>
        <mxCell id="0F6m-J3amBxOR6tZp9lZ-34" style="edgeStyle=none;rounded=0;orthogonalLoop=1;jettySize=auto;html=1;fontSize=12;dashed=1;" edge="1" parent="txvcgn66zjK2YZzkCY2I-1">
          <mxGeometry relative="1" as="geometry">
            <mxPoint x="201.3800000000001" y="410" as="sourcePoint" />
            <mxPoint x="48.63000000000011" y="410" as="targetPoint" />
          </mxGeometry>
        </mxCell>
        <mxCell id="0F6m-J3amBxOR6tZp9lZ-35" value="" style="line;strokeWidth=1;fillColor=none;align=left;verticalAlign=middle;spacingTop=-1;spacingLeft=3;spacingRight=3;rotatable=0;labelPosition=right;points=[];portConstraint=eastwest;fontSize=12;dashed=1;" vertex="1" parent="txvcgn66zjK2YZzkCY2I-1">
          <mxGeometry x="30" y="418" width="740" height="8" as="geometry" />
        </mxCell>
        <mxCell id="0F6m-J3amBxOR6tZp9lZ-36" value="Response success" style="text;html=1;align=center;verticalAlign=middle;resizable=0;points=[];autosize=1;strokeColor=none;fontSize=12;" vertex="1" parent="txvcgn66zjK2YZzkCY2I-1">
          <mxGeometry x="597.75" y="426" width="120" height="20" as="geometry" />
        </mxCell>
        <mxCell id="0F6m-J3amBxOR6tZp9lZ-37" value="Response active card success" style="text;html=1;align=center;verticalAlign=middle;resizable=0;points=[];autosize=1;strokeColor=none;fontSize=12;" vertex="1" parent="txvcgn66zjK2YZzkCY2I-1">
          <mxGeometry x="216" y="443" width="180" height="20" as="geometry" />
        </mxCell>
        <mxCell id="0F6m-J3amBxOR6tZp9lZ-38" value="Show popup active success" style="text;html=1;align=center;verticalAlign=middle;resizable=0;points=[];autosize=1;strokeColor=none;fontSize=12;" vertex="1" parent="txvcgn66zjK2YZzkCY2I-1">
          <mxGeometry x="47.75" y="466" width="160" height="20" as="geometry" />
        </mxCell>
        <mxCell id="0F6m-J3amBxOR6tZp9lZ-39" style="edgeStyle=none;rounded=0;orthogonalLoop=1;jettySize=auto;html=1;entryX=1.3;entryY=0.555;entryDx=0;entryDy=0;entryPerimeter=0;fontSize=12;dashed=1;" edge="1" parent="txvcgn66zjK2YZzkCY2I-1">
          <mxGeometry relative="1" as="geometry">
            <mxPoint x="742.75" y="446" as="sourcePoint" />
            <mxPoint x="575.75" y="446" as="targetPoint" />
          </mxGeometry>
        </mxCell>
        <mxCell id="0F6m-J3amBxOR6tZp9lZ-40" style="edgeStyle=none;rounded=0;orthogonalLoop=1;jettySize=auto;html=1;entryX=1.1;entryY=0.832;entryDx=0;entryDy=0;entryPerimeter=0;fontSize=12;dashed=1;" edge="1" parent="txvcgn66zjK2YZzkCY2I-1">
          <mxGeometry relative="1" as="geometry">
            <mxPoint x="212.75" y="463" as="targetPoint" />
            <mxPoint x="561.75" y="463" as="sourcePoint" />
          </mxGeometry>
        </mxCell>
        <mxCell id="0F6m-J3amBxOR6tZp9lZ-41" style="edgeStyle=none;rounded=0;orthogonalLoop=1;jettySize=auto;html=1;fontSize=12;dashed=1;" edge="1" parent="txvcgn66zjK2YZzkCY2I-1">
          <mxGeometry relative="1" as="geometry">
            <mxPoint x="202.75" y="487" as="sourcePoint" />
            <mxPoint x="50" y="487" as="targetPoint" />
          </mxGeometry>
        </mxCell>
        <mxCell id="0F6m-J3amBxOR6tZp9lZ-42" value="If fails" style="text;align=center;fontStyle=1;verticalAlign=middle;spacingLeft=3;spacingRight=3;strokeColor=none;rotatable=0;points=[[0,0.5],[1,0.5]];portConstraint=eastwest;fontSize=12;" vertex="1" parent="txvcgn66zjK2YZzkCY2I-1">
          <mxGeometry x="90" y="350" width="80" height="26" as="geometry" />
        </mxCell>
        <mxCell id="0F6m-J3amBxOR6tZp9lZ-43" value="Else" style="text;align=center;fontStyle=1;verticalAlign=middle;spacingLeft=3;spacingRight=3;strokeColor=none;rotatable=0;points=[[0,0.5],[1,0.5]];portConstraint=eastwest;fontSize=12;" vertex="1" parent="txvcgn66zjK2YZzkCY2I-1">
          <mxGeometry x="85" y="420" width="80" height="26" as="geometry" />
        </mxCell>
        <mxCell id="0F6m-J3amBxOR6tZp9lZ-44" value="" style="html=1;points=[];perimeter=orthogonalPerimeter;fontSize=12;verticalAlign=middle;" vertex="1" parent="txvcgn66zjK2YZzkCY2I-1">
          <mxGeometry x="742.75" y="300" width="10" height="150" as="geometry" />
        </mxCell>
        <mxCell id="0F6m-J3amBxOR6tZp9lZ-45" value="" style="html=1;points=[];perimeter=orthogonalPerimeter;fontSize=12;verticalAlign=middle;" vertex="1" parent="txvcgn66zjK2YZzkCY2I-1">
          <mxGeometry x="562.75" y="300" width="10" height="170" as="geometry" />
        </mxCell>
        <mxCell id="0F6m-J3amBxOR6tZp9lZ-46" value="" style="html=1;points=[];perimeter=orthogonalPerimeter;fontSize=12;verticalAlign=middle;" vertex="1" parent="txvcgn66zjK2YZzkCY2I-1">
          <mxGeometry x="205" y="110" width="10" height="480" as="geometry" />
        </mxCell>
      </root>
    </mxGraphModel>
  </diagram>
  <diagram id="RvyQlW6dXX-TzWUUUkBq" name="Cancel-card">
    <mxGraphModel dx="1598" dy="1129" grid="1" gridSize="10" guides="1" tooltips="1" connect="1" arrows="1" fold="1" page="1" pageScale="1" pageWidth="850" pageHeight="1100" math="0" shadow="0">
      <root>
        <mxCell id="shO6gqlS_beMWsZe3-A7-0" />
        <mxCell id="shO6gqlS_beMWsZe3-A7-1" parent="shO6gqlS_beMWsZe3-A7-0" />
        <mxCell id="6M7hcdPoauphdkDBoMyB-47" style="edgeStyle=none;rounded=0;orthogonalLoop=1;jettySize=auto;html=1;entryX=0.1;entryY=0.076;entryDx=0;entryDy=0;entryPerimeter=0;fontSize=12;" edge="1" parent="shO6gqlS_beMWsZe3-A7-1">
          <mxGeometry relative="1" as="geometry">
            <mxPoint x="216" y="429.8399999999999" as="targetPoint" />
            <mxPoint x="59.5" y="429.8399999999999" as="sourcePoint" />
          </mxGeometry>
        </mxCell>
        <mxCell id="6M7hcdPoauphdkDBoMyB-48" style="edgeStyle=none;rounded=0;orthogonalLoop=1;jettySize=auto;html=1;entryX=-0.2;entryY=0.209;entryDx=0;entryDy=0;entryPerimeter=0;fontSize=12;" edge="1" parent="shO6gqlS_beMWsZe3-A7-1">
          <mxGeometry relative="1" as="geometry">
            <mxPoint x="213" y="471.05999999999995" as="targetPoint" />
            <mxPoint x="59.5" y="471.05999999999995" as="sourcePoint" />
          </mxGeometry>
        </mxCell>
        <mxCell id="UQbbr4HbcIspCmUn-rE7-14" style="edgeStyle=none;rounded=0;orthogonalLoop=1;jettySize=auto;html=1;entryX=0;entryY=0.107;entryDx=0;entryDy=0;entryPerimeter=0;fontSize=12;" edge="1" parent="shO6gqlS_beMWsZe3-A7-1" source="6M7hcdPoauphdkDBoMyB-49" target="UQbbr4HbcIspCmUn-rE7-11">
          <mxGeometry relative="1" as="geometry" />
        </mxCell>
        <mxCell id="6M7hcdPoauphdkDBoMyB-49" value="MBA Usert" style="shape=umlLifeline;participant=umlActor;perimeter=lifelinePerimeter;html=1;container=1;collapsible=0;recursiveResize=0;verticalAlign=top;spacingTop=36;outlineConnect=0;strokeColor=#000000;strokeWidth=1;fillColor=none;size=40;" vertex="1" parent="shO6gqlS_beMWsZe3-A7-1">
          <mxGeometry x="50" y="24" width="20" height="856" as="geometry" />
        </mxCell>
        <mxCell id="6M7hcdPoauphdkDBoMyB-50" value="&lt;span&gt;Mobile App&lt;/span&gt;" style="shape=umlLifeline;perimeter=lifelinePerimeter;whiteSpace=wrap;html=1;container=1;collapsible=0;recursiveResize=0;outlineConnect=0;rounded=0;shadow=0;strokeColor=#000000;strokeWidth=1;fillColor=none;verticalAlign=middle;" vertex="1" parent="shO6gqlS_beMWsZe3-A7-1">
          <mxGeometry x="170" y="39" width="100" height="841" as="geometry" />
        </mxCell>
        <mxCell id="6M7hcdPoauphdkDBoMyB-51" value="&lt;span&gt;Card service&lt;/span&gt;" style="shape=umlLifeline;perimeter=lifelinePerimeter;whiteSpace=wrap;html=1;container=1;collapsible=0;recursiveResize=0;outlineConnect=0;rounded=0;shadow=0;strokeColor=#000000;strokeWidth=1;fillColor=none;verticalAlign=middle;" vertex="1" parent="shO6gqlS_beMWsZe3-A7-1">
          <mxGeometry x="530" y="39" width="100" height="841" as="geometry" />
        </mxCell>
        <mxCell id="6M7hcdPoauphdkDBoMyB-52" value="&lt;span&gt;Auth Service&lt;/span&gt;" style="shape=umlLifeline;perimeter=lifelinePerimeter;whiteSpace=wrap;html=1;container=1;collapsible=0;recursiveResize=0;outlineConnect=0;rounded=0;shadow=0;strokeColor=#000000;strokeWidth=1;fillColor=none;verticalAlign=middle;" vertex="1" parent="shO6gqlS_beMWsZe3-A7-1">
          <mxGeometry x="350" y="39" width="100" height="841" as="geometry" />
        </mxCell>
        <mxCell id="6M7hcdPoauphdkDBoMyB-53" value="AAG" style="shape=umlLifeline;perimeter=lifelinePerimeter;whiteSpace=wrap;html=1;container=1;collapsible=0;recursiveResize=0;outlineConnect=0;" vertex="1" parent="shO6gqlS_beMWsZe3-A7-1">
          <mxGeometry x="710" y="39" width="100" height="841" as="geometry" />
        </mxCell>
        <mxCell id="6M7hcdPoauphdkDBoMyB-54" value="Confirm cancel card" style="text;html=1;align=center;verticalAlign=middle;resizable=0;points=[];autosize=1;strokeColor=none;fontSize=12;" vertex="1" parent="shO6gqlS_beMWsZe3-A7-1">
          <mxGeometry x="75" y="410" width="120" height="20" as="geometry" />
        </mxCell>
        <mxCell id="6M7hcdPoauphdkDBoMyB-55" value="Request authentication" style="text;html=1;align=center;verticalAlign=middle;resizable=0;points=[];autosize=1;strokeColor=none;fontSize=12;" vertex="1" parent="shO6gqlS_beMWsZe3-A7-1">
          <mxGeometry x="70" y="430" width="140" height="20" as="geometry" />
        </mxCell>
        <mxCell id="6M7hcdPoauphdkDBoMyB-56" value="Input authentication value" style="text;html=1;align=center;verticalAlign=middle;resizable=0;points=[];autosize=1;strokeColor=none;fontSize=12;" vertex="1" parent="shO6gqlS_beMWsZe3-A7-1">
          <mxGeometry x="60" y="450" width="150" height="20" as="geometry" />
        </mxCell>
        <mxCell id="6M7hcdPoauphdkDBoMyB-57" value="Verify authention input" style="text;html=1;align=center;verticalAlign=middle;resizable=0;points=[];autosize=1;strokeColor=none;fontSize=12;" vertex="1" parent="shO6gqlS_beMWsZe3-A7-1">
          <mxGeometry x="245" y="470" width="130" height="20" as="geometry" />
        </mxCell>
        <mxCell id="6M7hcdPoauphdkDBoMyB-58" value="Alternative" style="shape=umlFrame;whiteSpace=wrap;html=1;fontSize=12;verticalAlign=middle;width=70;height=30;" vertex="1" parent="shO6gqlS_beMWsZe3-A7-1">
          <mxGeometry x="20" y="500" width="780" height="330" as="geometry" />
        </mxCell>
        <mxCell id="6M7hcdPoauphdkDBoMyB-59" value="Authention invalid" style="text;html=1;align=center;verticalAlign=middle;resizable=0;points=[];autosize=1;strokeColor=none;fontSize=12;" vertex="1" parent="shO6gqlS_beMWsZe3-A7-1">
          <mxGeometry x="255" y="510" width="110" height="20" as="geometry" />
        </mxCell>
        <mxCell id="6M7hcdPoauphdkDBoMyB-60" value="Show error" style="text;html=1;align=center;verticalAlign=middle;resizable=0;points=[];autosize=1;strokeColor=none;fontSize=12;" vertex="1" parent="shO6gqlS_beMWsZe3-A7-1">
          <mxGeometry x="105" y="530" width="70" height="20" as="geometry" />
        </mxCell>
        <mxCell id="6M7hcdPoauphdkDBoMyB-61" value="Authention OK" style="text;html=1;align=center;verticalAlign=middle;resizable=0;points=[];autosize=1;strokeColor=none;fontSize=12;" vertex="1" parent="shO6gqlS_beMWsZe3-A7-1">
          <mxGeometry x="265" y="570" width="90" height="20" as="geometry" />
        </mxCell>
        <mxCell id="6M7hcdPoauphdkDBoMyB-62" value="" style="line;strokeWidth=1;fillColor=none;align=left;verticalAlign=middle;spacingTop=-1;spacingLeft=3;spacingRight=3;rotatable=0;labelPosition=right;points=[];portConstraint=eastwest;fontSize=12;dashed=1;" vertex="1" parent="shO6gqlS_beMWsZe3-A7-1">
          <mxGeometry x="20" y="562" width="780" height="8" as="geometry" />
        </mxCell>
        <mxCell id="6M7hcdPoauphdkDBoMyB-63" style="edgeStyle=none;rounded=0;orthogonalLoop=1;jettySize=auto;html=1;fontSize=12;dashed=1;" edge="1" parent="shO6gqlS_beMWsZe3-A7-1">
          <mxGeometry relative="1" as="geometry">
            <mxPoint x="215" y="450" as="sourcePoint" />
            <Array as="points">
              <mxPoint x="180" y="450" />
            </Array>
            <mxPoint x="59.5" y="450" as="targetPoint" />
          </mxGeometry>
        </mxCell>
        <mxCell id="6M7hcdPoauphdkDBoMyB-64" style="edgeStyle=none;rounded=0;orthogonalLoop=1;jettySize=auto;html=1;entryX=0;entryY=0.231;entryDx=0;entryDy=0;entryPerimeter=0;fontSize=12;" edge="1" parent="shO6gqlS_beMWsZe3-A7-1" target="6M7hcdPoauphdkDBoMyB-67">
          <mxGeometry relative="1" as="geometry">
            <mxPoint x="225" y="490.03" as="sourcePoint" />
          </mxGeometry>
        </mxCell>
        <mxCell id="6M7hcdPoauphdkDBoMyB-65" style="edgeStyle=none;rounded=0;orthogonalLoop=1;jettySize=auto;html=1;entryX=1.2;entryY=0.385;entryDx=0;entryDy=0;entryPerimeter=0;fontSize=12;dashed=1;" edge="1" parent="shO6gqlS_beMWsZe3-A7-1">
          <mxGeometry relative="1" as="geometry">
            <mxPoint x="227" y="529.9000000000001" as="targetPoint" />
            <mxPoint x="395" y="529.9000000000001" as="sourcePoint" />
          </mxGeometry>
        </mxCell>
        <mxCell id="6M7hcdPoauphdkDBoMyB-66" style="edgeStyle=none;rounded=0;orthogonalLoop=1;jettySize=auto;html=1;entryX=1;entryY=0.553;entryDx=0;entryDy=0;entryPerimeter=0;dashed=1;fontSize=12;" edge="1" parent="shO6gqlS_beMWsZe3-A7-1">
          <mxGeometry relative="1" as="geometry">
            <mxPoint x="225" y="589.02" as="targetPoint" />
            <mxPoint x="395" y="589.02" as="sourcePoint" />
          </mxGeometry>
        </mxCell>
        <mxCell id="6M7hcdPoauphdkDBoMyB-67" value="" style="html=1;points=[];perimeter=orthogonalPerimeter;fontSize=12;verticalAlign=middle;" vertex="1" parent="shO6gqlS_beMWsZe3-A7-1">
          <mxGeometry x="395" y="460" width="10" height="130" as="geometry" />
        </mxCell>
        <mxCell id="6M7hcdPoauphdkDBoMyB-68" style="edgeStyle=none;rounded=0;orthogonalLoop=1;jettySize=auto;html=1;fontSize=12;dashed=1;" edge="1" parent="shO6gqlS_beMWsZe3-A7-1">
          <mxGeometry relative="1" as="geometry">
            <mxPoint x="218" y="550" as="sourcePoint" />
            <mxPoint x="60" y="550" as="targetPoint" />
          </mxGeometry>
        </mxCell>
        <mxCell id="6M7hcdPoauphdkDBoMyB-69" value="If invalid" style="text;align=center;fontStyle=1;verticalAlign=middle;spacingLeft=3;spacingRight=3;strokeColor=none;rotatable=0;points=[[0,0.5],[1,0.5]];portConstraint=eastwest;fontSize=12;" vertex="1" parent="shO6gqlS_beMWsZe3-A7-1">
          <mxGeometry x="100" y="500" width="80" height="26" as="geometry" />
        </mxCell>
        <mxCell id="6M7hcdPoauphdkDBoMyB-70" value="Else" style="text;align=center;fontStyle=1;verticalAlign=middle;spacingLeft=3;spacingRight=3;strokeColor=none;rotatable=0;points=[[0,0.5],[1,0.5]];portConstraint=eastwest;fontSize=12;" vertex="1" parent="shO6gqlS_beMWsZe3-A7-1">
          <mxGeometry x="95" y="567" width="80" height="26" as="geometry" />
        </mxCell>
        <mxCell id="6M7hcdPoauphdkDBoMyB-71" value="Alternative" style="shape=umlFrame;whiteSpace=wrap;html=1;fontSize=12;verticalAlign=middle;width=70;height=30;" vertex="1" parent="shO6gqlS_beMWsZe3-A7-1">
          <mxGeometry x="40" y="640" width="740" height="170" as="geometry" />
        </mxCell>
        <mxCell id="6M7hcdPoauphdkDBoMyB-72" value="Send request cancel card" style="text;html=1;align=center;verticalAlign=middle;resizable=0;points=[];autosize=1;strokeColor=none;fontSize=12;" vertex="1" parent="shO6gqlS_beMWsZe3-A7-1">
          <mxGeometry x="232.75" y="590" width="150" height="20" as="geometry" />
        </mxCell>
        <mxCell id="6M7hcdPoauphdkDBoMyB-73" value="Request cancel card" style="text;html=1;align=center;verticalAlign=middle;resizable=0;points=[];autosize=1;strokeColor=none;fontSize=12;" vertex="1" parent="shO6gqlS_beMWsZe3-A7-1">
          <mxGeometry x="607.75" y="607" width="120" height="20" as="geometry" />
        </mxCell>
        <mxCell id="6M7hcdPoauphdkDBoMyB-74" value="Response fails" style="text;html=1;align=center;verticalAlign=middle;resizable=0;points=[];autosize=1;strokeColor=none;fontSize=12;" vertex="1" parent="shO6gqlS_beMWsZe3-A7-1">
          <mxGeometry x="622.75" y="638" width="90" height="20" as="geometry" />
        </mxCell>
        <mxCell id="6M7hcdPoauphdkDBoMyB-75" value="Response cancel card fails" style="text;html=1;align=center;verticalAlign=middle;resizable=0;points=[];autosize=1;strokeColor=none;fontSize=12;" vertex="1" parent="shO6gqlS_beMWsZe3-A7-1">
          <mxGeometry x="232.75" y="659" width="160" height="20" as="geometry" />
        </mxCell>
        <mxCell id="6M7hcdPoauphdkDBoMyB-76" value="Show popup cancel &lt;br&gt;card fails" style="text;html=1;align=center;verticalAlign=middle;resizable=0;points=[];autosize=1;strokeColor=none;fontSize=12;" vertex="1" parent="shO6gqlS_beMWsZe3-A7-1">
          <mxGeometry x="77.75" y="670" width="120" height="30" as="geometry" />
        </mxCell>
        <mxCell id="6M7hcdPoauphdkDBoMyB-77" style="edgeStyle=none;rounded=0;orthogonalLoop=1;jettySize=auto;html=1;entryX=1.3;entryY=0.555;entryDx=0;entryDy=0;entryPerimeter=0;fontSize=12;dashed=1;" edge="1" parent="shO6gqlS_beMWsZe3-A7-1">
          <mxGeometry relative="1" as="geometry">
            <mxPoint x="752.75" y="659.05" as="sourcePoint" />
            <mxPoint x="585.75" y="659.05" as="targetPoint" />
          </mxGeometry>
        </mxCell>
        <mxCell id="6M7hcdPoauphdkDBoMyB-78" style="edgeStyle=none;rounded=0;orthogonalLoop=1;jettySize=auto;html=1;entryX=1.1;entryY=0.832;entryDx=0;entryDy=0;entryPerimeter=0;fontSize=12;dashed=1;" edge="1" parent="shO6gqlS_beMWsZe3-A7-1">
          <mxGeometry relative="1" as="geometry">
            <mxPoint x="223.75" y="679.8800000000001" as="targetPoint" />
            <mxPoint x="572.75" y="679.8800000000001" as="sourcePoint" />
          </mxGeometry>
        </mxCell>
        <mxCell id="6M7hcdPoauphdkDBoMyB-79" style="edgeStyle=none;rounded=0;orthogonalLoop=1;jettySize=auto;html=1;entryX=-0.125;entryY=0.243;entryDx=0;entryDy=0;entryPerimeter=0;dashed=1;fontSize=12;" edge="1" parent="shO6gqlS_beMWsZe3-A7-1">
          <mxGeometry relative="1" as="geometry">
            <mxPoint x="582.75" y="626.45" as="sourcePoint" />
            <mxPoint x="751.5" y="626.45" as="targetPoint" />
          </mxGeometry>
        </mxCell>
        <mxCell id="6M7hcdPoauphdkDBoMyB-80" style="edgeStyle=none;rounded=0;orthogonalLoop=1;jettySize=auto;html=1;entryX=0.025;entryY=0.118;entryDx=0;entryDy=0;entryPerimeter=0;fontSize=12;" edge="1" parent="shO6gqlS_beMWsZe3-A7-1">
          <mxGeometry relative="1" as="geometry">
            <mxPoint x="222.75" y="610.02" as="sourcePoint" />
            <mxPoint x="573" y="610.06" as="targetPoint" />
          </mxGeometry>
        </mxCell>
        <mxCell id="6M7hcdPoauphdkDBoMyB-81" style="edgeStyle=none;rounded=0;orthogonalLoop=1;jettySize=auto;html=1;fontSize=12;dashed=1;" edge="1" parent="shO6gqlS_beMWsZe3-A7-1">
          <mxGeometry relative="1" as="geometry">
            <mxPoint x="211.3800000000001" y="700" as="sourcePoint" />
            <mxPoint x="58.63000000000011" y="700" as="targetPoint" />
          </mxGeometry>
        </mxCell>
        <mxCell id="6M7hcdPoauphdkDBoMyB-82" value="" style="line;strokeWidth=1;fillColor=none;align=left;verticalAlign=middle;spacingTop=-1;spacingLeft=3;spacingRight=3;rotatable=0;labelPosition=right;points=[];portConstraint=eastwest;fontSize=12;dashed=1;" vertex="1" parent="shO6gqlS_beMWsZe3-A7-1">
          <mxGeometry x="40" y="708" width="740" height="8" as="geometry" />
        </mxCell>
        <mxCell id="6M7hcdPoauphdkDBoMyB-83" value="Response success" style="text;html=1;align=center;verticalAlign=middle;resizable=0;points=[];autosize=1;strokeColor=none;fontSize=12;" vertex="1" parent="shO6gqlS_beMWsZe3-A7-1">
          <mxGeometry x="607.75" y="716" width="120" height="20" as="geometry" />
        </mxCell>
        <mxCell id="6M7hcdPoauphdkDBoMyB-84" value="Response cancel card success" style="text;html=1;align=center;verticalAlign=middle;resizable=0;points=[];autosize=1;strokeColor=none;fontSize=12;" vertex="1" parent="shO6gqlS_beMWsZe3-A7-1">
          <mxGeometry x="228" y="733" width="180" height="20" as="geometry" />
        </mxCell>
        <mxCell id="6M7hcdPoauphdkDBoMyB-85" value="Show popup cancel card&lt;br style=&quot;font-size: 12px;&quot;&gt;success" style="text;html=1;align=center;verticalAlign=middle;resizable=0;points=[];autosize=1;strokeColor=none;fontSize=12;" vertex="1" parent="shO6gqlS_beMWsZe3-A7-1">
          <mxGeometry x="62.75" y="747" width="150" height="30" as="geometry" />
        </mxCell>
        <mxCell id="6M7hcdPoauphdkDBoMyB-86" style="edgeStyle=none;rounded=0;orthogonalLoop=1;jettySize=auto;html=1;entryX=1.3;entryY=0.555;entryDx=0;entryDy=0;entryPerimeter=0;fontSize=12;dashed=1;" edge="1" parent="shO6gqlS_beMWsZe3-A7-1">
          <mxGeometry relative="1" as="geometry">
            <mxPoint x="752.75" y="736" as="sourcePoint" />
            <mxPoint x="585.75" y="736" as="targetPoint" />
          </mxGeometry>
        </mxCell>
        <mxCell id="6M7hcdPoauphdkDBoMyB-87" style="edgeStyle=none;rounded=0;orthogonalLoop=1;jettySize=auto;html=1;entryX=1.1;entryY=0.832;entryDx=0;entryDy=0;entryPerimeter=0;fontSize=12;dashed=1;" edge="1" parent="shO6gqlS_beMWsZe3-A7-1">
          <mxGeometry relative="1" as="geometry">
            <mxPoint x="222.75" y="753" as="targetPoint" />
            <mxPoint x="571.75" y="753" as="sourcePoint" />
          </mxGeometry>
        </mxCell>
        <mxCell id="6M7hcdPoauphdkDBoMyB-88" style="edgeStyle=none;rounded=0;orthogonalLoop=1;jettySize=auto;html=1;fontSize=12;dashed=1;" edge="1" parent="shO6gqlS_beMWsZe3-A7-1">
          <mxGeometry relative="1" as="geometry">
            <mxPoint x="212.75" y="777" as="sourcePoint" />
            <mxPoint x="60" y="777" as="targetPoint" />
          </mxGeometry>
        </mxCell>
        <mxCell id="6M7hcdPoauphdkDBoMyB-89" value="If fails" style="text;align=center;fontStyle=1;verticalAlign=middle;spacingLeft=3;spacingRight=3;strokeColor=none;rotatable=0;points=[[0,0.5],[1,0.5]];portConstraint=eastwest;fontSize=12;" vertex="1" parent="shO6gqlS_beMWsZe3-A7-1">
          <mxGeometry x="100" y="640" width="80" height="26" as="geometry" />
        </mxCell>
        <mxCell id="6M7hcdPoauphdkDBoMyB-90" value="Else" style="text;align=center;fontStyle=1;verticalAlign=middle;spacingLeft=3;spacingRight=3;strokeColor=none;rotatable=0;points=[[0,0.5],[1,0.5]];portConstraint=eastwest;fontSize=12;" vertex="1" parent="shO6gqlS_beMWsZe3-A7-1">
          <mxGeometry x="95" y="710" width="80" height="26" as="geometry" />
        </mxCell>
        <mxCell id="6M7hcdPoauphdkDBoMyB-91" value="" style="html=1;points=[];perimeter=orthogonalPerimeter;fontSize=12;verticalAlign=middle;" vertex="1" parent="shO6gqlS_beMWsZe3-A7-1">
          <mxGeometry x="752.75" y="590" width="10" height="150" as="geometry" />
        </mxCell>
        <mxCell id="6M7hcdPoauphdkDBoMyB-92" value="" style="html=1;points=[];perimeter=orthogonalPerimeter;fontSize=12;verticalAlign=middle;" vertex="1" parent="shO6gqlS_beMWsZe3-A7-1">
          <mxGeometry x="572.75" y="590" width="10" height="170" as="geometry" />
        </mxCell>
        <mxCell id="6M7hcdPoauphdkDBoMyB-93" value="" style="html=1;points=[];perimeter=orthogonalPerimeter;fontSize=12;verticalAlign=middle;" vertex="1" parent="shO6gqlS_beMWsZe3-A7-1">
          <mxGeometry x="215" y="400" width="10" height="451" as="geometry" />
        </mxCell>
        <mxCell id="nJ7iaEJYSvKv5c6vkm2G-0" value="Cancel card" style="text;html=1;align=center;verticalAlign=middle;resizable=0;points=[];autosize=1;strokeColor=none;fontSize=12;" vertex="1" parent="shO6gqlS_beMWsZe3-A7-1">
          <mxGeometry x="95" y="100" width="80" height="20" as="geometry" />
        </mxCell>
        <mxCell id="nJ7iaEJYSvKv5c6vkm2G-1" value="Request cancel card" style="text;html=1;align=center;verticalAlign=middle;resizable=0;points=[];autosize=1;strokeColor=none;fontSize=12;" vertex="1" parent="shO6gqlS_beMWsZe3-A7-1">
          <mxGeometry x="250" y="120" width="120" height="20" as="geometry" />
        </mxCell>
        <mxCell id="nJ7iaEJYSvKv5c6vkm2G-2" value="Validate cancel card" style="text;html=1;align=center;verticalAlign=middle;resizable=0;points=[];autosize=1;strokeColor=none;fontSize=12;" vertex="1" parent="shO6gqlS_beMWsZe3-A7-1">
          <mxGeometry x="617.25" y="140" width="120" height="20" as="geometry" />
        </mxCell>
        <mxCell id="nJ7iaEJYSvKv5c6vkm2G-8" value="Alternative" style="shape=umlFrame;whiteSpace=wrap;html=1;fontSize=12;verticalAlign=middle;width=70;height=30;" vertex="1" parent="shO6gqlS_beMWsZe3-A7-1">
          <mxGeometry x="20" y="170" width="780" height="170" as="geometry" />
        </mxCell>
        <mxCell id="UQbbr4HbcIspCmUn-rE7-0" value="Respon invalid" style="text;html=1;align=center;verticalAlign=middle;resizable=0;points=[];autosize=1;strokeColor=none;fontSize=12;" vertex="1" parent="shO6gqlS_beMWsZe3-A7-1">
          <mxGeometry x="632.25" y="180" width="90" height="20" as="geometry" />
        </mxCell>
        <mxCell id="UQbbr4HbcIspCmUn-rE7-1" value="Response invalid cancel card" style="text;html=1;align=center;verticalAlign=middle;resizable=0;points=[];autosize=1;strokeColor=none;fontSize=12;" vertex="1" parent="shO6gqlS_beMWsZe3-A7-1">
          <mxGeometry x="222.75" y="200" width="170" height="20" as="geometry" />
        </mxCell>
        <mxCell id="UQbbr4HbcIspCmUn-rE7-3" value="Show error" style="text;html=1;align=center;verticalAlign=middle;resizable=0;points=[];autosize=1;strokeColor=none;fontSize=12;" vertex="1" parent="shO6gqlS_beMWsZe3-A7-1">
          <mxGeometry x="102.75" y="220" width="70" height="20" as="geometry" />
        </mxCell>
        <mxCell id="UQbbr4HbcIspCmUn-rE7-4" value="" style="line;strokeWidth=1;fillColor=none;align=left;verticalAlign=middle;spacingTop=-1;spacingLeft=3;spacingRight=3;rotatable=0;labelPosition=right;points=[];portConstraint=eastwest;fontSize=12;dashed=1;" vertex="1" parent="shO6gqlS_beMWsZe3-A7-1">
          <mxGeometry x="20" y="250" width="780" height="8" as="geometry" />
        </mxCell>
        <mxCell id="UQbbr4HbcIspCmUn-rE7-5" value="Respon valid" style="text;html=1;align=center;verticalAlign=middle;resizable=0;points=[];autosize=1;strokeColor=none;fontSize=12;" vertex="1" parent="shO6gqlS_beMWsZe3-A7-1">
          <mxGeometry x="637.25" y="260" width="80" height="20" as="geometry" />
        </mxCell>
        <mxCell id="UQbbr4HbcIspCmUn-rE7-6" value="Response cancel card valid" style="text;html=1;align=center;verticalAlign=middle;resizable=0;points=[];autosize=1;strokeColor=none;fontSize=12;" vertex="1" parent="shO6gqlS_beMWsZe3-A7-1">
          <mxGeometry x="230" y="280" width="160" height="20" as="geometry" />
        </mxCell>
        <mxCell id="UQbbr4HbcIspCmUn-rE7-7" value="Show popup confirm" style="text;html=1;align=center;verticalAlign=middle;resizable=0;points=[];autosize=1;strokeColor=none;fontSize=12;" vertex="1" parent="shO6gqlS_beMWsZe3-A7-1">
          <mxGeometry x="80" y="300" width="120" height="20" as="geometry" />
        </mxCell>
        <mxCell id="UQbbr4HbcIspCmUn-rE7-9" value="If invalid" style="text;align=center;fontStyle=1;verticalAlign=middle;spacingLeft=3;spacingRight=3;strokeColor=none;rotatable=0;points=[[0,0.5],[1,0.5]];portConstraint=eastwest;fontSize=12;" vertex="1" parent="shO6gqlS_beMWsZe3-A7-1">
          <mxGeometry x="97.75" y="170" width="80" height="26" as="geometry" />
        </mxCell>
        <mxCell id="UQbbr4HbcIspCmUn-rE7-10" value="Else" style="text;align=center;fontStyle=1;verticalAlign=middle;spacingLeft=3;spacingRight=3;strokeColor=none;rotatable=0;points=[[0,0.5],[1,0.5]];portConstraint=eastwest;fontSize=12;" vertex="1" parent="shO6gqlS_beMWsZe3-A7-1">
          <mxGeometry x="95" y="254" width="80" height="26" as="geometry" />
        </mxCell>
        <mxCell id="UQbbr4HbcIspCmUn-rE7-15" style="edgeStyle=none;rounded=0;orthogonalLoop=1;jettySize=auto;html=1;entryX=0;entryY=0.162;entryDx=0;entryDy=0;entryPerimeter=0;fontSize=12;" edge="1" parent="shO6gqlS_beMWsZe3-A7-1" source="UQbbr4HbcIspCmUn-rE7-11" target="UQbbr4HbcIspCmUn-rE7-12">
          <mxGeometry relative="1" as="geometry" />
        </mxCell>
        <mxCell id="UQbbr4HbcIspCmUn-rE7-20" style="edgeStyle=none;rounded=0;orthogonalLoop=1;jettySize=auto;html=1;dashed=1;fontSize=12;" edge="1" parent="shO6gqlS_beMWsZe3-A7-1">
          <mxGeometry relative="1" as="geometry">
            <mxPoint x="215" y="239" as="sourcePoint" />
            <mxPoint x="59.5" y="239" as="targetPoint" />
          </mxGeometry>
        </mxCell>
        <mxCell id="UQbbr4HbcIspCmUn-rE7-23" style="edgeStyle=none;rounded=0;orthogonalLoop=1;jettySize=auto;html=1;dashed=1;fontSize=12;" edge="1" parent="shO6gqlS_beMWsZe3-A7-1" source="UQbbr4HbcIspCmUn-rE7-11" target="6M7hcdPoauphdkDBoMyB-49">
          <mxGeometry relative="1" as="geometry">
            <Array as="points">
              <mxPoint x="90" y="320" />
            </Array>
          </mxGeometry>
        </mxCell>
        <mxCell id="UQbbr4HbcIspCmUn-rE7-11" value="" style="html=1;points=[];perimeter=orthogonalPerimeter;fontSize=11;verticalAlign=middle;" vertex="1" parent="shO6gqlS_beMWsZe3-A7-1">
          <mxGeometry x="215" y="90" width="10" height="290" as="geometry" />
        </mxCell>
        <mxCell id="UQbbr4HbcIspCmUn-rE7-16" style="edgeStyle=none;rounded=0;orthogonalLoop=1;jettySize=auto;html=1;entryX=-0.1;entryY=0.205;entryDx=0;entryDy=0;entryPerimeter=0;fontSize=12;" edge="1" parent="shO6gqlS_beMWsZe3-A7-1" source="UQbbr4HbcIspCmUn-rE7-12" target="UQbbr4HbcIspCmUn-rE7-13">
          <mxGeometry relative="1" as="geometry" />
        </mxCell>
        <mxCell id="UQbbr4HbcIspCmUn-rE7-18" style="edgeStyle=none;rounded=0;orthogonalLoop=1;jettySize=auto;html=1;entryX=0.9;entryY=0.448;entryDx=0;entryDy=0;entryPerimeter=0;dashed=1;fontSize=12;" edge="1" parent="shO6gqlS_beMWsZe3-A7-1" source="UQbbr4HbcIspCmUn-rE7-12" target="UQbbr4HbcIspCmUn-rE7-11">
          <mxGeometry relative="1" as="geometry" />
        </mxCell>
        <mxCell id="UQbbr4HbcIspCmUn-rE7-22" style="edgeStyle=none;rounded=0;orthogonalLoop=1;jettySize=auto;html=1;entryX=1;entryY=0.724;entryDx=0;entryDy=0;entryPerimeter=0;dashed=1;fontSize=12;" edge="1" parent="shO6gqlS_beMWsZe3-A7-1" source="UQbbr4HbcIspCmUn-rE7-12" target="UQbbr4HbcIspCmUn-rE7-11">
          <mxGeometry relative="1" as="geometry" />
        </mxCell>
        <mxCell id="UQbbr4HbcIspCmUn-rE7-12" value="" style="html=1;points=[];perimeter=orthogonalPerimeter;fontSize=12;verticalAlign=middle;" vertex="1" parent="shO6gqlS_beMWsZe3-A7-1">
          <mxGeometry x="575" y="105" width="10" height="210" as="geometry" />
        </mxCell>
        <mxCell id="UQbbr4HbcIspCmUn-rE7-17" style="edgeStyle=none;rounded=0;orthogonalLoop=1;jettySize=auto;html=1;entryX=1;entryY=0.457;entryDx=0;entryDy=0;entryPerimeter=0;fontSize=12;dashed=1;" edge="1" parent="shO6gqlS_beMWsZe3-A7-1" source="UQbbr4HbcIspCmUn-rE7-13" target="UQbbr4HbcIspCmUn-rE7-12">
          <mxGeometry relative="1" as="geometry" />
        </mxCell>
        <mxCell id="UQbbr4HbcIspCmUn-rE7-21" style="edgeStyle=none;rounded=0;orthogonalLoop=1;jettySize=auto;html=1;dashed=1;fontSize=12;entryX=0.9;entryY=0.833;entryDx=0;entryDy=0;entryPerimeter=0;" edge="1" parent="shO6gqlS_beMWsZe3-A7-1" source="UQbbr4HbcIspCmUn-rE7-13" target="UQbbr4HbcIspCmUn-rE7-12">
          <mxGeometry relative="1" as="geometry">
            <mxPoint x="589" y="279" as="targetPoint" />
          </mxGeometry>
        </mxCell>
        <mxCell id="UQbbr4HbcIspCmUn-rE7-13" value="" style="html=1;points=[];perimeter=orthogonalPerimeter;fontSize=12;verticalAlign=middle;" vertex="1" parent="shO6gqlS_beMWsZe3-A7-1">
          <mxGeometry x="755" y="120" width="10" height="190" as="geometry" />
        </mxCell>
      </root>
    </mxGraphModel>
  </diagram>
</mxfile>
